<?xml version="1.0" encoding="UTF-8" standalone="no"?>
<!DOCTYPE svg PUBLIC "-//W3C//DTD SVG 1.1//EN"
 "http://www.w3.org/Graphics/SVG/1.1/DTD/svg11.dtd">
<!-- Generated by graphviz version 6.0.2 (20221011.1828)
 -->
<!-- Title: G Pages: 1 -->
<svg width="1730pt" height="1196pt"
 viewBox="0.00 0.00 1729.93 1196.00" xmlns="http://www.w3.org/2000/svg" xmlns:xlink="http://www.w3.org/1999/xlink">
<g id="graph0" class="graph" transform="scale(1 1) rotate(0) translate(4 1192)">
<title>G</title>
<polygon fill="white" stroke="none" points="-4,4 -4,-1192 1725.93,-1192 1725.93,4 -4,4"/>
<!-- N1330278544 -->
<g id="node1" class="node">
<title>N1330278544</title>
<ellipse fill="none" stroke="black" cx="654.74" cy="-1170" rx="27" ry="18"/>
<text text-anchor="middle" x="654.74" y="-1166.3" font-family="Times New Roman,serif" font-size="14.00">&#45;</text>
</g>
<!-- N1870252780 -->
<g id="node2" class="node">
<title>N1870252780</title>
<ellipse fill="none" stroke="black" cx="616.74" cy="-1098" rx="32.49" ry="18"/>
<text text-anchor="middle" x="616.74" y="-1094.3" font-family="Times New Roman,serif" font-size="14.00">1.0X1</text>
</g>
<!-- N1330278544&#45;&gt;N1870252780 -->
<g id="edge1" class="edge">
<title>N1330278544&#45;&gt;N1870252780</title>
<path fill="none" stroke="black" d="M645.93,-1152.76C641.39,-1144.4 635.75,-1134.02 630.64,-1124.61"/>
<polygon fill="black" stroke="black" points="633.62,-1122.75 625.77,-1115.63 627.47,-1126.09 633.62,-1122.75"/>
</g>
<!-- N1729199940 -->
<g id="node3" class="node">
<title>N1729199940</title>
<ellipse fill="none" stroke="black" cx="693.74" cy="-1098" rx="27" ry="18"/>
<text text-anchor="middle" x="693.74" y="-1094.3" font-family="Times New Roman,serif" font-size="14.00">/</text>
</g>
<!-- N1330278544&#45;&gt;N1729199940 -->
<g id="edge2" class="edge">
<title>N1330278544&#45;&gt;N1729199940</title>
<path fill="none" stroke="black" d="M663.79,-1152.76C668.56,-1144.19 674.52,-1133.49 679.87,-1123.9"/>
<polygon fill="black" stroke="black" points="682.94,-1125.59 684.75,-1115.15 676.82,-1122.18 682.94,-1125.59"/>
</g>
<!-- N466002798 -->
<g id="node4" class="node">
<title>N466002798</title>
<ellipse fill="none" stroke="black" cx="622.74" cy="-1026" rx="27" ry="18"/>
<text text-anchor="middle" x="622.74" y="-1022.3" font-family="Times New Roman,serif" font-size="14.00">&#45;</text>
</g>
<!-- N1729199940&#45;&gt;N466002798 -->
<g id="edge3" class="edge">
<title>N1729199940&#45;&gt;N466002798</title>
<path fill="none" stroke="black" d="M679.03,-1082.5C669.13,-1072.73 655.9,-1059.69 644.75,-1048.7"/>
<polygon fill="black" stroke="black" points="647.01,-1046.01 637.43,-1041.49 642.1,-1051 647.01,-1046.01"/>
</g>
<!-- N33524623 -->
<g id="node5" class="node">
<title>N33524623</title>
<ellipse fill="none" stroke="black" cx="765.74" cy="-1026" rx="27" ry="18"/>
<text text-anchor="middle" x="765.74" y="-1022.3" font-family="Times New Roman,serif" font-size="14.00">&#45;</text>
</g>
<!-- N1729199940&#45;&gt;N33524623 -->
<g id="edge4" class="edge">
<title>N1729199940&#45;&gt;N33524623</title>
<path fill="none" stroke="black" d="M708.31,-1082.83C718.49,-1072.94 732.27,-1059.55 743.77,-1048.36"/>
<polygon fill="black" stroke="black" points="746.22,-1050.87 750.95,-1041.38 741.34,-1045.85 746.22,-1050.87"/>
</g>
<!-- N947679291 -->
<g id="node6" class="node">
<title>N947679291</title>
<ellipse fill="none" stroke="black" cx="545.74" cy="-954" rx="27" ry="18"/>
<text text-anchor="middle" x="545.74" y="-950.3" font-family="Times New Roman,serif" font-size="14.00">&#45;</text>
</g>
<!-- N466002798&#45;&gt;N947679291 -->
<g id="edge5" class="edge">
<title>N466002798&#45;&gt;N947679291</title>
<path fill="none" stroke="black" d="M607.16,-1010.83C596.13,-1000.81 581.15,-987.19 568.75,-975.92"/>
<polygon fill="black" stroke="black" points="570.79,-973.04 561.04,-968.91 566.08,-978.22 570.79,-973.04"/>
</g>
<!-- N575335780 -->
<g id="node7" class="node">
<title>N575335780</title>
<ellipse fill="none" stroke="black" cx="622.74" cy="-954" rx="32.49" ry="18"/>
<text text-anchor="middle" x="622.74" y="-950.3" font-family="Times New Roman,serif" font-size="14.00">1.0X1</text>
</g>
<!-- N466002798&#45;&gt;N575335780 -->
<g id="edge6" class="edge">
<title>N466002798&#45;&gt;N575335780</title>
<path fill="none" stroke="black" d="M622.74,-1007.7C622.74,-999.98 622.74,-990.71 622.74,-982.11"/>
<polygon fill="black" stroke="black" points="626.24,-982.1 622.74,-972.1 619.24,-982.1 626.24,-982.1"/>
</g>
<!-- N20671747 -->
<g id="node16" class="node">
<title>N20671747</title>
<ellipse fill="none" stroke="black" cx="765.74" cy="-954" rx="92.08" ry="18"/>
<text text-anchor="middle" x="765.74" y="-950.3" font-family="Times New Roman,serif" font-size="14.00">0.25786143620044877</text>
</g>
<!-- N33524623&#45;&gt;N20671747 -->
<g id="edge15" class="edge">
<title>N33524623&#45;&gt;N20671747</title>
<path fill="none" stroke="black" d="M765.74,-1007.7C765.74,-999.98 765.74,-990.71 765.74,-982.11"/>
<polygon fill="black" stroke="black" points="769.24,-982.1 765.74,-972.1 762.24,-982.1 769.24,-982.1"/>
</g>
<!-- N257895351 -->
<g id="node17" class="node">
<title>N257895351</title>
<ellipse fill="none" stroke="black" cx="902.74" cy="-954" rx="27" ry="18"/>
<text text-anchor="middle" x="902.74" y="-950.3" font-family="Times New Roman,serif" font-size="14.00">+</text>
</g>
<!-- N33524623&#45;&gt;N257895351 -->
<g id="edge16" class="edge">
<title>N33524623&#45;&gt;N257895351</title>
<path fill="none" stroke="black" d="M786.55,-1014.37C809.48,-1002.65 846.58,-983.7 872.67,-970.37"/>
<polygon fill="black" stroke="black" points="874.43,-973.4 881.74,-965.73 871.24,-967.16 874.43,-973.4"/>
</g>
<!-- N205125520 -->
<g id="node8" class="node">
<title>N205125520</title>
<ellipse fill="none" stroke="black" cx="369.74" cy="-882" rx="27" ry="18"/>
<text text-anchor="middle" x="369.74" y="-878.3" font-family="Times New Roman,serif" font-size="14.00">+</text>
</g>
<!-- N947679291&#45;&gt;N205125520 -->
<g id="edge7" class="edge">
<title>N947679291&#45;&gt;N205125520</title>
<path fill="none" stroke="black" d="M523.09,-943.99C492.2,-931.71 436.7,-909.63 401.62,-895.68"/>
<polygon fill="black" stroke="black" points="402.89,-892.42 392.3,-891.97 400.3,-898.92 402.89,-892.42"/>
</g>
<!-- N1911006827 -->
<g id="node9" class="node">
<title>N1911006827</title>
<ellipse fill="none" stroke="black" cx="567.74" cy="-882" rx="27" ry="18"/>
<text text-anchor="middle" x="567.74" y="-878.3" font-family="Times New Roman,serif" font-size="14.00">*</text>
</g>
<!-- N947679291&#45;&gt;N1911006827 -->
<g id="edge8" class="edge">
<title>N947679291&#45;&gt;N1911006827</title>
<path fill="none" stroke="black" d="M551.07,-936.05C553.58,-928.06 556.64,-918.33 559.45,-909.4"/>
<polygon fill="black" stroke="black" points="562.81,-910.38 562.47,-899.79 556.13,-908.28 562.81,-910.38"/>
</g>
<!-- N717356484 -->
<g id="node10" class="node">
<title>N717356484</title>
<ellipse fill="none" stroke="black" cx="176.74" cy="-810" rx="87.99" ry="18"/>
<text text-anchor="middle" x="176.74" y="-806.3" font-family="Times New Roman,serif" font-size="14.00">1.6885257369635398</text>
</g>
<!-- N205125520&#45;&gt;N717356484 -->
<g id="edge9" class="edge">
<title>N205125520&#45;&gt;N717356484</title>
<path fill="none" stroke="black" d="M346.46,-872.56C317.16,-861.93 266.02,-843.38 227.51,-829.41"/>
<polygon fill="black" stroke="black" points="228.61,-826.09 218.02,-825.97 226.22,-832.67 228.61,-826.09"/>
</g>
<!-- N1595212853 -->
<g id="node11" class="node">
<title>N1595212853</title>
<ellipse fill="none" stroke="black" cx="369.74" cy="-810" rx="87.99" ry="18"/>
<text text-anchor="middle" x="369.74" y="-806.3" font-family="Times New Roman,serif" font-size="14.00">1.7580204513972455</text>
</g>
<!-- N205125520&#45;&gt;N1595212853 -->
<g id="edge10" class="edge">
<title>N205125520&#45;&gt;N1595212853</title>
<path fill="none" stroke="black" d="M369.74,-863.7C369.74,-855.98 369.74,-846.71 369.74,-838.11"/>
<polygon fill="black" stroke="black" points="373.24,-838.1 369.74,-828.1 366.24,-838.1 373.24,-838.1"/>
</g>
<!-- N475266352 -->
<g id="node12" class="node">
<title>N475266352</title>
<ellipse fill="none" stroke="black" cx="567.74" cy="-810" rx="92.08" ry="18"/>
<text text-anchor="middle" x="567.74" y="-806.3" font-family="Times New Roman,serif" font-size="14.00">0.47521220475535486</text>
</g>
<!-- N1911006827&#45;&gt;N475266352 -->
<g id="edge11" class="edge">
<title>N1911006827&#45;&gt;N475266352</title>
<path fill="none" stroke="black" d="M567.74,-863.7C567.74,-855.98 567.74,-846.71 567.74,-838.11"/>
<polygon fill="black" stroke="black" points="571.24,-838.1 567.74,-828.1 564.24,-838.1 571.24,-838.1"/>
</g>
<!-- N1355531311 -->
<g id="node13" class="node">
<title>N1355531311</title>
<ellipse fill="none" stroke="black" cx="704.74" cy="-810" rx="27" ry="18"/>
<text text-anchor="middle" x="704.74" y="-806.3" font-family="Times New Roman,serif" font-size="14.00">+</text>
</g>
<!-- N1911006827&#45;&gt;N1355531311 -->
<g id="edge12" class="edge">
<title>N1911006827&#45;&gt;N1355531311</title>
<path fill="none" stroke="black" d="M588.55,-870.37C611.48,-858.65 648.58,-839.7 674.67,-826.37"/>
<polygon fill="black" stroke="black" points="676.43,-829.4 683.74,-821.73 673.24,-823.16 676.43,-829.4"/>
</g>
<!-- N1967205423 -->
<g id="node14" class="node">
<title>N1967205423</title>
<ellipse fill="none" stroke="black" cx="522.74" cy="-738" rx="87.99" ry="18"/>
<text text-anchor="middle" x="522.74" y="-734.3" font-family="Times New Roman,serif" font-size="14.00">0.8027491724953117</text>
</g>
<!-- N1355531311&#45;&gt;N1967205423 -->
<g id="edge13" class="edge">
<title>N1355531311&#45;&gt;N1967205423</title>
<path fill="none" stroke="black" d="M683.57,-798.6C678.73,-796.34 673.59,-794.02 668.74,-792 638.46,-779.39 603.99,-766.79 576.15,-757.05"/>
<polygon fill="black" stroke="black" points="577.19,-753.7 566.59,-753.72 574.89,-760.31 577.19,-753.7"/>
</g>
<!-- N42121758 -->
<g id="node15" class="node">
<title>N42121758</title>
<ellipse fill="none" stroke="black" cx="715.74" cy="-738" rx="87.99" ry="18"/>
<text text-anchor="middle" x="715.74" y="-734.3" font-family="Times New Roman,serif" font-size="14.00">1.1707152961933502</text>
</g>
<!-- N1355531311&#45;&gt;N42121758 -->
<g id="edge14" class="edge">
<title>N1355531311&#45;&gt;N42121758</title>
<path fill="none" stroke="black" d="M707.41,-792.05C708.62,-784.35 710.08,-775.03 711.44,-766.36"/>
<polygon fill="black" stroke="black" points="714.93,-766.7 713.03,-756.28 708.02,-765.61 714.93,-766.7"/>
</g>
<!-- N1929600551 -->
<g id="node18" class="node">
<title>N1929600551</title>
<ellipse fill="none" stroke="black" cx="899.74" cy="-882" rx="27" ry="18"/>
<text text-anchor="middle" x="899.74" y="-878.3" font-family="Times New Roman,serif" font-size="14.00">*</text>
</g>
<!-- N257895351&#45;&gt;N1929600551 -->
<g id="edge17" class="edge">
<title>N257895351&#45;&gt;N1929600551</title>
<path fill="none" stroke="black" d="M902,-935.7C901.67,-927.98 901.27,-918.71 900.9,-910.11"/>
<polygon fill="black" stroke="black" points="904.4,-909.95 900.48,-900.1 897.41,-910.25 904.4,-909.95"/>
</g>
<!-- N1690716179 -->
<g id="node19" class="node">
<title>N1690716179</title>
<ellipse fill="none" stroke="black" cx="1032.74" cy="-882" rx="87.99" ry="18"/>
<text text-anchor="middle" x="1032.74" y="-878.3" font-family="Times New Roman,serif" font-size="14.00">2.2769364401103913</text>
</g>
<!-- N257895351&#45;&gt;N1690716179 -->
<g id="edge18" class="edge">
<title>N257895351&#45;&gt;N1690716179</title>
<path fill="none" stroke="black" d="M923.05,-942.06C941.97,-931.88 970.66,-916.43 993.96,-903.88"/>
<polygon fill="black" stroke="black" points="995.77,-906.88 1002.92,-899.06 992.45,-900.72 995.77,-906.88"/>
</g>
<!-- N1053782781 -->
<g id="node20" class="node">
<title>N1053782781</title>
<ellipse fill="none" stroke="black" cx="894.74" cy="-810" rx="27" ry="18"/>
<text text-anchor="middle" x="894.74" y="-806.3" font-family="Times New Roman,serif" font-size="14.00">&#45;</text>
</g>
<!-- N1929600551&#45;&gt;N1053782781 -->
<g id="edge19" class="edge">
<title>N1929600551&#45;&gt;N1053782781</title>
<path fill="none" stroke="black" d="M898.51,-863.7C897.96,-855.98 897.29,-846.71 896.68,-838.11"/>
<polygon fill="black" stroke="black" points="900.17,-837.83 895.96,-828.1 893.19,-838.33 900.17,-837.83"/>
</g>
<!-- N1211888640 -->
<g id="node21" class="node">
<title>N1211888640</title>
<ellipse fill="none" stroke="black" cx="1022.74" cy="-810" rx="83.39" ry="18"/>
<text text-anchor="middle" x="1022.74" y="-806.3" font-family="Times New Roman,serif" font-size="14.00">3.493450972231745</text>
</g>
<!-- N1929600551&#45;&gt;N1211888640 -->
<g id="edge20" class="edge">
<title>N1929600551&#45;&gt;N1211888640</title>
<path fill="none" stroke="black" d="M919.78,-869.6C937.53,-859.5 963.9,-844.49 985.52,-832.19"/>
<polygon fill="black" stroke="black" points="987.49,-835.09 994.45,-827.1 984.03,-829.01 987.49,-835.09"/>
</g>
<!-- N564160838 -->
<g id="node22" class="node">
<title>N564160838</title>
<ellipse fill="none" stroke="black" cx="891.74" cy="-738" rx="27" ry="18"/>
<text text-anchor="middle" x="891.74" y="-734.3" font-family="Times New Roman,serif" font-size="14.00">/</text>
</g>
<!-- N1053782781&#45;&gt;N564160838 -->
<g id="edge21" class="edge">
<title>N1053782781&#45;&gt;N564160838</title>
<path fill="none" stroke="black" d="M894,-791.7C893.67,-783.98 893.27,-774.71 892.9,-766.11"/>
<polygon fill="black" stroke="black" points="896.4,-765.95 892.48,-756.1 889.41,-766.25 896.4,-765.95"/>
</g>
<!-- N2012232625 -->
<g id="node23" class="node">
<title>N2012232625</title>
<ellipse fill="none" stroke="black" cx="1028.74" cy="-738" rx="92.08" ry="18"/>
<text text-anchor="middle" x="1028.74" y="-734.3" font-family="Times New Roman,serif" font-size="14.00">0.25786143620044877</text>
</g>
<!-- N1053782781&#45;&gt;N2012232625 -->
<g id="edge22" class="edge">
<title>N1053782781&#45;&gt;N2012232625</title>
<path fill="none" stroke="black" d="M915.39,-798.22C934.98,-787.98 964.95,-772.32 989.15,-759.68"/>
<polygon fill="black" stroke="black" points="990.87,-762.73 998.11,-755 987.63,-756.53 990.87,-762.73"/>
</g>
<!-- N846063400 -->
<g id="node24" class="node">
<title>N846063400</title>
<ellipse fill="none" stroke="black" cx="825.74" cy="-666" rx="87.99" ry="18"/>
<text text-anchor="middle" x="825.74" y="-662.3" font-family="Times New Roman,serif" font-size="14.00">1.7580204513972455</text>
</g>
<!-- N564160838&#45;&gt;N846063400 -->
<g id="edge23" class="edge">
<title>N564160838&#45;&gt;N846063400</title>
<path fill="none" stroke="black" d="M877.75,-722.15C869.3,-713.2 858.34,-701.58 848.66,-691.31"/>
<polygon fill="black" stroke="black" points="850.98,-688.66 841.57,-683.79 845.89,-693.47 850.98,-688.66"/>
</g>
<!-- N627150481 -->
<g id="node25" class="node">
<title>N627150481</title>
<ellipse fill="none" stroke="black" cx="958.74" cy="-666" rx="27" ry="18"/>
<text text-anchor="middle" x="958.74" y="-662.3" font-family="Times New Roman,serif" font-size="14.00">*</text>
</g>
<!-- N564160838&#45;&gt;N627150481 -->
<g id="edge24" class="edge">
<title>N564160838&#45;&gt;N627150481</title>
<path fill="none" stroke="black" d="M905.62,-722.5C914.88,-712.83 927.21,-699.94 937.67,-689.02"/>
<polygon fill="black" stroke="black" points="940.49,-691.13 944.88,-681.49 935.43,-686.29 940.49,-691.13"/>
</g>
<!-- N128526626 -->
<g id="node26" class="node">
<title>N128526626</title>
<ellipse fill="none" stroke="black" cx="882.74" cy="-594" rx="27" ry="18"/>
<text text-anchor="middle" x="882.74" y="-590.3" font-family="Times New Roman,serif" font-size="14.00">+</text>
</g>
<!-- N627150481&#45;&gt;N128526626 -->
<g id="edge25" class="edge">
<title>N627150481&#45;&gt;N128526626</title>
<path fill="none" stroke="black" d="M943.36,-650.83C932.55,-640.87 917.89,-627.37 905.69,-616.14"/>
<polygon fill="black" stroke="black" points="907.83,-613.34 898.1,-609.14 903.08,-618.49 907.83,-613.34"/>
</g>
<!-- N1911728085 -->
<g id="node27" class="node">
<title>N1911728085</title>
<ellipse fill="none" stroke="black" cx="1034.74" cy="-594" rx="27" ry="18"/>
<text text-anchor="middle" x="1034.74" y="-590.3" font-family="Times New Roman,serif" font-size="14.00">+</text>
</g>
<!-- N627150481&#45;&gt;N1911728085 -->
<g id="edge26" class="edge">
<title>N627150481&#45;&gt;N1911728085</title>
<path fill="none" stroke="black" d="M974.12,-650.83C984.94,-640.87 999.6,-627.37 1011.79,-616.14"/>
<polygon fill="black" stroke="black" points="1014.4,-618.49 1019.39,-609.14 1009.66,-613.34 1014.4,-618.49"/>
</g>
<!-- N754666084 -->
<g id="node28" class="node">
<title>N754666084</title>
<ellipse fill="none" stroke="black" cx="778.74" cy="-522" rx="27" ry="18"/>
<text text-anchor="middle" x="778.74" y="-518.3" font-family="Times New Roman,serif" font-size="14.00">/</text>
</g>
<!-- N128526626&#45;&gt;N754666084 -->
<g id="edge27" class="edge">
<title>N128526626&#45;&gt;N754666084</title>
<path fill="none" stroke="black" d="M864.15,-580.49C847.88,-569.54 824.05,-553.49 805.69,-541.14"/>
<polygon fill="black" stroke="black" points="807.42,-538.09 797.17,-535.41 803.52,-543.89 807.42,-538.09"/>
</g>
<!-- N88558700 -->
<g id="node29" class="node">
<title>N88558700</title>
<ellipse fill="none" stroke="black" cx="882.74" cy="-522" rx="32.49" ry="18"/>
<text text-anchor="middle" x="882.74" y="-518.3" font-family="Times New Roman,serif" font-size="14.00">1.0X1</text>
</g>
<!-- N128526626&#45;&gt;N88558700 -->
<g id="edge28" class="edge">
<title>N128526626&#45;&gt;N88558700</title>
<path fill="none" stroke="black" d="M882.74,-575.7C882.74,-567.98 882.74,-558.71 882.74,-550.11"/>
<polygon fill="black" stroke="black" points="886.24,-550.1 882.74,-540.1 879.24,-550.1 886.24,-550.1"/>
</g>
<!-- N1416233903 -->
<g id="node56" class="node">
<title>N1416233903</title>
<ellipse fill="none" stroke="black" cx="1034.74" cy="-522" rx="87.99" ry="18"/>
<text text-anchor="middle" x="1034.74" y="-518.3" font-family="Times New Roman,serif" font-size="14.00">1.3782864949072722</text>
</g>
<!-- N1911728085&#45;&gt;N1416233903 -->
<g id="edge55" class="edge">
<title>N1911728085&#45;&gt;N1416233903</title>
<path fill="none" stroke="black" d="M1034.74,-575.7C1034.74,-567.98 1034.74,-558.71 1034.74,-550.11"/>
<polygon fill="black" stroke="black" points="1038.24,-550.1 1034.74,-540.1 1031.24,-550.1 1038.24,-550.1"/>
</g>
<!-- N1914572623 -->
<g id="node57" class="node">
<title>N1914572623</title>
<ellipse fill="none" stroke="black" cx="1174.74" cy="-522" rx="27" ry="18"/>
<text text-anchor="middle" x="1174.74" y="-518.3" font-family="Times New Roman,serif" font-size="14.00">+</text>
</g>
<!-- N1911728085&#45;&gt;N1914572623 -->
<g id="edge56" class="edge">
<title>N1911728085&#45;&gt;N1914572623</title>
<path fill="none" stroke="black" d="M1055.7,-582.52C1079.31,-570.72 1117.88,-551.43 1144.69,-538.03"/>
<polygon fill="black" stroke="black" points="1146.26,-541.15 1153.64,-533.55 1143.13,-534.89 1146.26,-541.15"/>
</g>
<!-- N1265210847 -->
<g id="node30" class="node">
<title>N1265210847</title>
<ellipse fill="none" stroke="black" cx="645.74" cy="-450" rx="87.99" ry="18"/>
<text text-anchor="middle" x="645.74" y="-446.3" font-family="Times New Roman,serif" font-size="14.00">3.3970832478693898</text>
</g>
<!-- N754666084&#45;&gt;N1265210847 -->
<g id="edge29" class="edge">
<title>N754666084&#45;&gt;N1265210847</title>
<path fill="none" stroke="black" d="M758.25,-510.22C738.8,-499.98 709.06,-484.32 685.04,-471.68"/>
<polygon fill="black" stroke="black" points="686.62,-468.56 676.14,-467 683.36,-474.75 686.62,-468.56"/>
</g>
<!-- N801197928 -->
<g id="node31" class="node">
<title>N801197928</title>
<ellipse fill="none" stroke="black" cx="778.74" cy="-450" rx="27" ry="18"/>
<text text-anchor="middle" x="778.74" y="-446.3" font-family="Times New Roman,serif" font-size="14.00">*</text>
</g>
<!-- N754666084&#45;&gt;N801197928 -->
<g id="edge30" class="edge">
<title>N754666084&#45;&gt;N801197928</title>
<path fill="none" stroke="black" d="M778.74,-503.7C778.74,-495.98 778.74,-486.71 778.74,-478.11"/>
<polygon fill="black" stroke="black" points="782.24,-478.1 778.74,-468.1 775.24,-478.1 782.24,-478.1"/>
</g>
<!-- N1495242910 -->
<g id="node32" class="node">
<title>N1495242910</title>
<ellipse fill="none" stroke="black" cx="439.74" cy="-378" rx="27" ry="18"/>
<text text-anchor="middle" x="439.74" y="-374.3" font-family="Times New Roman,serif" font-size="14.00">*</text>
</g>
<!-- N801197928&#45;&gt;N1495242910 -->
<g id="edge31" class="edge">
<title>N801197928&#45;&gt;N1495242910</title>
<path fill="none" stroke="black" d="M758.19,-438.14C753.23,-435.85 747.88,-433.63 742.74,-432 649.54,-402.43 534.65,-388.05 476.78,-382.25"/>
<polygon fill="black" stroke="black" points="476.95,-378.75 466.66,-381.27 476.27,-385.72 476.95,-378.75"/>
</g>
<!-- N1711574013 -->
<g id="node33" class="node">
<title>N1711574013</title>
<ellipse fill="none" stroke="black" cx="778.74" cy="-378" rx="27" ry="18"/>
<text text-anchor="middle" x="778.74" y="-374.3" font-family="Times New Roman,serif" font-size="14.00">*</text>
</g>
<!-- N801197928&#45;&gt;N1711574013 -->
<g id="edge32" class="edge">
<title>N801197928&#45;&gt;N1711574013</title>
<path fill="none" stroke="black" d="M778.74,-431.7C778.74,-423.98 778.74,-414.71 778.74,-406.11"/>
<polygon fill="black" stroke="black" points="782.24,-406.1 778.74,-396.1 775.24,-406.1 782.24,-406.1"/>
</g>
<!-- N1631862159 -->
<g id="node34" class="node">
<title>N1631862159</title>
<ellipse fill="none" stroke="black" cx="311.74" cy="-306" rx="83.39" ry="18"/>
<text text-anchor="middle" x="311.74" y="-302.3" font-family="Times New Roman,serif" font-size="14.00">3.754554901753062</text>
</g>
<!-- N1495242910&#45;&gt;N1631862159 -->
<g id="edge33" class="edge">
<title>N1495242910&#45;&gt;N1631862159</title>
<path fill="none" stroke="black" d="M419.46,-365.91C400.79,-355.7 372.61,-340.29 349.76,-327.79"/>
<polygon fill="black" stroke="black" points="351.43,-324.71 340.98,-322.99 348.07,-330.86 351.43,-324.71"/>
</g>
<!-- N1146848448 -->
<g id="node35" class="node">
<title>N1146848448</title>
<ellipse fill="none" stroke="black" cx="439.74" cy="-306" rx="27" ry="18"/>
<text text-anchor="middle" x="439.74" y="-302.3" font-family="Times New Roman,serif" font-size="14.00">+</text>
</g>
<!-- N1495242910&#45;&gt;N1146848448 -->
<g id="edge34" class="edge">
<title>N1495242910&#45;&gt;N1146848448</title>
<path fill="none" stroke="black" d="M439.74,-359.7C439.74,-351.98 439.74,-342.71 439.74,-334.11"/>
<polygon fill="black" stroke="black" points="443.24,-334.1 439.74,-324.1 436.24,-334.1 443.24,-334.1"/>
</g>
<!-- N872627152 -->
<g id="node42" class="node">
<title>N872627152</title>
<ellipse fill="none" stroke="black" cx="775.74" cy="-306" rx="27" ry="18"/>
<text text-anchor="middle" x="775.74" y="-302.3" font-family="Times New Roman,serif" font-size="14.00">+</text>
</g>
<!-- N1711574013&#45;&gt;N872627152 -->
<g id="edge41" class="edge">
<title>N1711574013&#45;&gt;N872627152</title>
<path fill="none" stroke="black" d="M778,-359.7C777.67,-351.98 777.27,-342.71 776.9,-334.11"/>
<polygon fill="black" stroke="black" points="780.4,-333.95 776.48,-324.1 773.41,-334.25 780.4,-333.95"/>
</g>
<!-- N1207769059 -->
<g id="node43" class="node">
<title>N1207769059</title>
<ellipse fill="none" stroke="black" cx="908.74" cy="-306" rx="27" ry="18"/>
<text text-anchor="middle" x="908.74" y="-302.3" font-family="Times New Roman,serif" font-size="14.00">+</text>
</g>
<!-- N1711574013&#45;&gt;N1207769059 -->
<g id="edge42" class="edge">
<title>N1711574013&#45;&gt;N1207769059</title>
<path fill="none" stroke="black" d="M799.05,-366.06C820.58,-354.47 854.79,-336.05 879.28,-322.86"/>
<polygon fill="black" stroke="black" points="881,-325.91 888.14,-318.09 877.68,-319.75 881,-325.91"/>
</g>
<!-- N1638215613 -->
<g id="node36" class="node">
<title>N1638215613</title>
<ellipse fill="none" stroke="black" cx="276.74" cy="-234" rx="27" ry="18"/>
<text text-anchor="middle" x="276.74" y="-230.3" font-family="Times New Roman,serif" font-size="14.00">+</text>
</g>
<!-- N1146848448&#45;&gt;N1638215613 -->
<g id="edge35" class="edge">
<title>N1146848448&#45;&gt;N1638215613</title>
<path fill="none" stroke="black" d="M418.5,-294.77C413.67,-292.5 408.54,-290.13 403.74,-288 371.61,-273.72 334.44,-258.34 308.65,-247.84"/>
<polygon fill="black" stroke="black" points="309.94,-244.59 299.36,-244.07 307.31,-251.08 309.94,-244.59"/>
</g>
<!-- N591137559 -->
<g id="node37" class="node">
<title>N591137559</title>
<ellipse fill="none" stroke="black" cx="439.74" cy="-234" rx="100.98" ry="18"/>
<text text-anchor="middle" x="439.74" y="-230.3" font-family="Times New Roman,serif" font-size="14.00">0.0013578440683521542</text>
</g>
<!-- N1146848448&#45;&gt;N591137559 -->
<g id="edge36" class="edge">
<title>N1146848448&#45;&gt;N591137559</title>
<path fill="none" stroke="black" d="M439.74,-287.7C439.74,-279.98 439.74,-270.71 439.74,-262.11"/>
<polygon fill="black" stroke="black" points="443.24,-262.1 439.74,-252.1 436.24,-262.1 443.24,-262.1"/>
</g>
<!-- N1674896058 -->
<g id="node38" class="node">
<title>N1674896058</title>
<ellipse fill="none" stroke="black" cx="148.74" cy="-162" rx="83.39" ry="18"/>
<text text-anchor="middle" x="148.74" y="-158.3" font-family="Times New Roman,serif" font-size="14.00">3.493450972231745</text>
</g>
<!-- N1638215613&#45;&gt;N1674896058 -->
<g id="edge37" class="edge">
<title>N1638215613&#45;&gt;N1674896058</title>
<path fill="none" stroke="black" d="M256.46,-221.91C237.79,-211.7 209.61,-196.29 186.76,-183.79"/>
<polygon fill="black" stroke="black" points="188.43,-180.71 177.98,-178.99 185.07,-186.86 188.43,-180.71"/>
</g>
<!-- N2075203460 -->
<g id="node39" class="node">
<title>N2075203460</title>
<ellipse fill="none" stroke="black" cx="276.74" cy="-162" rx="27" ry="18"/>
<text text-anchor="middle" x="276.74" y="-158.3" font-family="Times New Roman,serif" font-size="14.00">+</text>
</g>
<!-- N1638215613&#45;&gt;N2075203460 -->
<g id="edge38" class="edge">
<title>N1638215613&#45;&gt;N2075203460</title>
<path fill="none" stroke="black" d="M276.74,-215.7C276.74,-207.98 276.74,-198.71 276.74,-190.11"/>
<polygon fill="black" stroke="black" points="280.24,-190.1 276.74,-180.1 273.24,-190.1 280.24,-190.1"/>
</g>
<!-- N866191240 -->
<g id="node40" class="node">
<title>N866191240</title>
<ellipse fill="none" stroke="black" cx="87.74" cy="-90" rx="87.99" ry="18"/>
<text text-anchor="middle" x="87.74" y="-86.3" font-family="Times New Roman,serif" font-size="14.00">1.1630329622123328</text>
</g>
<!-- N2075203460&#45;&gt;N866191240 -->
<g id="edge39" class="edge">
<title>N2075203460&#45;&gt;N866191240</title>
<path fill="none" stroke="black" d="M255.59,-150.55C250.75,-148.29 245.61,-145.98 240.74,-144 208.82,-130.98 172.37,-118.27 143.06,-108.56"/>
<polygon fill="black" stroke="black" points="144,-105.19 133.41,-105.39 141.81,-111.84 144,-105.19"/>
</g>
<!-- N1879492184 -->
<g id="node41" class="node">
<title>N1879492184</title>
<ellipse fill="none" stroke="black" cx="276.74" cy="-90" rx="83.39" ry="18"/>
<text text-anchor="middle" x="276.74" y="-86.3" font-family="Times New Roman,serif" font-size="14.00">2.837190825549361</text>
</g>
<!-- N2075203460&#45;&gt;N1879492184 -->
<g id="edge40" class="edge">
<title>N2075203460&#45;&gt;N1879492184</title>
<path fill="none" stroke="black" d="M276.74,-143.7C276.74,-135.98 276.74,-126.71 276.74,-118.11"/>
<polygon fill="black" stroke="black" points="280.24,-118.1 276.74,-108.1 273.24,-118.1 280.24,-118.1"/>
</g>
<!-- N2094777811 -->
<g id="node44" class="node">
<title>N2094777811</title>
<ellipse fill="none" stroke="black" cx="602.74" cy="-234" rx="27" ry="18"/>
<text text-anchor="middle" x="602.74" y="-230.3" font-family="Times New Roman,serif" font-size="14.00">*</text>
</g>
<!-- N872627152&#45;&gt;N2094777811 -->
<g id="edge43" class="edge">
<title>N872627152&#45;&gt;N2094777811</title>
<path fill="none" stroke="black" d="M753.13,-295.85C722.95,-283.64 669.34,-261.95 634.95,-248.03"/>
<polygon fill="black" stroke="black" points="635.95,-244.66 625.36,-244.15 633.32,-251.15 635.95,-244.66"/>
</g>
<!-- N984213526 -->
<g id="node45" class="node">
<title>N984213526</title>
<ellipse fill="none" stroke="black" cx="775.74" cy="-234" rx="27" ry="18"/>
<text text-anchor="middle" x="775.74" y="-230.3" font-family="Times New Roman,serif" font-size="14.00">*</text>
</g>
<!-- N872627152&#45;&gt;N984213526 -->
<g id="edge44" class="edge">
<title>N872627152&#45;&gt;N984213526</title>
<path fill="none" stroke="black" d="M775.74,-287.7C775.74,-279.98 775.74,-270.71 775.74,-262.11"/>
<polygon fill="black" stroke="black" points="779.24,-262.1 775.74,-252.1 772.24,-262.1 779.24,-262.1"/>
</g>
<!-- N787387795 -->
<g id="node54" class="node">
<title>N787387795</title>
<ellipse fill="none" stroke="black" cx="908.74" cy="-234" rx="87.99" ry="18"/>
<text text-anchor="middle" x="908.74" y="-230.3" font-family="Times New Roman,serif" font-size="14.00">0.9335194203531678</text>
</g>
<!-- N1207769059&#45;&gt;N787387795 -->
<g id="edge53" class="edge">
<title>N1207769059&#45;&gt;N787387795</title>
<path fill="none" stroke="black" d="M908.74,-287.7C908.74,-279.98 908.74,-270.71 908.74,-262.11"/>
<polygon fill="black" stroke="black" points="912.24,-262.1 908.74,-252.1 905.24,-262.1 912.24,-262.1"/>
</g>
<!-- N2030562336 -->
<g id="node55" class="node">
<title>N2030562336</title>
<ellipse fill="none" stroke="black" cx="1101.74" cy="-234" rx="87.99" ry="18"/>
<text text-anchor="middle" x="1101.74" y="-230.3" font-family="Times New Roman,serif" font-size="14.00">2.2932100607756722</text>
</g>
<!-- N1207769059&#45;&gt;N2030562336 -->
<g id="edge54" class="edge">
<title>N1207769059&#45;&gt;N2030562336</title>
<path fill="none" stroke="black" d="M932.02,-296.56C961.32,-285.93 1012.47,-267.38 1050.97,-253.41"/>
<polygon fill="black" stroke="black" points="1052.26,-256.67 1060.47,-249.97 1049.88,-250.09 1052.26,-256.67"/>
</g>
<!-- N400136488 -->
<g id="node46" class="node">
<title>N400136488</title>
<ellipse fill="none" stroke="black" cx="465.74" cy="-162" rx="27" ry="18"/>
<text text-anchor="middle" x="465.74" y="-158.3" font-family="Times New Roman,serif" font-size="14.00">*</text>
</g>
<!-- N2094777811&#45;&gt;N400136488 -->
<g id="edge45" class="edge">
<title>N2094777811&#45;&gt;N400136488</title>
<path fill="none" stroke="black" d="M581.93,-222.37C559,-210.65 521.91,-191.7 495.81,-178.37"/>
<polygon fill="black" stroke="black" points="497.24,-175.16 486.75,-173.73 494.06,-181.4 497.24,-175.16"/>
</g>
<!-- N942986815 -->
<g id="node47" class="node">
<title>N942986815</title>
<ellipse fill="none" stroke="black" cx="602.74" cy="-162" rx="92.08" ry="18"/>
<text text-anchor="middle" x="602.74" y="-158.3" font-family="Times New Roman,serif" font-size="14.00">0.05130499132808186</text>
</g>
<!-- N2094777811&#45;&gt;N942986815 -->
<g id="edge46" class="edge">
<title>N2094777811&#45;&gt;N942986815</title>
<path fill="none" stroke="black" d="M602.74,-215.7C602.74,-207.98 602.74,-198.71 602.74,-190.11"/>
<polygon fill="black" stroke="black" points="606.24,-190.1 602.74,-180.1 599.24,-190.1 606.24,-190.1"/>
</g>
<!-- N729864207 -->
<g id="node52" class="node">
<title>N729864207</title>
<ellipse fill="none" stroke="black" cx="795.74" cy="-162" rx="83.39" ry="18"/>
<text text-anchor="middle" x="795.74" y="-158.3" font-family="Times New Roman,serif" font-size="14.00">1.449554517792886</text>
</g>
<!-- N984213526&#45;&gt;N729864207 -->
<g id="edge51" class="edge">
<title>N984213526&#45;&gt;N729864207</title>
<path fill="none" stroke="black" d="M780.58,-216.05C782.81,-208.26 785.51,-198.82 788.01,-190.08"/>
<polygon fill="black" stroke="black" points="791.42,-190.85 790.81,-180.28 784.69,-188.93 791.42,-190.85"/>
</g>
<!-- N984849465 -->
<g id="node53" class="node">
<title>N984849465</title>
<ellipse fill="none" stroke="black" cx="984.74" cy="-162" rx="87.99" ry="18"/>
<text text-anchor="middle" x="984.74" y="-158.3" font-family="Times New Roman,serif" font-size="14.00">0.8344659568840993</text>
</g>
<!-- N984213526&#45;&gt;N984849465 -->
<g id="edge52" class="edge">
<title>N984213526&#45;&gt;N984849465</title>
<path fill="none" stroke="black" d="M796.84,-222.42C801.68,-220.16 806.84,-217.9 811.74,-216 848.27,-201.86 890.26,-188.92 923.72,-179.37"/>
<polygon fill="black" stroke="black" points="924.7,-182.73 933.37,-176.64 922.79,-176 924.7,-182.73"/>
</g>
<!-- N451111351 -->
<g id="node48" class="node">
<title>N451111351</title>
<ellipse fill="none" stroke="black" cx="465.74" cy="-90" rx="87.99" ry="18"/>
<text text-anchor="middle" x="465.74" y="-86.3" font-family="Times New Roman,serif" font-size="14.00">3.6174048056697803</text>
</g>
<!-- N400136488&#45;&gt;N451111351 -->
<g id="edge47" class="edge">
<title>N400136488&#45;&gt;N451111351</title>
<path fill="none" stroke="black" d="M465.74,-143.7C465.74,-135.98 465.74,-126.71 465.74,-118.11"/>
<polygon fill="black" stroke="black" points="469.24,-118.1 465.74,-108.1 462.24,-118.1 469.24,-118.1"/>
</g>
<!-- N1879034789 -->
<g id="node49" class="node">
<title>N1879034789</title>
<ellipse fill="none" stroke="black" cx="598.74" cy="-90" rx="27" ry="18"/>
<text text-anchor="middle" x="598.74" y="-86.3" font-family="Times New Roman,serif" font-size="14.00">&#45;</text>
</g>
<!-- N400136488&#45;&gt;N1879034789 -->
<g id="edge48" class="edge">
<title>N400136488&#45;&gt;N1879034789</title>
<path fill="none" stroke="black" d="M486.23,-150.22C508.33,-138.59 543.72,-119.96 568.91,-106.7"/>
<polygon fill="black" stroke="black" points="570.79,-109.67 578.01,-101.91 567.53,-103.47 570.79,-109.67"/>
</g>
<!-- N875827115 -->
<g id="node50" class="node">
<title>N875827115</title>
<ellipse fill="none" stroke="black" cx="503.74" cy="-18" rx="83.39" ry="18"/>
<text text-anchor="middle" x="503.74" y="-14.3" font-family="Times New Roman,serif" font-size="14.00">2.837190825549361</text>
</g>
<!-- N1879034789&#45;&gt;N875827115 -->
<g id="edge49" class="edge">
<title>N1879034789&#45;&gt;N875827115</title>
<path fill="none" stroke="black" d="M581.32,-76.16C568.21,-66.5 549.91,-53.02 534.38,-41.58"/>
<polygon fill="black" stroke="black" points="536.21,-38.58 526.09,-35.46 532.06,-44.21 536.21,-38.58"/>
</g>
<!-- N716157500 -->
<g id="node51" class="node">
<title>N716157500</title>
<ellipse fill="none" stroke="black" cx="692.74" cy="-18" rx="87.99" ry="18"/>
<text text-anchor="middle" x="692.74" y="-14.3" font-family="Times New Roman,serif" font-size="14.00">2.6609402765006505</text>
</g>
<!-- N1879034789&#45;&gt;N716157500 -->
<g id="edge50" class="edge">
<title>N1879034789&#45;&gt;N716157500</title>
<path fill="none" stroke="black" d="M616.42,-75.83C629.35,-66.21 647.19,-52.92 662.38,-41.61"/>
<polygon fill="black" stroke="black" points="664.57,-44.35 670.5,-35.57 660.38,-38.73 664.57,-44.35"/>
</g>
<!-- N679890578 -->
<g id="node58" class="node">
<title>N679890578</title>
<ellipse fill="none" stroke="black" cx="1174.74" cy="-450" rx="27" ry="18"/>
<text text-anchor="middle" x="1174.74" y="-446.3" font-family="Times New Roman,serif" font-size="14.00">/</text>
</g>
<!-- N1914572623&#45;&gt;N679890578 -->
<g id="edge57" class="edge">
<title>N1914572623&#45;&gt;N679890578</title>
<path fill="none" stroke="black" d="M1174.74,-503.7C1174.74,-495.98 1174.74,-486.71 1174.74,-478.11"/>
<polygon fill="black" stroke="black" points="1178.24,-478.1 1174.74,-468.1 1171.24,-478.1 1178.24,-478.1"/>
</g>
<!-- N1856426318 -->
<g id="node59" class="node">
<title>N1856426318</title>
<ellipse fill="none" stroke="black" cx="1307.74" cy="-450" rx="87.99" ry="18"/>
<text text-anchor="middle" x="1307.74" y="-446.3" font-family="Times New Roman,serif" font-size="14.00">0.4191902504618388</text>
</g>
<!-- N1914572623&#45;&gt;N1856426318 -->
<g id="edge58" class="edge">
<title>N1914572623&#45;&gt;N1856426318</title>
<path fill="none" stroke="black" d="M1195.23,-510.22C1214.68,-499.98 1244.43,-484.32 1268.45,-471.68"/>
<polygon fill="black" stroke="black" points="1270.12,-474.75 1277.34,-467 1266.86,-468.56 1270.12,-474.75"/>
</g>
<!-- N1792393294 -->
<g id="node60" class="node">
<title>N1792393294</title>
<ellipse fill="none" stroke="black" cx="1174.74" cy="-378" rx="87.99" ry="18"/>
<text text-anchor="middle" x="1174.74" y="-374.3" font-family="Times New Roman,serif" font-size="14.00">1.7345100181743236</text>
</g>
<!-- N679890578&#45;&gt;N1792393294 -->
<g id="edge59" class="edge">
<title>N679890578&#45;&gt;N1792393294</title>
<path fill="none" stroke="black" d="M1174.74,-431.7C1174.74,-423.98 1174.74,-414.71 1174.74,-406.11"/>
<polygon fill="black" stroke="black" points="1178.24,-406.1 1174.74,-396.1 1171.24,-406.1 1178.24,-406.1"/>
</g>
<!-- N1748225580 -->
<g id="node61" class="node">
<title>N1748225580</title>
<ellipse fill="none" stroke="black" cx="1309.74" cy="-378" rx="27" ry="18"/>
<text text-anchor="middle" x="1309.74" y="-374.3" font-family="Times New Roman,serif" font-size="14.00">/</text>
</g>
<!-- N679890578&#45;&gt;N1748225580 -->
<g id="edge60" class="edge">
<title>N679890578&#45;&gt;N1748225580</title>
<path fill="none" stroke="black" d="M1195.54,-438.22C1218.2,-426.47 1254.63,-407.57 1280.24,-394.3"/>
<polygon fill="black" stroke="black" points="1281.88,-397.39 1289.14,-389.68 1278.65,-391.18 1281.88,-397.39"/>
</g>
<!-- N1918627686 -->
<g id="node62" class="node">
<title>N1918627686</title>
<ellipse fill="none" stroke="black" cx="1309.74" cy="-306" rx="27" ry="18"/>
<text text-anchor="middle" x="1309.74" y="-302.3" font-family="Times New Roman,serif" font-size="14.00">+</text>
</g>
<!-- N1748225580&#45;&gt;N1918627686 -->
<g id="edge61" class="edge">
<title>N1748225580&#45;&gt;N1918627686</title>
<path fill="none" stroke="black" d="M1309.74,-359.7C1309.74,-351.98 1309.74,-342.71 1309.74,-334.11"/>
<polygon fill="black" stroke="black" points="1313.24,-334.1 1309.74,-324.1 1306.24,-334.1 1313.24,-334.1"/>
</g>
<!-- N716143810 -->
<g id="node63" class="node">
<title>N716143810</title>
<ellipse fill="none" stroke="black" cx="1449.74" cy="-306" rx="27" ry="18"/>
<text text-anchor="middle" x="1449.74" y="-302.3" font-family="Times New Roman,serif" font-size="14.00">/</text>
</g>
<!-- N1748225580&#45;&gt;N716143810 -->
<g id="edge62" class="edge">
<title>N1748225580&#45;&gt;N716143810</title>
<path fill="none" stroke="black" d="M1330.7,-366.52C1354.31,-354.72 1392.88,-335.43 1419.69,-322.03"/>
<polygon fill="black" stroke="black" points="1421.26,-325.15 1428.64,-317.55 1418.13,-318.89 1421.26,-325.15"/>
</g>
<!-- N1849433705 -->
<g id="node64" class="node">
<title>N1849433705</title>
<ellipse fill="none" stroke="black" cx="1234.74" cy="-234" rx="27" ry="18"/>
<text text-anchor="middle" x="1234.74" y="-230.3" font-family="Times New Roman,serif" font-size="14.00">/</text>
</g>
<!-- N1918627686&#45;&gt;N1849433705 -->
<g id="edge63" class="edge">
<title>N1918627686&#45;&gt;N1849433705</title>
<path fill="none" stroke="black" d="M1294.56,-290.83C1283.89,-280.87 1269.42,-267.37 1257.39,-256.14"/>
<polygon fill="black" stroke="black" points="1259.6,-253.41 1249.9,-249.14 1254.82,-258.53 1259.6,-253.41"/>
</g>
<!-- N411631404 -->
<g id="node65" class="node">
<title>N411631404</title>
<ellipse fill="none" stroke="black" cx="1311.74" cy="-234" rx="32.49" ry="18"/>
<text text-anchor="middle" x="1311.74" y="-230.3" font-family="Times New Roman,serif" font-size="14.00">1.0X1</text>
</g>
<!-- N1918627686&#45;&gt;N411631404 -->
<g id="edge64" class="edge">
<title>N1918627686&#45;&gt;N411631404</title>
<path fill="none" stroke="black" d="M1310.24,-287.7C1310.46,-279.98 1310.72,-270.71 1310.97,-262.11"/>
<polygon fill="black" stroke="black" points="1314.47,-262.2 1311.25,-252.1 1307.47,-262 1314.47,-262.2"/>
</g>
<!-- N1792845110 -->
<g id="node68" class="node">
<title>N1792845110</title>
<ellipse fill="none" stroke="black" cx="1449.74" cy="-234" rx="87.99" ry="18"/>
<text text-anchor="middle" x="1449.74" y="-230.3" font-family="Times New Roman,serif" font-size="14.00">0.8197013552158876</text>
</g>
<!-- N716143810&#45;&gt;N1792845110 -->
<g id="edge67" class="edge">
<title>N716143810&#45;&gt;N1792845110</title>
<path fill="none" stroke="black" d="M1449.74,-287.7C1449.74,-279.98 1449.74,-270.71 1449.74,-262.11"/>
<polygon fill="black" stroke="black" points="1453.24,-262.1 1449.74,-252.1 1446.24,-262.1 1453.24,-262.1"/>
</g>
<!-- N896681694 -->
<g id="node69" class="node">
<title>N896681694</title>
<ellipse fill="none" stroke="black" cx="1638.74" cy="-234" rx="83.39" ry="18"/>
<text text-anchor="middle" x="1638.74" y="-230.3" font-family="Times New Roman,serif" font-size="14.00">2.064340978368365</text>
</g>
<!-- N716143810&#45;&gt;N896681694 -->
<g id="edge68" class="edge">
<title>N716143810&#45;&gt;N896681694</title>
<path fill="none" stroke="black" d="M1472.92,-296.42C1501.6,-285.79 1551.25,-267.41 1588.76,-253.51"/>
<polygon fill="black" stroke="black" points="1590.34,-256.66 1598.5,-249.9 1587.91,-250.1 1590.34,-256.66"/>
</g>
<!-- N897913732 -->
<g id="node66" class="node">
<title>N897913732</title>
<ellipse fill="none" stroke="black" cx="1215.74" cy="-162" rx="87.99" ry="18"/>
<text text-anchor="middle" x="1215.74" y="-158.3" font-family="Times New Roman,serif" font-size="14.00">2.2932100607756722</text>
</g>
<!-- N1849433705&#45;&gt;N897913732 -->
<g id="edge65" class="edge">
<title>N1849433705&#45;&gt;N897913732</title>
<path fill="none" stroke="black" d="M1230.14,-216.05C1228.03,-208.26 1225.47,-198.82 1223.09,-190.08"/>
<polygon fill="black" stroke="black" points="1226.43,-189.01 1220.43,-180.28 1219.67,-190.84 1226.43,-189.01"/>
</g>
<!-- N1688019098 -->
<g id="node67" class="node">
<title>N1688019098</title>
<ellipse fill="none" stroke="black" cx="1408.74" cy="-162" rx="87.99" ry="18"/>
<text text-anchor="middle" x="1408.74" y="-158.3" font-family="Times New Roman,serif" font-size="14.00">2.2003856017888617</text>
</g>
<!-- N1849433705&#45;&gt;N1688019098 -->
<g id="edge66" class="edge">
<title>N1849433705&#45;&gt;N1688019098</title>
<path fill="none" stroke="black" d="M1255.94,-222.67C1260.78,-220.4 1265.91,-218.06 1270.74,-216 1299.2,-203.84 1331.47,-191.37 1357.65,-181.59"/>
<polygon fill="black" stroke="black" points="1359.21,-184.74 1367.36,-177.98 1356.77,-178.18 1359.21,-184.74"/>
</g>
</g>
</svg>
