<?xml version="1.0" encoding="UTF-8" standalone="no"?>
<!DOCTYPE svg PUBLIC "-//W3C//DTD SVG 1.1//EN"
 "http://www.w3.org/Graphics/SVG/1.1/DTD/svg11.dtd">
<!-- Generated by graphviz version 6.0.2 (20221011.1828)
 -->
<!-- Title: G Pages: 1 -->
<svg width="321pt" height="283pt"
 viewBox="0.00 0.00 321.30 283.00" xmlns="http://www.w3.org/2000/svg" xmlns:xlink="http://www.w3.org/1999/xlink">
<g id="graph0" class="graph" transform="scale(1 1) rotate(0) translate(4 279)">
<title>G</title>
<polygon fill="white" stroke="none" points="-4,4 -4,-279 317.3,-279 317.3,4 -4,4"/>
<text text-anchor="middle" x="156.65" y="-7.8" font-family="Times New Roman,serif" font-size="14.00">węzły:9</text>
<!-- N1911006827 -->
<g id="node1" class="node">
<title>N1911006827</title>
<ellipse fill="none" stroke="black" cx="174" cy="-257" rx="27" ry="18"/>
<text text-anchor="middle" x="174" y="-253.3" font-family="Times New Roman,serif" font-size="14.00">+</text>
</g>
<!-- N1967205423 -->
<g id="node2" class="node">
<title>N1967205423</title>
<ellipse fill="none" stroke="black" cx="137" cy="-185" rx="27" ry="18"/>
<text text-anchor="middle" x="137" y="-181.3" font-family="Times New Roman,serif" font-size="14.00">*</text>
</g>
<!-- N1911006827&#45;&gt;N1967205423 -->
<g id="edge1" class="edge">
<title>N1911006827&#45;&gt;N1967205423</title>
<path fill="none" stroke="black" d="M165.42,-239.76C160.94,-231.28 155.35,-220.71 150.32,-211.2"/>
<polygon fill="black" stroke="black" points="153.3,-209.35 145.54,-202.15 147.11,-212.62 153.3,-209.35"/>
</g>
<!-- N42121758 -->
<g id="node3" class="node">
<title>N42121758</title>
<ellipse fill="none" stroke="black" cx="212" cy="-185" rx="27" ry="18"/>
<text text-anchor="middle" x="212" y="-181.3" font-family="Times New Roman,serif" font-size="14.00">*</text>
</g>
<!-- N1911006827&#45;&gt;N42121758 -->
<g id="edge2" class="edge">
<title>N1911006827&#45;&gt;N42121758</title>
<path fill="none" stroke="black" d="M182.81,-239.76C187.42,-231.28 193.16,-220.71 198.32,-211.2"/>
<polygon fill="black" stroke="black" points="201.54,-212.61 203.23,-202.15 195.39,-209.27 201.54,-212.61"/>
</g>
<!-- N257895351 -->
<g id="node4" class="node">
<title>N257895351</title>
<ellipse fill="none" stroke="black" cx="64" cy="-113" rx="27" ry="18"/>
<text text-anchor="middle" x="64" y="-109.3" font-family="Times New Roman,serif" font-size="14.00">*</text>
</g>
<!-- N1967205423&#45;&gt;N257895351 -->
<g id="edge3" class="edge">
<title>N1967205423&#45;&gt;N257895351</title>
<path fill="none" stroke="black" d="M122.23,-169.83C111.84,-159.87 97.76,-146.37 86.04,-135.14"/>
<polygon fill="black" stroke="black" points="88.39,-132.54 78.75,-128.14 83.55,-137.59 88.39,-132.54"/>
</g>
<!-- N1929600551 -->
<g id="node5" class="node">
<title>N1929600551</title>
<ellipse fill="none" stroke="black" cx="137" cy="-113" rx="27.9" ry="18"/>
<text text-anchor="middle" x="137" y="-109.3" font-family="Times New Roman,serif" font-size="14.00">1.0B</text>
</g>
<!-- N1967205423&#45;&gt;N1929600551 -->
<g id="edge4" class="edge">
<title>N1967205423&#45;&gt;N1929600551</title>
<path fill="none" stroke="black" d="M137,-166.7C137,-158.98 137,-149.71 137,-141.11"/>
<polygon fill="black" stroke="black" points="140.5,-141.1 137,-131.1 133.5,-141.1 140.5,-141.1"/>
</g>
<!-- N1631862159 -->
<g id="node8" class="node">
<title>N1631862159</title>
<ellipse fill="none" stroke="black" cx="212" cy="-113" rx="28.7" ry="18"/>
<text text-anchor="middle" x="212" y="-109.3" font-family="Times New Roman,serif" font-size="14.00">1.0D</text>
</g>
<!-- N42121758&#45;&gt;N1631862159 -->
<g id="edge7" class="edge">
<title>N42121758&#45;&gt;N1631862159</title>
<path fill="none" stroke="black" d="M212,-166.7C212,-158.98 212,-149.71 212,-141.11"/>
<polygon fill="black" stroke="black" points="215.5,-141.1 212,-131.1 208.5,-141.1 215.5,-141.1"/>
</g>
<!-- N1146848448 -->
<g id="node9" class="node">
<title>N1146848448</title>
<ellipse fill="none" stroke="black" cx="286" cy="-113" rx="27.1" ry="18"/>
<text text-anchor="middle" x="286" y="-109.3" font-family="Times New Roman,serif" font-size="14.00">1.0E</text>
</g>
<!-- N42121758&#45;&gt;N1146848448 -->
<g id="edge8" class="edge">
<title>N42121758&#45;&gt;N1146848448</title>
<path fill="none" stroke="black" d="M226.98,-169.83C237.51,-159.87 251.78,-146.37 263.66,-135.14"/>
<polygon fill="black" stroke="black" points="266.19,-137.56 271.05,-128.14 261.38,-132.47 266.19,-137.56"/>
</g>
<!-- N1690716179 -->
<g id="node6" class="node">
<title>N1690716179</title>
<ellipse fill="none" stroke="black" cx="27" cy="-41" rx="27" ry="18"/>
<text text-anchor="middle" x="27" y="-37.3" font-family="Times New Roman,serif" font-size="14.00">2.0</text>
</g>
<!-- N257895351&#45;&gt;N1690716179 -->
<g id="edge5" class="edge">
<title>N257895351&#45;&gt;N1690716179</title>
<path fill="none" stroke="black" d="M55.42,-95.76C50.94,-87.28 45.35,-76.71 40.32,-67.2"/>
<polygon fill="black" stroke="black" points="43.3,-65.35 35.54,-58.15 37.11,-68.62 43.3,-65.35"/>
</g>
<!-- N1053782781 -->
<g id="node7" class="node">
<title>N1053782781</title>
<ellipse fill="none" stroke="black" cx="101" cy="-41" rx="28.7" ry="18"/>
<text text-anchor="middle" x="101" y="-37.3" font-family="Times New Roman,serif" font-size="14.00">1.0A</text>
</g>
<!-- N257895351&#45;&gt;N1053782781 -->
<g id="edge6" class="edge">
<title>N257895351&#45;&gt;N1053782781</title>
<path fill="none" stroke="black" d="M72.58,-95.76C77,-87.4 82.49,-77.02 87.47,-67.61"/>
<polygon fill="black" stroke="black" points="90.63,-69.11 92.21,-58.63 84.44,-65.84 90.63,-69.11"/>
</g>
</g>
</svg>
