<?xml version="1.0" encoding="UTF-8" standalone="no"?>
<!DOCTYPE svg PUBLIC "-//W3C//DTD SVG 1.1//EN"
 "http://www.w3.org/Graphics/SVG/1.1/DTD/svg11.dtd">
<!-- Generated by graphviz version 6.0.2 (20221011.1828)
 -->
<!-- Title: G Pages: 1 -->
<svg width="288pt" height="211pt"
 viewBox="0.00 0.00 287.90 211.00" xmlns="http://www.w3.org/2000/svg" xmlns:xlink="http://www.w3.org/1999/xlink">
<g id="graph0" class="graph" transform="scale(1 1) rotate(0) translate(4 207)">
<title>G</title>
<polygon fill="white" stroke="none" points="-4,4 -4,-207 283.9,-207 283.9,4 -4,4"/>
<text text-anchor="middle" x="139.95" y="-7.8" font-family="Times New Roman,serif" font-size="14.00">węzły:7</text>
<!-- N1911006827 -->
<g id="node1" class="node">
<title>N1911006827</title>
<ellipse fill="none" stroke="black" cx="140.6" cy="-185" rx="27" ry="18"/>
<text text-anchor="middle" x="140.6" y="-181.3" font-family="Times New Roman,serif" font-size="14.00">+</text>
</g>
<!-- N1967205423 -->
<g id="node2" class="node">
<title>N1967205423</title>
<ellipse fill="none" stroke="black" cx="103.6" cy="-113" rx="27" ry="18"/>
<text text-anchor="middle" x="103.6" y="-109.3" font-family="Times New Roman,serif" font-size="14.00">*</text>
</g>
<!-- N1911006827&#45;&gt;N1967205423 -->
<g id="edge1" class="edge">
<title>N1911006827&#45;&gt;N1967205423</title>
<path fill="none" stroke="black" d="M132.02,-167.76C127.53,-159.28 121.95,-148.71 116.92,-139.2"/>
<polygon fill="black" stroke="black" points="119.9,-137.35 112.13,-130.15 113.71,-140.62 119.9,-137.35"/>
</g>
<!-- N42121758 -->
<g id="node3" class="node">
<title>N42121758</title>
<ellipse fill="none" stroke="black" cx="178.6" cy="-113" rx="27" ry="18"/>
<text text-anchor="middle" x="178.6" y="-109.3" font-family="Times New Roman,serif" font-size="14.00">*</text>
</g>
<!-- N1911006827&#45;&gt;N42121758 -->
<g id="edge2" class="edge">
<title>N1911006827&#45;&gt;N42121758</title>
<path fill="none" stroke="black" d="M149.41,-167.76C154.02,-159.28 159.75,-148.71 164.92,-139.2"/>
<polygon fill="black" stroke="black" points="168.14,-140.61 169.83,-130.15 161.98,-137.27 168.14,-140.61"/>
</g>
<!-- N257895351 -->
<g id="node4" class="node">
<title>N257895351</title>
<ellipse fill="none" stroke="black" cx="28.6" cy="-41" rx="28.7" ry="18"/>
<text text-anchor="middle" x="28.6" y="-37.3" font-family="Times New Roman,serif" font-size="14.00">2.0A</text>
</g>
<!-- N1967205423&#45;&gt;N257895351 -->
<g id="edge3" class="edge">
<title>N1967205423&#45;&gt;N257895351</title>
<path fill="none" stroke="black" d="M88.42,-97.83C77.82,-87.94 63.47,-74.55 51.48,-63.36"/>
<polygon fill="black" stroke="black" points="53.71,-60.65 44.01,-56.38 48.93,-65.77 53.71,-60.65"/>
</g>
<!-- N1929600551 -->
<g id="node5" class="node">
<title>N1929600551</title>
<ellipse fill="none" stroke="black" cx="103.6" cy="-41" rx="27.9" ry="18"/>
<text text-anchor="middle" x="103.6" y="-37.3" font-family="Times New Roman,serif" font-size="14.00">1.0B</text>
</g>
<!-- N1967205423&#45;&gt;N1929600551 -->
<g id="edge4" class="edge">
<title>N1967205423&#45;&gt;N1929600551</title>
<path fill="none" stroke="black" d="M103.6,-94.7C103.6,-86.98 103.6,-77.71 103.6,-69.11"/>
<polygon fill="black" stroke="black" points="107.1,-69.1 103.6,-59.1 100.1,-69.1 107.1,-69.1"/>
</g>
<!-- N1631862159 -->
<g id="node6" class="node">
<title>N1631862159</title>
<ellipse fill="none" stroke="black" cx="178.6" cy="-41" rx="28.7" ry="18"/>
<text text-anchor="middle" x="178.6" y="-37.3" font-family="Times New Roman,serif" font-size="14.00">1.0D</text>
</g>
<!-- N42121758&#45;&gt;N1631862159 -->
<g id="edge5" class="edge">
<title>N42121758&#45;&gt;N1631862159</title>
<path fill="none" stroke="black" d="M178.6,-94.7C178.6,-86.98 178.6,-77.71 178.6,-69.11"/>
<polygon fill="black" stroke="black" points="182.1,-69.1 178.6,-59.1 175.1,-69.1 182.1,-69.1"/>
</g>
<!-- N1146848448 -->
<g id="node7" class="node">
<title>N1146848448</title>
<ellipse fill="none" stroke="black" cx="252.6" cy="-41" rx="27.1" ry="18"/>
<text text-anchor="middle" x="252.6" y="-37.3" font-family="Times New Roman,serif" font-size="14.00">1.0E</text>
</g>
<!-- N42121758&#45;&gt;N1146848448 -->
<g id="edge6" class="edge">
<title>N42121758&#45;&gt;N1146848448</title>
<path fill="none" stroke="black" d="M193.57,-97.83C204.1,-87.87 218.38,-74.37 230.25,-63.14"/>
<polygon fill="black" stroke="black" points="232.79,-65.56 237.64,-56.14 227.97,-60.47 232.79,-65.56"/>
</g>
</g>
</svg>
