<?xml version="1.0" encoding="UTF-8" standalone="no"?>
<!DOCTYPE svg PUBLIC "-//W3C//DTD SVG 1.1//EN"
 "http://www.w3.org/Graphics/SVG/1.1/DTD/svg11.dtd">
<!-- Generated by graphviz version 7.0.1 (20221109.1506)
 -->
<!-- Title: G Pages: 1 -->
<svg width="282pt" height="274pt"
 viewBox="0.00 0.00 282.00 274.00" xmlns="http://www.w3.org/2000/svg" xmlns:xlink="http://www.w3.org/1999/xlink">
<g id="graph0" class="graph" transform="scale(1 1) rotate(0) translate(4 270)">
<title>G</title>
<polygon fill="white" stroke="none" points="-4,4 -4,-270 278,-270 278,4 -4,4"/>
<g id="clust1" class="cluster">
<title>cluster_P1211076369</title>
<polygon fill="none" stroke="black" points="8,-8 8,-258 266,-258 266,-8 8,-8"/>
<text text-anchor="middle" x="137" y="-242.8" font-family="Times New Roman,serif" font-size="14.00">c</text>
</g>
<g id="clust3" class="cluster">
<title>cluster_Z459296537</title>
<polygon fill="none" stroke="black" points="180,-152 180,-227 258,-227 258,-152 180,-152"/>
<text text-anchor="middle" x="219" y="-211.8" font-family="Times New Roman,serif" font-size="14.00">ARGMIN</text>
</g>
<g id="clust4" class="cluster">
<title>cluster_Z2015601401</title>
<polygon fill="none" stroke="black" points="80,-152 80,-227 172,-227 172,-152 80,-152"/>
<text text-anchor="middle" x="126" y="-211.8" font-family="Times New Roman,serif" font-size="14.00">MEMLIMIT</text>
</g>
<!-- 0.0 -->
<g id="node1" class="node">
<title>0.0</title>
<polygon fill="lightgrey" stroke="black" points="219,-196 188,-178 219,-160 250,-178 219,-196"/>
<text text-anchor="middle" x="219" y="-174.3" font-family="Times New Roman,serif" font-size="14.00">0.0</text>
</g>
<!-- 64.0 -->
<g id="node2" class="node">
<title>64.0</title>
<polygon fill="lightgrey" stroke="black" points="126,-196 88.13,-178 126,-160 163.87,-178 126,-196"/>
<text text-anchor="middle" x="126" y="-174.3" font-family="Times New Roman,serif" font-size="14.00">64.0</text>
</g>
<!-- N1287712235 -->
<g id="node3" class="node">
<title>N1287712235</title>
<ellipse fill="#ff0000" stroke="black" cx="43" cy="-178" rx="27" ry="18"/>
<text text-anchor="middle" x="43" y="-174.3" font-family="Times New Roman,serif" font-size="14.00">&#45;</text>
</g>
<!-- N1165897474 -->
<g id="node4" class="node">
<title>N1165897474</title>
<ellipse fill="#0000ff" stroke="black" cx="45" cy="-106" rx="27" ry="18"/>
<text text-anchor="middle" x="45" y="-102.3" font-family="Times New Roman,serif" font-size="14.00">:=</text>
</g>
<!-- N1287712235&#45;&gt;N1165897474 -->
<g id="edge1" class="edge">
<title>N1287712235&#45;&gt;N1165897474</title>
<path fill="none" stroke="black" d="M43.49,-159.7C43.7,-152.41 43.95,-143.73 44.18,-135.54"/>
<polygon fill="black" stroke="black" points="47.68,-135.71 44.47,-125.62 40.68,-135.51 47.68,-135.71"/>
</g>
<!-- N1551870003 -->
<g id="node5" class="node">
<title>N1551870003</title>
<ellipse fill="#ff0000" stroke="black" cx="157" cy="-106" rx="27" ry="18"/>
<text text-anchor="middle" x="157" y="-102.3" font-family="Times New Roman,serif" font-size="14.00">&#45;</text>
</g>
<!-- N1287712235&#45;&gt;N1551870003 -->
<g id="edge2" class="edge">
<title>N1287712235&#45;&gt;N1551870003</title>
<path fill="none" stroke="black" d="M59.8,-163.55C64.89,-159.67 70.58,-155.53 76,-152 91.99,-141.58 110.55,-131.15 125.87,-122.96"/>
<polygon fill="black" stroke="black" points="127.33,-126.15 134.55,-118.39 124.07,-119.96 127.33,-126.15"/>
</g>
<!-- N967765295 -->
<g id="node6" class="node">
<title>N967765295</title>
<ellipse fill="#0000ff" stroke="black" cx="45" cy="-34" rx="29.5" ry="18"/>
<text text-anchor="middle" x="45" y="-30.3" font-family="Times New Roman,serif" font-size="14.00">&#45;77.7</text>
</g>
<!-- N1165897474&#45;&gt;N967765295 -->
<g id="edge3" class="edge">
<title>N1165897474&#45;&gt;N967765295</title>
<path fill="none" stroke="black" d="M45,-87.7C45,-80.41 45,-71.73 45,-63.54"/>
<polygon fill="black" stroke="black" points="48.5,-63.62 45,-53.62 41.5,-63.62 48.5,-63.62"/>
</g>
<!-- N1917513796 -->
<g id="node7" class="node">
<title>N1917513796</title>
<ellipse fill="#0000ff" stroke="black" cx="121" cy="-34" rx="29.5" ry="18"/>
<text text-anchor="middle" x="121" y="-30.3" font-family="Times New Roman,serif" font-size="14.00">&#45;47.0</text>
</g>
<!-- N1165897474&#45;&gt;N1917513796 -->
<g id="edge4" class="edge">
<title>N1165897474&#45;&gt;N1917513796</title>
<path fill="none" stroke="black" d="M60.38,-90.83C70.85,-81.19 84.92,-68.23 96.87,-57.22"/>
<polygon fill="black" stroke="black" points="99.02,-60 104.01,-50.65 94.28,-54.85 99.02,-60"/>
</g>
<!-- N1182320432 -->
<g id="node8" class="node">
<title>N1182320432</title>
<ellipse fill="#ff0000" stroke="black" cx="197" cy="-34" rx="29.5" ry="18"/>
<text text-anchor="middle" x="197" y="-30.3" font-family="Times New Roman,serif" font-size="14.00">&#45;44.5</text>
</g>
<!-- N1551870003&#45;&gt;N1182320432 -->
<g id="edge5" class="edge">
<title>N1551870003&#45;&gt;N1182320432</title>
<path fill="none" stroke="black" d="M166.28,-88.76C170.97,-80.55 176.79,-70.37 182.09,-61.09"/>
<polygon fill="black" stroke="black" points="185.1,-62.88 187.02,-52.46 179.02,-59.41 185.1,-62.88"/>
</g>
</g>
</svg>
