<?xml version="1.0" encoding="UTF-8" standalone="no"?>
<!DOCTYPE svg PUBLIC "-//W3C//DTD SVG 1.1//EN"
 "http://www.w3.org/Graphics/SVG/1.1/DTD/svg11.dtd">
<!-- Generated by graphviz version 7.0.1 (20221109.1506)
 -->
<!-- Title: G Pages: 1 -->
<svg width="386pt" height="274pt"
 viewBox="0.00 0.00 386.00 274.00" xmlns="http://www.w3.org/2000/svg" xmlns:xlink="http://www.w3.org/1999/xlink">
<g id="graph0" class="graph" transform="scale(1 1) rotate(0) translate(4 270)">
<title>G</title>
<polygon fill="white" stroke="none" points="-4,4 -4,-270 382,-270 382,4 -4,4"/>
<g id="clust1" class="cluster">
<title>cluster_P1622006612</title>
<polygon fill="none" stroke="black" points="8,-8 8,-258 370,-258 370,-8 8,-8"/>
<text text-anchor="middle" x="189" y="-242.8" font-family="Times New Roman,serif" font-size="14.00">c</text>
</g>
<g id="clust3" class="cluster">
<title>cluster_Z760563749</title>
<polygon fill="none" stroke="black" points="280,-152 280,-227 358,-227 358,-152 280,-152"/>
<text text-anchor="middle" x="319" y="-211.8" font-family="Times New Roman,serif" font-size="14.00">ARGMIN</text>
</g>
<g id="clust4" class="cluster">
<title>cluster_Z1753447031</title>
<polygon fill="none" stroke="black" points="172,-152 172,-227 264,-227 264,-152 172,-152"/>
<text text-anchor="middle" x="218" y="-211.8" font-family="Times New Roman,serif" font-size="14.00">MEMLIMIT</text>
</g>
<!-- 0.0 -->
<g id="node1" class="node">
<title>0.0</title>
<polygon fill="lightgrey" stroke="black" points="319,-196 288,-178 319,-160 350,-178 319,-196"/>
<text text-anchor="middle" x="319" y="-174.3" font-family="Times New Roman,serif" font-size="14.00">0.0</text>
</g>
<!-- 64.0 -->
<g id="node2" class="node">
<title>64.0</title>
<polygon fill="lightgrey" stroke="black" points="218,-196 180.13,-178 218,-160 255.87,-178 218,-196"/>
<text text-anchor="middle" x="218" y="-174.3" font-family="Times New Roman,serif" font-size="14.00">64.0</text>
</g>
<!-- N1778535015 -->
<g id="node3" class="node">
<title>N1778535015</title>
<ellipse fill="#ff0000" stroke="black" cx="119" cy="-178" rx="27" ry="18"/>
<text text-anchor="middle" x="119" y="-174.3" font-family="Times New Roman,serif" font-size="14.00">|</text>
</g>
<!-- N2032251042 -->
<g id="node4" class="node">
<title>N2032251042</title>
<ellipse fill="#ff0000" stroke="black" cx="115" cy="-106" rx="27" ry="18"/>
<text text-anchor="middle" x="115" y="-102.3" font-family="Times New Roman,serif" font-size="14.00">:=</text>
</g>
<!-- N1778535015&#45;&gt;N2032251042 -->
<g id="edge1" class="edge">
<title>N1778535015&#45;&gt;N2032251042</title>
<path fill="none" stroke="black" d="M118.01,-159.7C117.59,-152.41 117.1,-143.73 116.63,-135.54"/>
<polygon fill="black" stroke="black" points="120.13,-135.4 116.06,-125.62 113.14,-135.8 120.13,-135.4"/>
</g>
<!-- N24433162 -->
<g id="node5" class="node">
<title>N24433162</title>
<ellipse fill="#ff0000" stroke="black" cx="223" cy="-106" rx="27" ry="18"/>
<text text-anchor="middle" x="223" y="-102.3" font-family="Times New Roman,serif" font-size="14.00">{}</text>
</g>
<!-- N1778535015&#45;&gt;N24433162 -->
<g id="edge2" class="edge">
<title>N1778535015&#45;&gt;N24433162</title>
<path fill="none" stroke="black" d="M137.59,-164.49C153.57,-153.73 176.83,-138.08 195.05,-125.82"/>
<polygon fill="black" stroke="black" points="196.97,-128.74 203.31,-120.25 193.06,-122.93 196.97,-128.74"/>
</g>
<!-- N1725097945 -->
<g id="node6" class="node">
<title>N1725097945</title>
<ellipse fill="#ff0000" stroke="black" cx="43" cy="-34" rx="27" ry="18"/>
<text text-anchor="middle" x="43" y="-30.3" font-family="Times New Roman,serif" font-size="14.00">read</text>
</g>
<!-- N2032251042&#45;&gt;N1725097945 -->
<g id="edge3" class="edge">
<title>N2032251042&#45;&gt;N1725097945</title>
<path fill="none" stroke="black" d="M100.08,-90.5C90.23,-80.92 77.14,-68.19 65.97,-57.34"/>
<polygon fill="black" stroke="black" points="68.59,-55 58.98,-50.54 63.71,-60.02 68.59,-55"/>
</g>
<!-- N519821334 -->
<g id="node7" class="node">
<title>N519821334</title>
<ellipse fill="#0000ff" stroke="black" cx="115" cy="-34" rx="27" ry="18"/>
<text text-anchor="middle" x="115" y="-30.3" font-family="Times New Roman,serif" font-size="14.00">59.4</text>
</g>
<!-- N2032251042&#45;&gt;N519821334 -->
<g id="edge4" class="edge">
<title>N2032251042&#45;&gt;N519821334</title>
<path fill="none" stroke="black" d="M115,-87.7C115,-80.41 115,-71.73 115,-63.54"/>
<polygon fill="black" stroke="black" points="118.5,-63.62 115,-53.62 111.5,-63.62 118.5,-63.62"/>
</g>
<!-- N1781256139 -->
<g id="node8" class="node">
<title>N1781256139</title>
<ellipse fill="#ff0000" stroke="black" cx="187" cy="-34" rx="27" ry="18"/>
<text text-anchor="middle" x="187" y="-30.3" font-family="Times New Roman,serif" font-size="14.00">92.0</text>
</g>
<!-- N24433162&#45;&gt;N1781256139 -->
<g id="edge5" class="edge">
<title>N24433162&#45;&gt;N1781256139</title>
<path fill="none" stroke="black" d="M214.65,-88.76C210.42,-80.55 205.19,-70.37 200.42,-61.09"/>
<polygon fill="black" stroke="black" points="203.68,-59.79 196,-52.49 197.46,-62.99 203.68,-59.79"/>
</g>
<!-- N1307096070 -->
<g id="node9" class="node">
<title>N1307096070</title>
<ellipse fill="#ff0000" stroke="black" cx="259" cy="-34" rx="27" ry="18"/>
<text text-anchor="middle" x="259" y="-30.3" font-family="Times New Roman,serif" font-size="14.00">76.7</text>
</g>
<!-- N24433162&#45;&gt;N1307096070 -->
<g id="edge6" class="edge">
<title>N24433162&#45;&gt;N1307096070</title>
<path fill="none" stroke="black" d="M231.35,-88.76C235.58,-80.55 240.81,-70.37 245.58,-61.09"/>
<polygon fill="black" stroke="black" points="248.54,-62.99 250,-52.49 242.32,-59.79 248.54,-62.99"/>
</g>
<!-- N1014328909 -->
<g id="node10" class="node">
<title>N1014328909</title>
<ellipse fill="#ff0000" stroke="black" cx="333" cy="-34" rx="29.5" ry="18"/>
<text text-anchor="middle" x="333" y="-30.3" font-family="Times New Roman,serif" font-size="14.00">&#45;95.3</text>
</g>
<!-- N24433162&#45;&gt;N1014328909 -->
<g id="edge7" class="edge">
<title>N24433162&#45;&gt;N1014328909</title>
<path fill="none" stroke="black" d="M242.16,-92.81C259.14,-82 284.2,-66.05 303.7,-53.64"/>
<polygon fill="black" stroke="black" points="305.48,-56.66 312.04,-48.34 301.73,-50.75 305.48,-56.66"/>
</g>
</g>
</svg>
