<?xml version="1.0" encoding="UTF-8" standalone="no"?>
<!DOCTYPE svg PUBLIC "-//W3C//DTD SVG 1.1//EN"
 "http://www.w3.org/Graphics/SVG/1.1/DTD/svg11.dtd">
<!-- Generated by graphviz version 6.0.2 (20221011.1828)
 -->
<!-- Title: G Pages: 1 -->
<svg width="389pt" height="138pt"
 viewBox="0.00 0.00 389.00 138.00" xmlns="http://www.w3.org/2000/svg" xmlns:xlink="http://www.w3.org/1999/xlink">
<g id="graph0" class="graph" transform="scale(1 1) rotate(0) translate(4 134)">
<title>G</title>
<polygon fill="white" stroke="none" points="-4,4 -4,-134 385,-134 385,4 -4,4"/>
<g id="clust1" class="cluster">
<title>cluster_P1426963578</title>
<polygon fill="none" stroke="black" points="8,-8 8,-122 373,-122 373,-8 8,-8"/>
<text text-anchor="middle" x="190.5" y="-106.8" font-family="Times New Roman,serif" font-size="14.00">main</text>
</g>
<g id="clust3" class="cluster">
<title>cluster_Z915500720</title>
<polygon fill="none" stroke="black" points="287,-16 287,-91 365,-91 365,-16 287,-16"/>
<text text-anchor="middle" x="326" y="-75.8" font-family="Times New Roman,serif" font-size="14.00">a</text>
</g>
<g id="clust2" class="cluster">
<title>cluster_Z556281560</title>
<polygon fill="none" stroke="black" points="201,-16 201,-91 279,-91 279,-16 201,-16"/>
<text text-anchor="middle" x="240" y="-75.8" font-family="Times New Roman,serif" font-size="14.00">ARGMAX</text>
</g>
<g id="clust5" class="cluster">
<title>cluster_Z1132307065</title>
<polygon fill="none" stroke="black" points="106,-16 106,-91 193,-91 193,-16 106,-16"/>
<text text-anchor="middle" x="149.5" y="-75.8" font-family="Times New Roman,serif" font-size="14.00">MEMLIMIT</text>
</g>
<!-- 0.0 -->
<g id="node1" class="node">
<title>0.0</title>
<polygon fill="lightgrey" stroke="black" points="240,-60 209,-42 240,-24 271,-42 240,-60"/>
<text text-anchor="middle" x="240" y="-38.3" font-family="Times New Roman,serif" font-size="14.00">0.0</text>
</g>
<!-- 3.0 -->
<g id="node2" class="node">
<title>3.0</title>
<polygon fill="lightgrey" stroke="black" points="326,-60 295,-42 326,-24 357,-42 326,-60"/>
<text text-anchor="middle" x="326" y="-38.3" font-family="Times New Roman,serif" font-size="14.00">3.0</text>
</g>
<!-- 4.0 -->
<g id="node3" class="node">
<title>4.0</title>
<polygon fill="lightgrey" stroke="black" points="150,-60 119,-42 150,-24 181,-42 150,-60"/>
<text text-anchor="middle" x="150" y="-38.3" font-family="Times New Roman,serif" font-size="14.00">4.0</text>
</g>
<!-- N599984672 -->
<g id="node4" class="node">
<title>N599984672</title>
<ellipse fill="#fafafa" stroke="black" cx="57" cy="-42" rx="40.89" ry="18"/>
<text text-anchor="middle" x="57" y="-38.3" font-family="Times New Roman,serif" font-size="14.00">main(...)</text>
</g>
</g>
</svg>
