<?xml version="1.0" encoding="UTF-8" standalone="no"?>
<!DOCTYPE svg PUBLIC "-//W3C//DTD SVG 1.1//EN"
 "http://www.w3.org/Graphics/SVG/1.1/DTD/svg11.dtd">
<!-- Generated by graphviz version 6.0.2 (20221011.1828)
 -->
<!-- Title: G Pages: 1 -->
<svg width="624pt" height="706pt"
 viewBox="0.00 0.00 624.00 706.00" xmlns="http://www.w3.org/2000/svg" xmlns:xlink="http://www.w3.org/1999/xlink">
<g id="graph0" class="graph" transform="scale(1 1) rotate(0) translate(4 702)">
<title>G</title>
<polygon fill="white" stroke="none" points="-4,4 -4,-702 620,-702 620,4 -4,4"/>
<g id="clust1" class="cluster">
<title>cluster_P1286783232</title>
<polygon fill="none" stroke="black" points="8,-8 8,-690 608,-690 608,-8 8,-8"/>
<text text-anchor="middle" x="308" y="-674.8" font-family="Times New Roman,serif" font-size="14.00">avg</text>
</g>
<g id="clust2" class="cluster">
<title>cluster_Z1753447031</title>
<polygon fill="none" stroke="black" points="332,-584 332,-659 419,-659 419,-584 332,-584"/>
<text text-anchor="middle" x="375.5" y="-643.8" font-family="Times New Roman,serif" font-size="14.00">MEMLIMIT</text>
</g>
<!-- 2.0 -->
<g id="node1" class="node">
<title>2.0</title>
<polygon fill="lightgrey" stroke="black" points="374,-628 343,-610 374,-592 405,-610 374,-628"/>
<text text-anchor="middle" x="374" y="-606.3" font-family="Times New Roman,serif" font-size="14.00">2.0</text>
</g>
<!-- N1518864111 -->
<g id="node2" class="node">
<title>N1518864111</title>
<ellipse fill="#fafafa" stroke="black" cx="295" cy="-610" rx="27" ry="18"/>
<text text-anchor="middle" x="295" y="-606.3" font-family="Times New Roman,serif" font-size="14.00">{}</text>
</g>
<!-- N1816757085 -->
<g id="node3" class="node">
<title>N1816757085</title>
<ellipse fill="#fafafa" stroke="black" cx="115" cy="-538" rx="27" ry="18"/>
<text text-anchor="middle" x="115" y="-534.3" font-family="Times New Roman,serif" font-size="14.00">:=</text>
</g>
<!-- N1518864111&#45;&gt;N1816757085 -->
<g id="edge1" class="edge">
<title>N1518864111&#45;&gt;N1816757085</title>
<path fill="none" stroke="black" d="M272.2,-600.13C240.64,-587.86 183.46,-565.62 147.45,-551.62"/>
<polygon fill="black" stroke="black" points="148.48,-548.27 137.9,-547.9 145.95,-554.79 148.48,-548.27"/>
</g>
<!-- N1585787493 -->
<g id="node4" class="node">
<title>N1585787493</title>
<ellipse fill="#fafafa" stroke="black" cx="258" cy="-538" rx="27" ry="18"/>
<text text-anchor="middle" x="258" y="-534.3" font-family="Times New Roman,serif" font-size="14.00">:=</text>
</g>
<!-- N1518864111&#45;&gt;N1585787493 -->
<g id="edge2" class="edge">
<title>N1518864111&#45;&gt;N1585787493</title>
<path fill="none" stroke="black" d="M286.42,-592.76C281.94,-584.28 276.35,-573.71 271.32,-564.2"/>
<polygon fill="black" stroke="black" points="274.3,-562.35 266.54,-555.15 268.11,-565.62 274.3,-562.35"/>
</g>
<!-- N1730173572 -->
<g id="node5" class="node">
<title>N1730173572</title>
<ellipse fill="#fafafa" stroke="black" cx="332" cy="-538" rx="29.5" ry="18"/>
<text text-anchor="middle" x="332" y="-534.3" font-family="Times New Roman,serif" font-size="14.00">while</text>
</g>
<!-- N1518864111&#45;&gt;N1730173572 -->
<g id="edge3" class="edge">
<title>N1518864111&#45;&gt;N1730173572</title>
<path fill="none" stroke="black" d="M303.58,-592.76C308,-584.4 313.49,-574.02 318.47,-564.61"/>
<polygon fill="black" stroke="black" points="321.63,-566.11 323.21,-555.63 315.44,-562.84 321.63,-566.11"/>
</g>
<!-- N2097514481 -->
<g id="node6" class="node">
<title>N2097514481</title>
<ellipse fill="#fafafa" stroke="black" cx="475" cy="-538" rx="27" ry="18"/>
<text text-anchor="middle" x="475" y="-534.3" font-family="Times New Roman,serif" font-size="14.00">/</text>
</g>
<!-- N1518864111&#45;&gt;N2097514481 -->
<g id="edge4" class="edge">
<title>N1518864111&#45;&gt;N2097514481</title>
<path fill="none" stroke="black" d="M310.69,-595.33C315.94,-591.26 321.98,-587.08 328,-584 363.97,-565.6 408.81,-553.23 439.44,-546.19"/>
<polygon fill="black" stroke="black" points="440.25,-549.59 449.25,-544 438.73,-542.76 440.25,-549.59"/>
</g>
<!-- N1568059495 -->
<g id="node7" class="node">
<title>N1568059495</title>
<ellipse fill="#fafafa" stroke="black" cx="43" cy="-466" rx="27" ry="18"/>
<text text-anchor="middle" x="43" y="-462.3" font-family="Times New Roman,serif" font-size="14.00">0.0</text>
</g>
<!-- N1816757085&#45;&gt;N1568059495 -->
<g id="edge5" class="edge">
<title>N1816757085&#45;&gt;N1568059495</title>
<path fill="none" stroke="black" d="M100.43,-522.83C90.25,-512.94 76.48,-499.55 64.97,-488.36"/>
<polygon fill="black" stroke="black" points="67.41,-485.85 57.8,-481.38 62.53,-490.87 67.41,-485.85"/>
</g>
<!-- N706197430 -->
<g id="node8" class="node">
<title>N706197430</title>
<ellipse fill="#fafafa" stroke="black" cx="115" cy="-466" rx="27" ry="18"/>
<text text-anchor="middle" x="115" y="-462.3" font-family="Times New Roman,serif" font-size="14.00">&#45;</text>
</g>
<!-- N1816757085&#45;&gt;N706197430 -->
<g id="edge6" class="edge">
<title>N1816757085&#45;&gt;N706197430</title>
<path fill="none" stroke="black" d="M115,-519.7C115,-511.98 115,-502.71 115,-494.11"/>
<polygon fill="black" stroke="black" points="118.5,-494.1 115,-484.1 111.5,-494.1 118.5,-494.1"/>
</g>
<!-- N1685232414 -->
<g id="node27" class="node">
<title>N1685232414</title>
<ellipse fill="#fafafa" stroke="black" cx="187" cy="-466" rx="27" ry="18"/>
<text text-anchor="middle" x="187" y="-462.3" font-family="Times New Roman,serif" font-size="14.00">1.0</text>
</g>
<!-- N1585787493&#45;&gt;N1685232414 -->
<g id="edge25" class="edge">
<title>N1585787493&#45;&gt;N1685232414</title>
<path fill="none" stroke="black" d="M243.29,-522.5C233.39,-512.73 220.16,-499.69 209.01,-488.7"/>
<polygon fill="black" stroke="black" points="211.27,-486.01 201.69,-481.49 206.36,-491 211.27,-486.01"/>
</g>
<!-- N280744458 -->
<g id="node28" class="node">
<title>N280744458</title>
<ellipse fill="#fafafa" stroke="black" cx="259" cy="-466" rx="27" ry="18"/>
<text text-anchor="middle" x="259" y="-462.3" font-family="Times New Roman,serif" font-size="14.00">0.0</text>
</g>
<!-- N1585787493&#45;&gt;N280744458 -->
<g id="edge26" class="edge">
<title>N1585787493&#45;&gt;N280744458</title>
<path fill="none" stroke="black" d="M258.25,-519.7C258.36,-511.98 258.49,-502.71 258.61,-494.11"/>
<polygon fill="black" stroke="black" points="262.11,-494.15 258.76,-484.1 255.11,-494.05 262.11,-494.15"/>
</g>
<!-- N1213216872 -->
<g id="node29" class="node">
<title>N1213216872</title>
<ellipse fill="#fafafa" stroke="black" cx="331" cy="-466" rx="27" ry="18"/>
<text text-anchor="middle" x="331" y="-462.3" font-family="Times New Roman,serif" font-size="14.00">&lt;</text>
</g>
<!-- N1730173572&#45;&gt;N1213216872 -->
<g id="edge27" class="edge">
<title>N1730173572&#45;&gt;N1213216872</title>
<path fill="none" stroke="black" d="M331.75,-519.7C331.64,-511.98 331.51,-502.71 331.39,-494.11"/>
<polygon fill="black" stroke="black" points="334.89,-494.05 331.24,-484.1 327.89,-494.15 334.89,-494.05"/>
</g>
<!-- N1754638213 -->
<g id="node30" class="node">
<title>N1754638213</title>
<ellipse fill="#fafafa" stroke="black" cx="403" cy="-466" rx="27" ry="18"/>
<text text-anchor="middle" x="403" y="-462.3" font-family="Times New Roman,serif" font-size="14.00">:=</text>
</g>
<!-- N1730173572&#45;&gt;N1754638213 -->
<g id="edge28" class="edge">
<title>N1730173572&#45;&gt;N1754638213</title>
<path fill="none" stroke="black" d="M347.06,-522.15C356.98,-512.37 370.13,-499.4 381.19,-488.5"/>
<polygon fill="black" stroke="black" points="383.79,-490.86 388.45,-481.35 378.87,-485.87 383.79,-490.86"/>
</g>
<!-- N674483268 -->
<g id="node53" class="node">
<title>N674483268</title>
<ellipse fill="#fafafa" stroke="black" cx="475" cy="-466" rx="27" ry="18"/>
<text text-anchor="middle" x="475" y="-462.3" font-family="Times New Roman,serif" font-size="14.00">[]</text>
</g>
<!-- N2097514481&#45;&gt;N674483268 -->
<g id="edge51" class="edge">
<title>N2097514481&#45;&gt;N674483268</title>
<path fill="none" stroke="black" d="M475,-519.7C475,-511.98 475,-502.71 475,-494.11"/>
<polygon fill="black" stroke="black" points="478.5,-494.1 475,-484.1 471.5,-494.1 478.5,-494.1"/>
</g>
<!-- N54495403 -->
<g id="node54" class="node">
<title>N54495403</title>
<ellipse fill="#fafafa" stroke="black" cx="560" cy="-466" rx="39.79" ry="18"/>
<text text-anchor="middle" x="560" y="-462.3" font-family="Times New Roman,serif" font-size="14.00">argc(...)</text>
</g>
<!-- N2097514481&#45;&gt;N54495403 -->
<g id="edge52" class="edge">
<title>N2097514481&#45;&gt;N54495403</title>
<path fill="none" stroke="black" d="M491.39,-523.5C503.41,-513.61 519.97,-499.96 533.81,-488.56"/>
<polygon fill="black" stroke="black" points="536.1,-491.22 541.6,-482.16 531.65,-485.81 536.1,-491.22"/>
</g>
<!-- N1325808650 -->
<g id="node9" class="node">
<title>N1325808650</title>
<ellipse fill="#fafafa" stroke="black" cx="108" cy="-394" rx="27" ry="18"/>
<text text-anchor="middle" x="108" y="-390.3" font-family="Times New Roman,serif" font-size="14.00">:=</text>
</g>
<!-- N706197430&#45;&gt;N1325808650 -->
<g id="edge7" class="edge">
<title>N706197430&#45;&gt;N1325808650</title>
<path fill="none" stroke="black" d="M113.27,-447.7C112.5,-439.98 111.57,-430.71 110.71,-422.11"/>
<polygon fill="black" stroke="black" points="114.19,-421.71 109.71,-412.1 107.22,-422.4 114.19,-421.71"/>
</g>
<!-- N510464020 -->
<g id="node10" class="node">
<title>N510464020</title>
<ellipse fill="#fafafa" stroke="black" cx="180" cy="-394" rx="27" ry="18"/>
<text text-anchor="middle" x="180" y="-390.3" font-family="Times New Roman,serif" font-size="14.00">&gt;</text>
</g>
<!-- N706197430&#45;&gt;N510464020 -->
<g id="edge8" class="edge">
<title>N706197430&#45;&gt;N510464020</title>
<path fill="none" stroke="black" d="M128.78,-450.15C137.66,-440.6 149.36,-427.99 159.34,-417.25"/>
<polygon fill="black" stroke="black" points="162,-419.53 166.24,-409.82 156.87,-414.77 162,-419.53"/>
</g>
<!-- N1987083830 -->
<g id="node11" class="node">
<title>N1987083830</title>
<ellipse fill="#fafafa" stroke="black" cx="46" cy="-322" rx="27" ry="18"/>
<text text-anchor="middle" x="46" y="-318.3" font-family="Times New Roman,serif" font-size="14.00">&lt;</text>
</g>
<!-- N1325808650&#45;&gt;N1987083830 -->
<g id="edge9" class="edge">
<title>N1325808650&#45;&gt;N1987083830</title>
<path fill="none" stroke="black" d="M94.85,-378.15C86.47,-368.69 75.44,-356.24 65.98,-345.56"/>
<polygon fill="black" stroke="black" points="68.38,-342.99 59.13,-337.82 63.14,-347.63 68.38,-342.99"/>
</g>
<!-- N1632492873 -->
<g id="node12" class="node">
<title>N1632492873</title>
<ellipse fill="#fafafa" stroke="black" cx="120" cy="-322" rx="29.5" ry="18"/>
<text text-anchor="middle" x="120" y="-318.3" font-family="Times New Roman,serif" font-size="14.00">&#45;14.7</text>
</g>
<!-- N1325808650&#45;&gt;N1632492873 -->
<g id="edge10" class="edge">
<title>N1325808650&#45;&gt;N1632492873</title>
<path fill="none" stroke="black" d="M110.9,-376.05C112.23,-368.35 113.82,-359.03 115.31,-350.36"/>
<polygon fill="black" stroke="black" points="118.8,-350.72 117.04,-340.28 111.9,-349.54 118.8,-350.72"/>
</g>
<!-- N473581465 -->
<g id="node15" class="node">
<title>N473581465</title>
<ellipse fill="#fafafa" stroke="black" cx="195" cy="-322" rx="27" ry="18"/>
<text text-anchor="middle" x="195" y="-318.3" font-family="Times New Roman,serif" font-size="14.00">*</text>
</g>
<!-- N510464020&#45;&gt;N473581465 -->
<g id="edge13" class="edge">
<title>N510464020&#45;&gt;N473581465</title>
<path fill="none" stroke="black" d="M183.63,-376.05C185.3,-368.26 187.32,-358.82 189.2,-350.08"/>
<polygon fill="black" stroke="black" points="192.63,-350.79 191.3,-340.28 185.78,-349.32 192.63,-350.79"/>
</g>
<!-- N319977154 -->
<g id="node16" class="node">
<title>N319977154</title>
<ellipse fill="#fafafa" stroke="black" cx="304" cy="-322" rx="27" ry="18"/>
<text text-anchor="middle" x="304" y="-318.3" font-family="Times New Roman,serif" font-size="14.00">+</text>
</g>
<!-- N510464020&#45;&gt;N319977154 -->
<g id="edge14" class="edge">
<title>N510464020&#45;&gt;N319977154</title>
<path fill="none" stroke="black" d="M199.92,-381.75C220.26,-370.27 252.04,-352.33 275.13,-339.3"/>
<polygon fill="black" stroke="black" points="277.14,-342.18 284.13,-334.22 273.7,-336.09 277.14,-342.18"/>
</g>
<!-- N525683462 -->
<g id="node13" class="node">
<title>N525683462</title>
<ellipse fill="#fafafa" stroke="black" cx="45" cy="-250" rx="29.5" ry="18"/>
<text text-anchor="middle" x="45" y="-246.3" font-family="Times New Roman,serif" font-size="14.00">&#45;28.0</text>
</g>
<!-- N1987083830&#45;&gt;N525683462 -->
<g id="edge11" class="edge">
<title>N1987083830&#45;&gt;N525683462</title>
<path fill="none" stroke="black" d="M45.75,-303.7C45.64,-295.98 45.51,-286.71 45.39,-278.11"/>
<polygon fill="black" stroke="black" points="48.89,-278.05 45.24,-268.1 41.89,-278.15 48.89,-278.05"/>
</g>
<!-- N1766724936 -->
<g id="node14" class="node">
<title>N1766724936</title>
<ellipse fill="#fafafa" stroke="black" cx="121" cy="-250" rx="29.5" ry="18"/>
<text text-anchor="middle" x="121" y="-246.3" font-family="Times New Roman,serif" font-size="14.00">&#45;20.2</text>
</g>
<!-- N1987083830&#45;&gt;N1766724936 -->
<g id="edge12" class="edge">
<title>N1987083830&#45;&gt;N1766724936</title>
<path fill="none" stroke="black" d="M61.18,-306.83C71.78,-296.94 86.13,-283.55 98.12,-272.36"/>
<polygon fill="black" stroke="black" points="100.67,-274.77 105.59,-265.38 95.89,-269.65 100.67,-274.77"/>
</g>
<!-- N648680157 -->
<g id="node17" class="node">
<title>N648680157</title>
<ellipse fill="#fafafa" stroke="black" cx="195" cy="-250" rx="27" ry="18"/>
<text text-anchor="middle" x="195" y="-246.3" font-family="Times New Roman,serif" font-size="14.00">6.2</text>
</g>
<!-- N473581465&#45;&gt;N648680157 -->
<g id="edge15" class="edge">
<title>N473581465&#45;&gt;N648680157</title>
<path fill="none" stroke="black" d="M195,-303.7C195,-295.98 195,-286.71 195,-278.11"/>
<polygon fill="black" stroke="black" points="198.5,-278.1 195,-268.1 191.5,-278.1 198.5,-278.1"/>
</g>
<!-- N1071097621 -->
<g id="node18" class="node">
<title>N1071097621</title>
<ellipse fill="#fafafa" stroke="black" cx="269" cy="-250" rx="29.5" ry="18"/>
<text text-anchor="middle" x="269" y="-246.3" font-family="Times New Roman,serif" font-size="14.00">&#45;43.6</text>
</g>
<!-- N473581465&#45;&gt;N1071097621 -->
<g id="edge16" class="edge">
<title>N473581465&#45;&gt;N1071097621</title>
<path fill="none" stroke="black" d="M209.98,-306.83C220.44,-296.94 234.59,-283.55 246.42,-272.36"/>
<polygon fill="black" stroke="black" points="248.93,-274.8 253.79,-265.38 244.12,-269.71 248.93,-274.8"/>
</g>
<!-- N1897871865 -->
<g id="node19" class="node">
<title>N1897871865</title>
<ellipse fill="#fafafa" stroke="black" cx="343" cy="-250" rx="27" ry="18"/>
<text text-anchor="middle" x="343" y="-246.3" font-family="Times New Roman,serif" font-size="14.00">|</text>
</g>
<!-- N319977154&#45;&gt;N1897871865 -->
<g id="edge17" class="edge">
<title>N319977154&#45;&gt;N1897871865</title>
<path fill="none" stroke="black" d="M313.05,-304.76C317.82,-296.19 323.78,-285.49 329.13,-275.9"/>
<polygon fill="black" stroke="black" points="332.19,-277.59 334,-267.15 326.08,-274.18 332.19,-277.59"/>
</g>
<!-- N1908143486 -->
<g id="node20" class="node">
<title>N1908143486</title>
<ellipse fill="#fafafa" stroke="black" cx="415" cy="-250" rx="27" ry="18"/>
<text text-anchor="middle" x="415" y="-246.3" font-family="Times New Roman,serif" font-size="14.00">~=</text>
</g>
<!-- N319977154&#45;&gt;N1908143486 -->
<g id="edge18" class="edge">
<title>N319977154&#45;&gt;N1908143486</title>
<path fill="none" stroke="black" d="M323.08,-308.97C340.71,-297.85 367.12,-281.19 387.12,-268.58"/>
<polygon fill="black" stroke="black" points="389.2,-271.41 395.8,-263.11 385.47,-265.48 389.2,-271.41"/>
</g>
<!-- N133250414 -->
<g id="node21" class="node">
<title>N133250414</title>
<ellipse fill="#fafafa" stroke="black" cx="175" cy="-178" rx="29.5" ry="18"/>
<text text-anchor="middle" x="175" y="-174.3" font-family="Times New Roman,serif" font-size="14.00">&#45;42.9</text>
</g>
<!-- N1897871865&#45;&gt;N133250414 -->
<g id="edge19" class="edge">
<title>N1897871865&#45;&gt;N133250414</title>
<path fill="none" stroke="black" d="M321.8,-238.66C316.97,-236.4 311.83,-234.06 307,-232 265.86,-214.44 254.32,-213.14 213,-196 211.15,-195.23 209.25,-194.43 207.34,-193.61"/>
<polygon fill="black" stroke="black" points="208.38,-190.25 197.82,-189.45 205.58,-196.66 208.38,-190.25"/>
</g>
<!-- N85777802 -->
<g id="node22" class="node">
<title>N85777802</title>
<ellipse fill="#fafafa" stroke="black" cx="249" cy="-178" rx="27" ry="18"/>
<text text-anchor="middle" x="249" y="-174.3" font-family="Times New Roman,serif" font-size="14.00">~=</text>
</g>
<!-- N1897871865&#45;&gt;N85777802 -->
<g id="edge20" class="edge">
<title>N1897871865&#45;&gt;N85777802</title>
<path fill="none" stroke="black" d="M325.32,-235.83C311.05,-225.21 290.78,-210.11 274.71,-198.15"/>
<polygon fill="black" stroke="black" points="276.39,-195.04 266.28,-191.87 272.21,-200.65 276.39,-195.04"/>
</g>
<!-- N762227630 -->
<g id="node25" class="node">
<title>N762227630</title>
<ellipse fill="#fafafa" stroke="black" cx="338" cy="-178" rx="29.5" ry="18"/>
<text text-anchor="middle" x="338" y="-174.3" font-family="Times New Roman,serif" font-size="14.00">&#45;45.4</text>
</g>
<!-- N1908143486&#45;&gt;N762227630 -->
<g id="edge23" class="edge">
<title>N1908143486&#45;&gt;N762227630</title>
<path fill="none" stroke="black" d="M399.42,-234.83C388.53,-224.94 373.8,-211.55 361.5,-200.36"/>
<polygon fill="black" stroke="black" points="363.58,-197.52 353.82,-193.38 358.87,-202.7 363.58,-197.52"/>
</g>
<!-- N1316864772 -->
<g id="node26" class="node">
<title>N1316864772</title>
<ellipse fill="#fafafa" stroke="black" cx="414" cy="-178" rx="29.5" ry="18"/>
<text text-anchor="middle" x="414" y="-174.3" font-family="Times New Roman,serif" font-size="14.00">&#45;98.5</text>
</g>
<!-- N1908143486&#45;&gt;N1316864772 -->
<g id="edge24" class="edge">
<title>N1908143486&#45;&gt;N1316864772</title>
<path fill="none" stroke="black" d="M414.75,-231.7C414.64,-223.98 414.51,-214.71 414.39,-206.11"/>
<polygon fill="black" stroke="black" points="417.89,-206.05 414.24,-196.1 410.89,-206.15 417.89,-206.05"/>
</g>
<!-- N222624801 -->
<g id="node23" class="node">
<title>N222624801</title>
<ellipse fill="#fafafa" stroke="black" cx="148" cy="-106" rx="27" ry="18"/>
<text text-anchor="middle" x="148" y="-102.3" font-family="Times New Roman,serif" font-size="14.00">84.5</text>
</g>
<!-- N85777802&#45;&gt;N222624801 -->
<g id="edge21" class="edge">
<title>N85777802&#45;&gt;N222624801</title>
<path fill="none" stroke="black" d="M230.94,-164.49C215.24,-153.6 192.28,-137.69 174.5,-125.37"/>
<polygon fill="black" stroke="black" points="176.45,-122.46 166.24,-119.64 172.47,-128.22 176.45,-122.46"/>
</g>
<!-- N603650290 -->
<g id="node24" class="node">
<title>N603650290</title>
<ellipse fill="#fafafa" stroke="black" cx="220" cy="-106" rx="27" ry="18"/>
<text text-anchor="middle" x="220" y="-102.3" font-family="Times New Roman,serif" font-size="14.00">25.7</text>
</g>
<!-- N85777802&#45;&gt;N603650290 -->
<g id="edge22" class="edge">
<title>N85777802&#45;&gt;N603650290</title>
<path fill="none" stroke="black" d="M242.13,-160.41C238.73,-152.22 234.56,-142.14 230.75,-132.95"/>
<polygon fill="black" stroke="black" points="233.88,-131.37 226.82,-123.47 227.42,-134.05 233.88,-131.37"/>
</g>
<!-- N407858146 -->
<g id="node31" class="node">
<title>N407858146</title>
<ellipse fill="#fafafa" stroke="black" cx="252" cy="-394" rx="27" ry="18"/>
<text text-anchor="middle" x="252" y="-390.3" font-family="Times New Roman,serif" font-size="14.00">[]</text>
</g>
<!-- N1213216872&#45;&gt;N407858146 -->
<g id="edge29" class="edge">
<title>N1213216872&#45;&gt;N407858146</title>
<path fill="none" stroke="black" d="M315.39,-451.17C303.92,-441.01 288.15,-427.03 275.21,-415.56"/>
<polygon fill="black" stroke="black" points="277.38,-412.81 267.58,-408.8 272.74,-418.05 277.38,-412.81"/>
</g>
<!-- N1454031203 -->
<g id="node32" class="node">
<title>N1454031203</title>
<ellipse fill="#fafafa" stroke="black" cx="337" cy="-394" rx="39.79" ry="18"/>
<text text-anchor="middle" x="337" y="-390.3" font-family="Times New Roman,serif" font-size="14.00">argc(...)</text>
</g>
<!-- N1213216872&#45;&gt;N1454031203 -->
<g id="edge30" class="edge">
<title>N1213216872&#45;&gt;N1454031203</title>
<path fill="none" stroke="black" d="M332.48,-447.7C333.14,-439.98 333.94,-430.71 334.68,-422.11"/>
<polygon fill="black" stroke="black" points="338.17,-422.37 335.53,-412.1 331.19,-421.77 338.17,-422.37"/>
</g>
<!-- N1511785794 -->
<g id="node34" class="node">
<title>N1511785794</title>
<ellipse fill="#fafafa" stroke="black" cx="422" cy="-394" rx="27" ry="18"/>
<text text-anchor="middle" x="422" y="-390.3" font-family="Times New Roman,serif" font-size="14.00">0.0</text>
</g>
<!-- N1754638213&#45;&gt;N1511785794 -->
<g id="edge32" class="edge">
<title>N1754638213&#45;&gt;N1511785794</title>
<path fill="none" stroke="black" d="M407.6,-448.05C409.75,-440.14 412.35,-430.54 414.76,-421.69"/>
<polygon fill="black" stroke="black" points="418.2,-422.36 417.44,-411.79 411.45,-420.52 418.2,-422.36"/>
</g>
<!-- N963601816 -->
<g id="node35" class="node">
<title>N963601816</title>
<ellipse fill="#fafafa" stroke="black" cx="494" cy="-394" rx="27" ry="18"/>
<text text-anchor="middle" x="494" y="-390.3" font-family="Times New Roman,serif" font-size="14.00">+</text>
</g>
<!-- N1754638213&#45;&gt;N963601816 -->
<g id="edge33" class="edge">
<title>N1754638213&#45;&gt;N963601816</title>
<path fill="none" stroke="black" d="M420.12,-451.83C433.84,-441.27 453.31,-426.3 468.82,-414.37"/>
<polygon fill="black" stroke="black" points="471.17,-416.98 476.96,-408.11 466.9,-411.43 471.17,-416.98"/>
</g>
<!-- N527446182 -->
<g id="node33" class="node">
<title>N527446182</title>
<ellipse fill="#fafafa" stroke="black" cx="376" cy="-322" rx="27" ry="18"/>
<text text-anchor="middle" x="376" y="-318.3" font-family="Times New Roman,serif" font-size="14.00">1.0</text>
</g>
<!-- N407858146&#45;&gt;N527446182 -->
<g id="edge31" class="edge">
<title>N407858146&#45;&gt;N527446182</title>
<path fill="none" stroke="black" d="M271.92,-381.75C292.26,-370.27 324.04,-352.33 347.13,-339.3"/>
<polygon fill="black" stroke="black" points="349.14,-342.18 356.13,-334.22 345.7,-336.09 349.14,-342.18"/>
</g>
<!-- N961419791 -->
<g id="node36" class="node">
<title>N961419791</title>
<ellipse fill="#fafafa" stroke="black" cx="482" cy="-322" rx="27" ry="18"/>
<text text-anchor="middle" x="482" y="-318.3" font-family="Times New Roman,serif" font-size="14.00">[]</text>
</g>
<!-- N963601816&#45;&gt;N961419791 -->
<g id="edge34" class="edge">
<title>N963601816&#45;&gt;N961419791</title>
<path fill="none" stroke="black" d="M491.1,-376.05C489.77,-368.35 488.18,-359.03 486.69,-350.36"/>
<polygon fill="black" stroke="black" points="490.1,-349.54 484.96,-340.28 483.2,-350.72 490.1,-349.54"/>
</g>
<!-- N665188480 -->
<g id="node37" class="node">
<title>N665188480</title>
<ellipse fill="#fafafa" stroke="black" cx="562" cy="-322" rx="35.19" ry="18"/>
<text text-anchor="middle" x="562" y="-318.3" font-family="Times New Roman,serif" font-size="14.00">arg(...)</text>
</g>
<!-- N963601816&#45;&gt;N665188480 -->
<g id="edge35" class="edge">
<title>N963601816&#45;&gt;N665188480</title>
<path fill="none" stroke="black" d="M508.09,-378.5C517.23,-369.09 529.34,-356.63 539.76,-345.9"/>
<polygon fill="black" stroke="black" points="542.53,-348.07 546.99,-338.46 537.51,-343.19 542.53,-348.07"/>
</g>
<!-- N489279267 -->
<g id="node38" class="node">
<title>N489279267</title>
<ellipse fill="#fafafa" stroke="black" cx="487" cy="-250" rx="27" ry="18"/>
<text text-anchor="middle" x="487" y="-246.3" font-family="Times New Roman,serif" font-size="14.00">0.0</text>
</g>
<!-- N961419791&#45;&gt;N489279267 -->
<g id="edge36" class="edge">
<title>N961419791&#45;&gt;N489279267</title>
<path fill="none" stroke="black" d="M483.24,-303.7C483.79,-295.98 484.45,-286.71 485.06,-278.11"/>
<polygon fill="black" stroke="black" points="488.56,-278.33 485.78,-268.1 481.57,-277.83 488.56,-278.33"/>
</g>
<!-- N1596467899 -->
<g id="node39" class="node">
<title>N1596467899</title>
<ellipse fill="#fafafa" stroke="black" cx="560" cy="-250" rx="27" ry="18"/>
<text text-anchor="middle" x="560" y="-246.3" font-family="Times New Roman,serif" font-size="14.00">+</text>
</g>
<!-- N665188480&#45;&gt;N1596467899 -->
<g id="edge37" class="edge">
<title>N665188480&#45;&gt;N1596467899</title>
<path fill="none" stroke="black" d="M561.51,-303.7C561.29,-295.98 561.02,-286.71 560.77,-278.11"/>
<polygon fill="black" stroke="black" points="564.27,-278 560.49,-268.1 557.28,-278.2 564.27,-278"/>
</g>
<!-- N377478451 -->
<g id="node40" class="node">
<title>N377478451</title>
<ellipse fill="#fafafa" stroke="black" cx="488" cy="-178" rx="27" ry="18"/>
<text text-anchor="middle" x="488" y="-174.3" font-family="Times New Roman,serif" font-size="14.00">:=</text>
</g>
<!-- N1596467899&#45;&gt;N377478451 -->
<g id="edge38" class="edge">
<title>N1596467899&#45;&gt;N377478451</title>
<path fill="none" stroke="black" d="M545.43,-234.83C535.25,-224.94 521.48,-211.55 509.97,-200.36"/>
<polygon fill="black" stroke="black" points="512.41,-197.85 502.8,-193.38 507.53,-202.87 512.41,-197.85"/>
</g>
<!-- N513169028 -->
<g id="node41" class="node">
<title>N513169028</title>
<ellipse fill="#fafafa" stroke="black" cx="560" cy="-178" rx="27" ry="18"/>
<text text-anchor="middle" x="560" y="-174.3" font-family="Times New Roman,serif" font-size="14.00">&#45;</text>
</g>
<!-- N1596467899&#45;&gt;N513169028 -->
<g id="edge39" class="edge">
<title>N1596467899&#45;&gt;N513169028</title>
<path fill="none" stroke="black" d="M560,-231.7C560,-223.98 560,-214.71 560,-206.11"/>
<polygon fill="black" stroke="black" points="563.5,-206.1 560,-196.1 556.5,-206.1 563.5,-206.1"/>
</g>
<!-- N1301664418 -->
<g id="node42" class="node">
<title>N1301664418</title>
<ellipse fill="#fafafa" stroke="black" cx="292" cy="-106" rx="27" ry="18"/>
<text text-anchor="middle" x="292" y="-102.3" font-family="Times New Roman,serif" font-size="14.00">:=</text>
</g>
<!-- N377478451&#45;&gt;N1301664418 -->
<g id="edge40" class="edge">
<title>N377478451&#45;&gt;N1301664418</title>
<path fill="none" stroke="black" d="M466.92,-166.36C462.08,-164.11 456.91,-161.86 452,-160 398.33,-139.68 381.67,-144.32 328,-124 326.16,-123.3 324.28,-122.55 322.4,-121.76"/>
<polygon fill="black" stroke="black" points="323.64,-118.49 313.08,-117.64 320.81,-124.89 323.64,-118.49"/>
</g>
<!-- N1408652377 -->
<g id="node43" class="node">
<title>N1408652377</title>
<ellipse fill="#fafafa" stroke="black" cx="364" cy="-106" rx="27" ry="18"/>
<text text-anchor="middle" x="364" y="-102.3" font-family="Times New Roman,serif" font-size="14.00">[]</text>
</g>
<!-- N377478451&#45;&gt;N1408652377 -->
<g id="edge41" class="edge">
<title>N377478451&#45;&gt;N1408652377</title>
<path fill="none" stroke="black" d="M468.08,-165.75C447.74,-154.27 415.96,-136.33 392.87,-123.3"/>
<polygon fill="black" stroke="black" points="394.3,-120.09 383.87,-118.22 390.86,-126.18 394.3,-120.09"/>
</g>
<!-- N366004251 -->
<g id="node47" class="node">
<title>N366004251</title>
<ellipse fill="#fafafa" stroke="black" cx="436" cy="-106" rx="27" ry="18"/>
<text text-anchor="middle" x="436" y="-102.3" font-family="Times New Roman,serif" font-size="14.00">+</text>
</g>
<!-- N513169028&#45;&gt;N366004251 -->
<g id="edge45" class="edge">
<title>N513169028&#45;&gt;N366004251</title>
<path fill="none" stroke="black" d="M540.08,-165.75C519.74,-154.27 487.96,-136.33 464.87,-123.3"/>
<polygon fill="black" stroke="black" points="466.3,-120.09 455.87,-118.22 462.86,-126.18 466.3,-120.09"/>
</g>
<!-- N1791868405 -->
<g id="node48" class="node">
<title>N1791868405</title>
<ellipse fill="#fafafa" stroke="black" cx="560" cy="-106" rx="27" ry="18"/>
<text text-anchor="middle" x="560" y="-102.3" font-family="Times New Roman,serif" font-size="14.00">~=</text>
</g>
<!-- N513169028&#45;&gt;N1791868405 -->
<g id="edge46" class="edge">
<title>N513169028&#45;&gt;N1791868405</title>
<path fill="none" stroke="black" d="M560,-159.7C560,-151.98 560,-142.71 560,-134.11"/>
<polygon fill="black" stroke="black" points="563.5,-134.1 560,-124.1 556.5,-134.1 563.5,-134.1"/>
</g>
<!-- N990416209 -->
<g id="node44" class="node">
<title>N990416209</title>
<ellipse fill="#fafafa" stroke="black" cx="123" cy="-34" rx="29.5" ry="18"/>
<text text-anchor="middle" x="123" y="-30.3" font-family="Times New Roman,serif" font-size="14.00">&#45;44.1</text>
</g>
<!-- N1301664418&#45;&gt;N990416209 -->
<g id="edge42" class="edge">
<title>N1301664418&#45;&gt;N990416209</title>
<path fill="none" stroke="black" d="M270.81,-94.65C265.97,-92.39 260.83,-90.05 256,-88 214.44,-70.35 202.74,-69.23 161,-52 159.15,-51.23 157.25,-50.44 155.34,-49.62"/>
<polygon fill="black" stroke="black" points="156.38,-46.26 145.81,-45.47 153.58,-52.67 156.38,-46.26"/>
</g>
<!-- N394714818 -->
<g id="node45" class="node">
<title>N394714818</title>
<ellipse fill="#fafafa" stroke="black" cx="199" cy="-34" rx="29.5" ry="18"/>
<text text-anchor="middle" x="199" y="-30.3" font-family="Times New Roman,serif" font-size="14.00">&#45;72.6</text>
</g>
<!-- N1301664418&#45;&gt;N394714818 -->
<g id="edge43" class="edge">
<title>N1301664418&#45;&gt;N394714818</title>
<path fill="none" stroke="black" d="M274.51,-91.83C260.57,-81.34 240.84,-66.49 225.04,-54.6"/>
<polygon fill="black" stroke="black" points="226.82,-51.56 216.73,-48.35 222.62,-57.16 226.82,-51.56"/>
</g>
<!-- N1952779858 -->
<g id="node46" class="node">
<title>N1952779858</title>
<ellipse fill="#fafafa" stroke="black" cx="273" cy="-34" rx="27" ry="18"/>
<text text-anchor="middle" x="273" y="-30.3" font-family="Times New Roman,serif" font-size="14.00">52.3</text>
</g>
<!-- N1408652377&#45;&gt;N1952779858 -->
<g id="edge44" class="edge">
<title>N1408652377&#45;&gt;N1952779858</title>
<path fill="none" stroke="black" d="M346.88,-91.83C333.16,-81.27 313.69,-66.3 298.18,-54.37"/>
<polygon fill="black" stroke="black" points="300.1,-51.43 290.04,-48.11 295.83,-56.98 300.1,-51.43"/>
</g>
<!-- N1260134048 -->
<g id="node49" class="node">
<title>N1260134048</title>
<ellipse fill="#fafafa" stroke="black" cx="347" cy="-34" rx="29.5" ry="18"/>
<text text-anchor="middle" x="347" y="-30.3" font-family="Times New Roman,serif" font-size="14.00">&#45;25.8</text>
</g>
<!-- N366004251&#45;&gt;N1260134048 -->
<g id="edge47" class="edge">
<title>N366004251&#45;&gt;N1260134048</title>
<path fill="none" stroke="black" d="M419.26,-91.83C406,-81.41 387.28,-66.68 372.21,-54.83"/>
<polygon fill="black" stroke="black" points="374.3,-52.02 364.27,-48.58 369.97,-57.52 374.3,-52.02"/>
</g>
<!-- N391618063 -->
<g id="node50" class="node">
<title>N391618063</title>
<ellipse fill="#fafafa" stroke="black" cx="421" cy="-34" rx="27" ry="18"/>
<text text-anchor="middle" x="421" y="-30.3" font-family="Times New Roman,serif" font-size="14.00">49.5</text>
</g>
<!-- N366004251&#45;&gt;N391618063 -->
<g id="edge48" class="edge">
<title>N366004251&#45;&gt;N391618063</title>
<path fill="none" stroke="black" d="M432.37,-88.05C430.7,-80.26 428.68,-70.82 426.8,-62.08"/>
<polygon fill="black" stroke="black" points="430.22,-61.32 424.7,-52.28 423.37,-62.79 430.22,-61.32"/>
</g>
<!-- N81009902 -->
<g id="node51" class="node">
<title>N81009902</title>
<ellipse fill="#fafafa" stroke="black" cx="495" cy="-34" rx="29.5" ry="18"/>
<text text-anchor="middle" x="495" y="-30.3" font-family="Times New Roman,serif" font-size="14.00">&#45;66.9</text>
</g>
<!-- N1791868405&#45;&gt;N81009902 -->
<g id="edge49" class="edge">
<title>N1791868405&#45;&gt;N81009902</title>
<path fill="none" stroke="black" d="M546.22,-90.15C537.46,-80.72 525.95,-68.33 516.07,-57.69"/>
<polygon fill="black" stroke="black" points="518.58,-55.25 509.21,-50.31 513.45,-60.02 518.58,-55.25"/>
</g>
<!-- N57748372 -->
<g id="node52" class="node">
<title>N57748372</title>
<ellipse fill="#fafafa" stroke="black" cx="571" cy="-34" rx="29.5" ry="18"/>
<text text-anchor="middle" x="571" y="-30.3" font-family="Times New Roman,serif" font-size="14.00">&#45;86.1</text>
</g>
<!-- N1791868405&#45;&gt;N57748372 -->
<g id="edge50" class="edge">
<title>N1791868405&#45;&gt;N57748372</title>
<path fill="none" stroke="black" d="M562.66,-88.05C563.87,-80.35 565.34,-71.03 566.7,-62.36"/>
<polygon fill="black" stroke="black" points="570.19,-62.7 568.29,-52.28 563.28,-61.61 570.19,-62.7"/>
</g>
<!-- N665372494 -->
<g id="node55" class="node">
<title>N665372494</title>
<ellipse fill="#fafafa" stroke="black" cx="566" cy="-394" rx="27" ry="18"/>
<text text-anchor="middle" x="566" y="-390.3" font-family="Times New Roman,serif" font-size="14.00">0.0</text>
</g>
<!-- N674483268&#45;&gt;N665372494 -->
<g id="edge53" class="edge">
<title>N674483268&#45;&gt;N665372494</title>
<path fill="none" stroke="black" d="M492.12,-451.83C505.84,-441.27 525.31,-426.3 540.82,-414.37"/>
<polygon fill="black" stroke="black" points="543.17,-416.98 548.96,-408.11 538.9,-411.43 543.17,-416.98"/>
</g>
</g>
</svg>
