<?xml version="1.0" encoding="UTF-8" standalone="no"?>
<!DOCTYPE svg PUBLIC "-//W3C//DTD SVG 1.1//EN"
 "http://www.w3.org/Graphics/SVG/1.1/DTD/svg11.dtd">
<!-- Generated by graphviz version 6.0.2 (20221011.1828)
 -->
<!-- Title: G Pages: 1 -->
<svg width="386pt" height="346pt"
 viewBox="0.00 0.00 386.00 346.00" xmlns="http://www.w3.org/2000/svg" xmlns:xlink="http://www.w3.org/1999/xlink">
<g id="graph0" class="graph" transform="scale(1 1) rotate(0) translate(4 342)">
<title>G</title>
<polygon fill="white" stroke="none" points="-4,4 -4,-342 382,-342 382,4 -4,4"/>
<g id="clust1" class="cluster">
<title>cluster_P1595953398</title>
<polygon fill="none" stroke="black" points="8,-8 8,-330 370,-330 370,-8 8,-8"/>
<text text-anchor="middle" x="189" y="-314.8" font-family="Times New Roman,serif" font-size="14.00">c</text>
</g>
<g id="clust2" class="cluster">
<title>cluster_Z2017354584</title>
<polygon fill="none" stroke="black" points="241,-224 241,-299 333,-299 333,-224 241,-224"/>
<text text-anchor="middle" x="287" y="-283.8" font-family="Times New Roman,serif" font-size="14.00">MEMLIMIT</text>
</g>
<!-- 64.0 -->
<g id="node1" class="node">
<title>64.0</title>
<polygon fill="lightgrey" stroke="black" points="287,-268 249.13,-250 287,-232 324.87,-250 287,-268"/>
<text text-anchor="middle" x="287" y="-246.3" font-family="Times New Roman,serif" font-size="14.00">64.0</text>
</g>
<!-- N1828757853 -->
<g id="node2" class="node">
<title>N1828757853</title>
<ellipse fill="#ff0000" stroke="black" cx="146" cy="-250" rx="27" ry="18"/>
<text text-anchor="middle" x="146" y="-246.3" font-family="Times New Roman,serif" font-size="14.00">&lt;</text>
</g>
<!-- N1374677625 -->
<g id="node3" class="node">
<title>N1374677625</title>
<ellipse fill="#ff0000" stroke="black" cx="117" cy="-178" rx="27" ry="18"/>
<text text-anchor="middle" x="117" y="-174.3" font-family="Times New Roman,serif" font-size="14.00">+</text>
</g>
<!-- N1828757853&#45;&gt;N1374677625 -->
<g id="edge1" class="edge">
<title>N1828757853&#45;&gt;N1374677625</title>
<path fill="none" stroke="black" d="M139.13,-232.41C135.73,-224.22 131.56,-214.14 127.75,-204.95"/>
<polygon fill="black" stroke="black" points="130.88,-203.37 123.82,-195.47 124.42,-206.05 130.88,-203.37"/>
</g>
<!-- N1345636186 -->
<g id="node4" class="node">
<title>N1345636186</title>
<ellipse fill="#0000ff" stroke="black" cx="227" cy="-178" rx="27" ry="18"/>
<text text-anchor="middle" x="227" y="-174.3" font-family="Times New Roman,serif" font-size="14.00">{}</text>
</g>
<!-- N1828757853&#45;&gt;N1345636186 -->
<g id="edge2" class="edge">
<title>N1828757853&#45;&gt;N1345636186</title>
<path fill="none" stroke="black" d="M162,-235.17C173.76,-225.01 189.94,-211.03 203.21,-199.56"/>
<polygon fill="black" stroke="black" points="205.75,-201.99 211.03,-192.8 201.18,-196.69 205.75,-201.99"/>
</g>
<!-- N963269035 -->
<g id="node5" class="node">
<title>N963269035</title>
<ellipse fill="#ff0000" stroke="black" cx="43" cy="-106" rx="27" ry="18"/>
<text text-anchor="middle" x="43" y="-102.3" font-family="Times New Roman,serif" font-size="14.00">88.0</text>
</g>
<!-- N1374677625&#45;&gt;N963269035 -->
<g id="edge3" class="edge">
<title>N1374677625&#45;&gt;N963269035</title>
<path fill="none" stroke="black" d="M102.02,-162.83C91.49,-152.87 77.22,-139.37 65.34,-128.14"/>
<polygon fill="black" stroke="black" points="67.62,-125.47 57.95,-121.14 62.81,-130.56 67.62,-125.47"/>
</g>
<!-- N1359484306 -->
<g id="node6" class="node">
<title>N1359484306</title>
<ellipse fill="#ff0000" stroke="black" cx="117" cy="-106" rx="29.5" ry="18"/>
<text text-anchor="middle" x="117" y="-102.3" font-family="Times New Roman,serif" font-size="14.00">&#45;87.6</text>
</g>
<!-- N1374677625&#45;&gt;N1359484306 -->
<g id="edge4" class="edge">
<title>N1374677625&#45;&gt;N1359484306</title>
<path fill="none" stroke="black" d="M117,-159.7C117,-151.98 117,-142.71 117,-134.11"/>
<polygon fill="black" stroke="black" points="120.5,-134.1 117,-124.1 113.5,-134.1 120.5,-134.1"/>
</g>
<!-- N2140832232 -->
<g id="node7" class="node">
<title>N2140832232</title>
<ellipse fill="#0000ff" stroke="black" cx="191" cy="-106" rx="27" ry="18"/>
<text text-anchor="middle" x="191" y="-102.3" font-family="Times New Roman,serif" font-size="14.00">&#45;</text>
</g>
<!-- N1345636186&#45;&gt;N2140832232 -->
<g id="edge5" class="edge">
<title>N1345636186&#45;&gt;N2140832232</title>
<path fill="none" stroke="black" d="M218.65,-160.76C214.29,-152.28 208.85,-141.71 203.96,-132.2"/>
<polygon fill="black" stroke="black" points="206.99,-130.44 199.3,-123.15 200.77,-133.64 206.99,-130.44"/>
</g>
<!-- N157456214 -->
<g id="node8" class="node">
<title>N157456214</title>
<ellipse fill="#0000ff" stroke="black" cx="263" cy="-106" rx="27" ry="18"/>
<text text-anchor="middle" x="263" y="-102.3" font-family="Times New Roman,serif" font-size="14.00">*</text>
</g>
<!-- N1345636186&#45;&gt;N157456214 -->
<g id="edge6" class="edge">
<title>N1345636186&#45;&gt;N157456214</title>
<path fill="none" stroke="black" d="M235.35,-160.76C239.71,-152.28 245.15,-141.71 250.04,-132.2"/>
<polygon fill="black" stroke="black" points="253.23,-133.64 254.7,-123.15 247.01,-130.44 253.23,-133.64"/>
</g>
<!-- N1659791576 -->
<g id="node9" class="node">
<title>N1659791576</title>
<ellipse fill="#0000ff" stroke="black" cx="335" cy="-106" rx="27" ry="18"/>
<text text-anchor="middle" x="335" y="-102.3" font-family="Times New Roman,serif" font-size="14.00">~=</text>
</g>
<!-- N1345636186&#45;&gt;N1659791576 -->
<g id="edge7" class="edge">
<title>N1345636186&#45;&gt;N1659791576</title>
<path fill="none" stroke="black" d="M245.81,-164.81C263,-153.67 288.62,-137.06 307.99,-124.5"/>
<polygon fill="black" stroke="black" points="309.92,-127.43 316.4,-119.05 306.11,-121.56 309.92,-127.43"/>
</g>
<!-- N1935365522 -->
<g id="node10" class="node">
<title>N1935365522</title>
<ellipse fill="#0000ff" stroke="black" cx="45" cy="-34" rx="29.5" ry="18"/>
<text text-anchor="middle" x="45" y="-30.3" font-family="Times New Roman,serif" font-size="14.00">&#45;82.1</text>
</g>
<!-- N2140832232&#45;&gt;N1935365522 -->
<g id="edge8" class="edge">
<title>N2140832232&#45;&gt;N1935365522</title>
<path fill="none" stroke="black" d="M169.77,-94.82C145.33,-83.1 104.93,-63.73 76.75,-50.22"/>
<polygon fill="black" stroke="black" points="78.23,-47.05 67.7,-45.88 75.2,-53.36 78.23,-47.05"/>
</g>
<!-- N1483022288 -->
<g id="node11" class="node">
<title>N1483022288</title>
<ellipse fill="#0000ff" stroke="black" cx="119" cy="-34" rx="27" ry="18"/>
<text text-anchor="middle" x="119" y="-30.3" font-family="Times New Roman,serif" font-size="14.00">34.4</text>
</g>
<!-- N157456214&#45;&gt;N1483022288 -->
<g id="edge9" class="edge">
<title>N157456214&#45;&gt;N1483022288</title>
<path fill="none" stroke="black" d="M241.75,-94.67C217.4,-82.83 177.28,-63.33 149.57,-49.86"/>
<polygon fill="black" stroke="black" points="150.86,-46.6 140.33,-45.37 147.8,-52.89 150.86,-46.6"/>
</g>
<!-- N1159785389 -->
<g id="node12" class="node">
<title>N1159785389</title>
<ellipse fill="#0000ff" stroke="black" cx="191" cy="-34" rx="27" ry="18"/>
<text text-anchor="middle" x="191" y="-30.3" font-family="Times New Roman,serif" font-size="14.00">71.2</text>
</g>
<!-- N157456214&#45;&gt;N1159785389 -->
<g id="edge10" class="edge">
<title>N157456214&#45;&gt;N1159785389</title>
<path fill="none" stroke="black" d="M248.43,-90.83C238.25,-80.94 224.48,-67.55 212.97,-56.36"/>
<polygon fill="black" stroke="black" points="215.41,-53.85 205.8,-49.38 210.53,-58.87 215.41,-53.85"/>
</g>
<!-- N1410986873 -->
<g id="node13" class="node">
<title>N1410986873</title>
<ellipse fill="#0000ff" stroke="black" cx="263" cy="-34" rx="27" ry="18"/>
<text text-anchor="middle" x="263" y="-30.3" font-family="Times New Roman,serif" font-size="14.00">34.5</text>
</g>
<!-- N1659791576&#45;&gt;N1410986873 -->
<g id="edge11" class="edge">
<title>N1659791576&#45;&gt;N1410986873</title>
<path fill="none" stroke="black" d="M320.43,-90.83C310.25,-80.94 296.48,-67.55 284.97,-56.36"/>
<polygon fill="black" stroke="black" points="287.41,-53.85 277.8,-49.38 282.53,-58.87 287.41,-53.85"/>
</g>
<!-- N2110245805 -->
<g id="node14" class="node">
<title>N2110245805</title>
<ellipse fill="#0000ff" stroke="black" cx="335" cy="-34" rx="27" ry="18"/>
<text text-anchor="middle" x="335" y="-30.3" font-family="Times New Roman,serif" font-size="14.00">52.2</text>
</g>
<!-- N1659791576&#45;&gt;N2110245805 -->
<g id="edge12" class="edge">
<title>N1659791576&#45;&gt;N2110245805</title>
<path fill="none" stroke="black" d="M335,-87.7C335,-79.98 335,-70.71 335,-62.11"/>
<polygon fill="black" stroke="black" points="338.5,-62.1 335,-52.1 331.5,-62.1 338.5,-62.1"/>
</g>
</g>
</svg>
