<?xml version="1.0" encoding="UTF-8" standalone="no"?>
<!DOCTYPE svg PUBLIC "-//W3C//DTD SVG 1.1//EN"
 "http://www.w3.org/Graphics/SVG/1.1/DTD/svg11.dtd">
<!-- Generated by graphviz version 6.0.2 (20221011.1828)
 -->
<!-- Title: G Pages: 1 -->
<svg width="910pt" height="850pt"
 viewBox="0.00 0.00 910.00 850.00" xmlns="http://www.w3.org/2000/svg" xmlns:xlink="http://www.w3.org/1999/xlink">
<g id="graph0" class="graph" transform="scale(1 1) rotate(0) translate(4 846)">
<title>G</title>
<polygon fill="white" stroke="none" points="-4,4 -4,-846 906,-846 906,4 -4,4"/>
<g id="clust1" class="cluster">
<title>cluster_P1286783232</title>
<polygon fill="none" stroke="black" points="8,-8 8,-834 894,-834 894,-8 8,-8"/>
<text text-anchor="middle" x="451" y="-818.8" font-family="Times New Roman,serif" font-size="14.00">avg</text>
</g>
<g id="clust2" class="cluster">
<title>cluster_Z1753447031</title>
<polygon fill="none" stroke="black" points="492,-728 492,-803 579,-803 579,-728 492,-728"/>
<text text-anchor="middle" x="535.5" y="-787.8" font-family="Times New Roman,serif" font-size="14.00">MEMLIMIT</text>
</g>
<!-- 2.0 -->
<g id="node1" class="node">
<title>2.0</title>
<polygon fill="lightgrey" stroke="black" points="534,-772 503,-754 534,-736 565,-754 534,-772"/>
<text text-anchor="middle" x="534" y="-750.3" font-family="Times New Roman,serif" font-size="14.00">2.0</text>
</g>
<!-- N1291113768 -->
<g id="node2" class="node">
<title>N1291113768</title>
<ellipse fill="#fafafa" stroke="black" cx="455" cy="-754" rx="27" ry="18"/>
<text text-anchor="middle" x="455" y="-750.3" font-family="Times New Roman,serif" font-size="14.00">{}</text>
</g>
<!-- N2005167404 -->
<g id="node3" class="node">
<title>N2005167404</title>
<ellipse fill="#fafafa" stroke="black" cx="272" cy="-682" rx="27" ry="18"/>
<text text-anchor="middle" x="272" y="-678.3" font-family="Times New Roman,serif" font-size="14.00">:=</text>
</g>
<!-- N1291113768&#45;&gt;N2005167404 -->
<g id="edge1" class="edge">
<title>N1291113768&#45;&gt;N2005167404</title>
<path fill="none" stroke="black" d="M432.19,-744.28C400.05,-731.98 341.26,-709.49 304.54,-695.45"/>
<polygon fill="black" stroke="black" points="305.4,-692.03 294.81,-691.72 302.9,-698.57 305.4,-692.03"/>
</g>
<!-- N1418385211 -->
<g id="node4" class="node">
<title>N1418385211</title>
<ellipse fill="#fafafa" stroke="black" cx="418" cy="-682" rx="27" ry="18"/>
<text text-anchor="middle" x="418" y="-678.3" font-family="Times New Roman,serif" font-size="14.00">:=</text>
</g>
<!-- N1291113768&#45;&gt;N1418385211 -->
<g id="edge2" class="edge">
<title>N1291113768&#45;&gt;N1418385211</title>
<path fill="none" stroke="black" d="M446.42,-736.76C441.94,-728.28 436.35,-717.71 431.32,-708.2"/>
<polygon fill="black" stroke="black" points="434.3,-706.35 426.54,-699.15 428.11,-709.62 434.3,-706.35"/>
</g>
<!-- N1282811396 -->
<g id="node5" class="node">
<title>N1282811396</title>
<ellipse fill="#fafafa" stroke="black" cx="492" cy="-682" rx="29.5" ry="18"/>
<text text-anchor="middle" x="492" y="-678.3" font-family="Times New Roman,serif" font-size="14.00">while</text>
</g>
<!-- N1291113768&#45;&gt;N1282811396 -->
<g id="edge3" class="edge">
<title>N1291113768&#45;&gt;N1282811396</title>
<path fill="none" stroke="black" d="M463.58,-736.76C468,-728.4 473.49,-718.02 478.47,-708.61"/>
<polygon fill="black" stroke="black" points="481.63,-710.11 483.21,-699.63 475.44,-706.84 481.63,-710.11"/>
</g>
<!-- N641853239 -->
<g id="node6" class="node">
<title>N641853239</title>
<ellipse fill="#fafafa" stroke="black" cx="685" cy="-682" rx="27" ry="18"/>
<text text-anchor="middle" x="685" y="-678.3" font-family="Times New Roman,serif" font-size="14.00">/</text>
</g>
<!-- N1291113768&#45;&gt;N641853239 -->
<g id="edge4" class="edge">
<title>N1291113768&#45;&gt;N641853239</title>
<path fill="none" stroke="black" d="M470.56,-739.07C475.8,-734.99 481.88,-730.86 488,-728 540.65,-703.44 607.61,-691.83 648.34,-686.69"/>
<polygon fill="black" stroke="black" points="648.84,-690.15 658.35,-685.49 648.01,-683.2 648.84,-690.15"/>
</g>
<!-- N1920467934 -->
<g id="node7" class="node">
<title>N1920467934</title>
<ellipse fill="#fafafa" stroke="black" cx="200" cy="-610" rx="27" ry="18"/>
<text text-anchor="middle" x="200" y="-606.3" font-family="Times New Roman,serif" font-size="14.00">0.0</text>
</g>
<!-- N2005167404&#45;&gt;N1920467934 -->
<g id="edge5" class="edge">
<title>N2005167404&#45;&gt;N1920467934</title>
<path fill="none" stroke="black" d="M257.43,-666.83C247.25,-656.94 233.48,-643.55 221.97,-632.36"/>
<polygon fill="black" stroke="black" points="224.41,-629.85 214.8,-625.38 219.53,-634.87 224.41,-629.85"/>
</g>
<!-- N1883840933 -->
<g id="node8" class="node">
<title>N1883840933</title>
<ellipse fill="#fafafa" stroke="black" cx="272" cy="-610" rx="27" ry="18"/>
<text text-anchor="middle" x="272" y="-606.3" font-family="Times New Roman,serif" font-size="14.00">&#45;</text>
</g>
<!-- N2005167404&#45;&gt;N1883840933 -->
<g id="edge6" class="edge">
<title>N2005167404&#45;&gt;N1883840933</title>
<path fill="none" stroke="black" d="M272,-663.7C272,-655.98 272,-646.71 272,-638.11"/>
<polygon fill="black" stroke="black" points="275.5,-638.1 272,-628.1 268.5,-638.1 275.5,-638.1"/>
</g>
<!-- N1484531981 -->
<g id="node41" class="node">
<title>N1484531981</title>
<ellipse fill="#fafafa" stroke="black" cx="347" cy="-610" rx="27" ry="18"/>
<text text-anchor="middle" x="347" y="-606.3" font-family="Times New Roman,serif" font-size="14.00">1.0</text>
</g>
<!-- N1418385211&#45;&gt;N1484531981 -->
<g id="edge39" class="edge">
<title>N1418385211&#45;&gt;N1484531981</title>
<path fill="none" stroke="black" d="M403.29,-666.5C393.39,-656.73 380.16,-643.69 369.01,-632.7"/>
<polygon fill="black" stroke="black" points="371.27,-630.01 361.69,-625.49 366.36,-635 371.27,-630.01"/>
</g>
<!-- N1159114532 -->
<g id="node42" class="node">
<title>N1159114532</title>
<ellipse fill="#fafafa" stroke="black" cx="419" cy="-610" rx="27" ry="18"/>
<text text-anchor="middle" x="419" y="-606.3" font-family="Times New Roman,serif" font-size="14.00">0.0</text>
</g>
<!-- N1418385211&#45;&gt;N1159114532 -->
<g id="edge40" class="edge">
<title>N1418385211&#45;&gt;N1159114532</title>
<path fill="none" stroke="black" d="M418.25,-663.7C418.36,-655.98 418.49,-646.71 418.61,-638.11"/>
<polygon fill="black" stroke="black" points="422.11,-638.15 418.76,-628.1 415.11,-638.05 422.11,-638.15"/>
</g>
<!-- N1256728724 -->
<g id="node43" class="node">
<title>N1256728724</title>
<ellipse fill="#fafafa" stroke="black" cx="492" cy="-610" rx="27" ry="18"/>
<text text-anchor="middle" x="492" y="-606.3" font-family="Times New Roman,serif" font-size="14.00">&lt;</text>
</g>
<!-- N1282811396&#45;&gt;N1256728724 -->
<g id="edge41" class="edge">
<title>N1282811396&#45;&gt;N1256728724</title>
<path fill="none" stroke="black" d="M492,-663.7C492,-655.98 492,-646.71 492,-638.11"/>
<polygon fill="black" stroke="black" points="495.5,-638.1 492,-628.1 488.5,-638.1 495.5,-638.1"/>
</g>
<!-- N1412925683 -->
<g id="node44" class="node">
<title>N1412925683</title>
<ellipse fill="#fafafa" stroke="black" cx="577" cy="-610" rx="27" ry="18"/>
<text text-anchor="middle" x="577" y="-606.3" font-family="Times New Roman,serif" font-size="14.00">:=</text>
</g>
<!-- N1282811396&#45;&gt;N1412925683 -->
<g id="edge42" class="edge">
<title>N1282811396&#45;&gt;N1412925683</title>
<path fill="none" stroke="black" d="M508.79,-667.17C521.33,-656.85 538.65,-642.58 552.7,-631.01"/>
<polygon fill="black" stroke="black" points="555.04,-633.62 560.53,-624.56 550.59,-628.22 555.04,-633.62"/>
</g>
<!-- N146305349 -->
<g id="node64" class="node">
<title>N146305349</title>
<ellipse fill="#fafafa" stroke="black" cx="685" cy="-610" rx="27" ry="18"/>
<text text-anchor="middle" x="685" y="-606.3" font-family="Times New Roman,serif" font-size="14.00">[]</text>
</g>
<!-- N641853239&#45;&gt;N146305349 -->
<g id="edge62" class="edge">
<title>N641853239&#45;&gt;N146305349</title>
<path fill="none" stroke="black" d="M685,-663.7C685,-655.98 685,-646.71 685,-638.11"/>
<polygon fill="black" stroke="black" points="688.5,-638.1 685,-628.1 681.5,-638.1 688.5,-638.1"/>
</g>
<!-- N1686369710 -->
<g id="node65" class="node">
<title>N1686369710</title>
<ellipse fill="#fafafa" stroke="black" cx="770" cy="-610" rx="39.79" ry="18"/>
<text text-anchor="middle" x="770" y="-606.3" font-family="Times New Roman,serif" font-size="14.00">argc(...)</text>
</g>
<!-- N641853239&#45;&gt;N1686369710 -->
<g id="edge63" class="edge">
<title>N641853239&#45;&gt;N1686369710</title>
<path fill="none" stroke="black" d="M701.39,-667.5C713.41,-657.61 729.97,-643.96 743.81,-632.56"/>
<polygon fill="black" stroke="black" points="746.1,-635.22 751.6,-626.16 741.65,-629.81 746.1,-635.22"/>
</g>
<!-- N233996206 -->
<g id="node9" class="node">
<title>N233996206</title>
<ellipse fill="#fafafa" stroke="black" cx="195" cy="-538" rx="27" ry="18"/>
<text text-anchor="middle" x="195" y="-534.3" font-family="Times New Roman,serif" font-size="14.00">:=</text>
</g>
<!-- N1883840933&#45;&gt;N233996206 -->
<g id="edge7" class="edge">
<title>N1883840933&#45;&gt;N233996206</title>
<path fill="none" stroke="black" d="M256.42,-594.83C245.39,-584.81 230.41,-571.19 218.01,-559.92"/>
<polygon fill="black" stroke="black" points="220.05,-557.04 210.3,-552.91 215.34,-562.22 220.05,-557.04"/>
</g>
<!-- N614685048 -->
<g id="node10" class="node">
<title>N614685048</title>
<ellipse fill="#fafafa" stroke="black" cx="272" cy="-538" rx="27" ry="18"/>
<text text-anchor="middle" x="272" y="-534.3" font-family="Times New Roman,serif" font-size="14.00">&gt;</text>
</g>
<!-- N1883840933&#45;&gt;N614685048 -->
<g id="edge8" class="edge">
<title>N1883840933&#45;&gt;N614685048</title>
<path fill="none" stroke="black" d="M272,-591.7C272,-583.98 272,-574.71 272,-566.11"/>
<polygon fill="black" stroke="black" points="275.5,-566.1 272,-556.1 268.5,-566.1 275.5,-566.1"/>
</g>
<!-- N385337537 -->
<g id="node11" class="node">
<title>N385337537</title>
<ellipse fill="#fafafa" stroke="black" cx="121" cy="-466" rx="27" ry="18"/>
<text text-anchor="middle" x="121" y="-462.3" font-family="Times New Roman,serif" font-size="14.00">&lt;</text>
</g>
<!-- N233996206&#45;&gt;N385337537 -->
<g id="edge9" class="edge">
<title>N233996206&#45;&gt;N385337537</title>
<path fill="none" stroke="black" d="M180.02,-522.83C169.49,-512.87 155.22,-499.37 143.34,-488.14"/>
<polygon fill="black" stroke="black" points="145.62,-485.47 135.95,-481.14 140.81,-490.56 145.62,-485.47"/>
</g>
<!-- N789219251 -->
<g id="node12" class="node">
<title>N789219251</title>
<ellipse fill="#fafafa" stroke="black" cx="195" cy="-466" rx="29.5" ry="18"/>
<text text-anchor="middle" x="195" y="-462.3" font-family="Times New Roman,serif" font-size="14.00">&#45;14.7</text>
</g>
<!-- N233996206&#45;&gt;N789219251 -->
<g id="edge10" class="edge">
<title>N233996206&#45;&gt;N789219251</title>
<path fill="none" stroke="black" d="M195,-519.7C195,-511.98 195,-502.71 195,-494.11"/>
<polygon fill="black" stroke="black" points="198.5,-494.1 195,-484.1 191.5,-494.1 198.5,-494.1"/>
</g>
<!-- N668210649 -->
<g id="node15" class="node">
<title>N668210649</title>
<ellipse fill="#fafafa" stroke="black" cx="269" cy="-466" rx="27" ry="18"/>
<text text-anchor="middle" x="269" y="-462.3" font-family="Times New Roman,serif" font-size="14.00">*</text>
</g>
<!-- N614685048&#45;&gt;N668210649 -->
<g id="edge13" class="edge">
<title>N614685048&#45;&gt;N668210649</title>
<path fill="none" stroke="black" d="M271.26,-519.7C270.93,-511.98 270.53,-502.71 270.16,-494.11"/>
<polygon fill="black" stroke="black" points="273.66,-493.95 269.73,-484.1 266.66,-494.25 273.66,-493.95"/>
</g>
<!-- N1545087375 -->
<g id="node16" class="node">
<title>N1545087375</title>
<ellipse fill="#fafafa" stroke="black" cx="342" cy="-466" rx="27" ry="18"/>
<text text-anchor="middle" x="342" y="-462.3" font-family="Times New Roman,serif" font-size="14.00">+</text>
</g>
<!-- N614685048&#45;&gt;N1545087375 -->
<g id="edge14" class="edge">
<title>N614685048&#45;&gt;N1545087375</title>
<path fill="none" stroke="black" d="M286.5,-522.5C296.27,-512.73 309.31,-499.69 320.3,-488.7"/>
<polygon fill="black" stroke="black" points="322.92,-491.03 327.51,-481.49 317.97,-486.08 322.92,-491.03"/>
</g>
<!-- N832279283 -->
<g id="node13" class="node">
<title>N832279283</title>
<ellipse fill="#fafafa" stroke="black" cx="45" cy="-394" rx="29.5" ry="18"/>
<text text-anchor="middle" x="45" y="-390.3" font-family="Times New Roman,serif" font-size="14.00">&#45;28.0</text>
</g>
<!-- N385337537&#45;&gt;N832279283 -->
<g id="edge11" class="edge">
<title>N385337537&#45;&gt;N832279283</title>
<path fill="none" stroke="black" d="M105.62,-450.83C94.88,-440.94 80.34,-427.55 68.19,-416.36"/>
<polygon fill="black" stroke="black" points="70.34,-413.59 60.62,-409.38 65.6,-418.73 70.34,-413.59"/>
</g>
<!-- N265119009 -->
<g id="node14" class="node">
<title>N265119009</title>
<ellipse fill="#fafafa" stroke="black" cx="121" cy="-394" rx="29.5" ry="18"/>
<text text-anchor="middle" x="121" y="-390.3" font-family="Times New Roman,serif" font-size="14.00">&#45;20.2</text>
</g>
<!-- N385337537&#45;&gt;N265119009 -->
<g id="edge12" class="edge">
<title>N385337537&#45;&gt;N265119009</title>
<path fill="none" stroke="black" d="M121,-447.7C121,-439.98 121,-430.71 121,-422.11"/>
<polygon fill="black" stroke="black" points="124.5,-422.1 121,-412.1 117.5,-422.1 124.5,-422.1"/>
</g>
<!-- N838411509 -->
<g id="node17" class="node">
<title>N838411509</title>
<ellipse fill="#fafafa" stroke="black" cx="195" cy="-394" rx="27" ry="18"/>
<text text-anchor="middle" x="195" y="-390.3" font-family="Times New Roman,serif" font-size="14.00">6.2</text>
</g>
<!-- N668210649&#45;&gt;N838411509 -->
<g id="edge15" class="edge">
<title>N668210649&#45;&gt;N838411509</title>
<path fill="none" stroke="black" d="M254.02,-450.83C243.49,-440.87 229.22,-427.37 217.34,-416.14"/>
<polygon fill="black" stroke="black" points="219.62,-413.47 209.95,-409.14 214.81,-418.56 219.62,-413.47"/>
</g>
<!-- N1434041222 -->
<g id="node18" class="node">
<title>N1434041222</title>
<ellipse fill="#fafafa" stroke="black" cx="269" cy="-394" rx="29.5" ry="18"/>
<text text-anchor="middle" x="269" y="-390.3" font-family="Times New Roman,serif" font-size="14.00">&#45;43.6</text>
</g>
<!-- N668210649&#45;&gt;N1434041222 -->
<g id="edge16" class="edge">
<title>N668210649&#45;&gt;N1434041222</title>
<path fill="none" stroke="black" d="M269,-447.7C269,-439.98 269,-430.71 269,-422.11"/>
<polygon fill="black" stroke="black" points="272.5,-422.1 269,-412.1 265.5,-422.1 272.5,-422.1"/>
</g>
<!-- N1375995437 -->
<g id="node19" class="node">
<title>N1375995437</title>
<ellipse fill="#fafafa" stroke="black" cx="343" cy="-394" rx="27" ry="18"/>
<text text-anchor="middle" x="343" y="-390.3" font-family="Times New Roman,serif" font-size="14.00">|</text>
</g>
<!-- N1545087375&#45;&gt;N1375995437 -->
<g id="edge17" class="edge">
<title>N1545087375&#45;&gt;N1375995437</title>
<path fill="none" stroke="black" d="M342.25,-447.7C342.36,-439.98 342.49,-430.71 342.61,-422.11"/>
<polygon fill="black" stroke="black" points="346.11,-422.15 342.76,-412.1 339.11,-422.05 346.11,-422.15"/>
</g>
<!-- N1338841523 -->
<g id="node20" class="node">
<title>N1338841523</title>
<ellipse fill="#fafafa" stroke="black" cx="415" cy="-394" rx="27" ry="18"/>
<text text-anchor="middle" x="415" y="-390.3" font-family="Times New Roman,serif" font-size="14.00">~=</text>
</g>
<!-- N1545087375&#45;&gt;N1338841523 -->
<g id="edge18" class="edge">
<title>N1545087375&#45;&gt;N1338841523</title>
<path fill="none" stroke="black" d="M356.77,-450.83C367.16,-440.87 381.24,-427.37 392.96,-416.14"/>
<polygon fill="black" stroke="black" points="395.45,-418.59 400.25,-409.14 390.61,-413.54 395.45,-418.59"/>
</g>
<!-- N929776179 -->
<g id="node21" class="node">
<title>N929776179</title>
<ellipse fill="#fafafa" stroke="black" cx="45" cy="-322" rx="29.5" ry="18"/>
<text text-anchor="middle" x="45" y="-318.3" font-family="Times New Roman,serif" font-size="14.00">&#45;42.9</text>
</g>
<!-- N1375995437&#45;&gt;N929776179 -->
<g id="edge19" class="edge">
<title>N1375995437&#45;&gt;N929776179</title>
<path fill="none" stroke="black" d="M322.46,-382.09C317.5,-379.8 312.15,-377.59 307,-376 210.68,-346.18 179.62,-368.83 83,-340 80.86,-339.36 78.69,-338.63 76.51,-337.84"/>
<polygon fill="black" stroke="black" points="77.72,-334.55 67.13,-334.07 75.11,-341.04 77.72,-334.55"/>
</g>
<!-- N802581203 -->
<g id="node22" class="node">
<title>N802581203</title>
<ellipse fill="#fafafa" stroke="black" cx="119" cy="-322" rx="27" ry="18"/>
<text text-anchor="middle" x="119" y="-318.3" font-family="Times New Roman,serif" font-size="14.00">~=</text>
</g>
<!-- N1375995437&#45;&gt;N802581203 -->
<g id="edge20" class="edge">
<title>N1375995437&#45;&gt;N802581203</title>
<path fill="none" stroke="black" d="M322.37,-382.36C317.42,-380.06 312.09,-377.78 307,-376 241.48,-353.05 220.52,-362.95 155,-340 153.09,-339.33 151.15,-338.59 149.21,-337.81"/>
<polygon fill="black" stroke="black" points="150.2,-334.43 139.63,-333.64 147.4,-340.84 150.2,-334.43"/>
</g>
<!-- N520232556 -->
<g id="node39" class="node">
<title>N520232556</title>
<ellipse fill="#fafafa" stroke="black" cx="193" cy="-322" rx="29.5" ry="18"/>
<text text-anchor="middle" x="193" y="-318.3" font-family="Times New Roman,serif" font-size="14.00">&#45;45.4</text>
</g>
<!-- N1338841523&#45;&gt;N520232556 -->
<g id="edge37" class="edge">
<title>N1338841523&#45;&gt;N520232556</title>
<path fill="none" stroke="black" d="M394.36,-382.38C389.41,-380.08 384.08,-377.8 379,-376 315.18,-353.43 295.05,-361.91 231,-340 228.89,-339.28 226.73,-338.48 224.58,-337.64"/>
<polygon fill="black" stroke="black" points="225.81,-334.36 215.23,-333.76 223.12,-340.83 225.81,-334.36"/>
</g>
<!-- N17037394 -->
<g id="node40" class="node">
<title>N17037394</title>
<ellipse fill="#fafafa" stroke="black" cx="269" cy="-322" rx="29.5" ry="18"/>
<text text-anchor="middle" x="269" y="-318.3" font-family="Times New Roman,serif" font-size="14.00">&#45;98.5</text>
</g>
<!-- N1338841523&#45;&gt;N17037394 -->
<g id="edge38" class="edge">
<title>N1338841523&#45;&gt;N17037394</title>
<path fill="none" stroke="black" d="M393.77,-382.82C369.33,-371.1 328.93,-351.73 300.75,-338.22"/>
<polygon fill="black" stroke="black" points="302.23,-335.05 291.7,-333.88 299.2,-341.36 302.23,-335.05"/>
</g>
<!-- N1561408618 -->
<g id="node23" class="node">
<title>N1561408618</title>
<ellipse fill="#fafafa" stroke="black" cx="119" cy="-250" rx="27" ry="18"/>
<text text-anchor="middle" x="119" y="-246.3" font-family="Times New Roman,serif" font-size="14.00">{}</text>
</g>
<!-- N802581203&#45;&gt;N1561408618 -->
<g id="edge21" class="edge">
<title>N802581203&#45;&gt;N1561408618</title>
<path fill="none" stroke="black" d="M119,-303.7C119,-295.98 119,-286.71 119,-278.11"/>
<polygon fill="black" stroke="black" points="122.5,-278.1 119,-268.1 115.5,-278.1 122.5,-278.1"/>
</g>
<!-- N2050404090 -->
<g id="node24" class="node">
<title>N2050404090</title>
<ellipse fill="#fafafa" stroke="black" cx="191" cy="-250" rx="27" ry="18"/>
<text text-anchor="middle" x="191" y="-246.3" font-family="Times New Roman,serif" font-size="14.00">25.7</text>
</g>
<!-- N802581203&#45;&gt;N2050404090 -->
<g id="edge22" class="edge">
<title>N802581203&#45;&gt;N2050404090</title>
<path fill="none" stroke="black" d="M133.57,-306.83C143.75,-296.94 157.52,-283.55 169.03,-272.36"/>
<polygon fill="black" stroke="black" points="171.47,-274.87 176.2,-265.38 166.59,-269.85 171.47,-274.87"/>
</g>
<!-- N388043093 -->
<g id="node25" class="node">
<title>N388043093</title>
<ellipse fill="#fafafa" stroke="black" cx="119" cy="-178" rx="27" ry="18"/>
<text text-anchor="middle" x="119" y="-174.3" font-family="Times New Roman,serif" font-size="14.00">&lt;</text>
</g>
<!-- N1561408618&#45;&gt;N388043093 -->
<g id="edge23" class="edge">
<title>N1561408618&#45;&gt;N388043093</title>
<path fill="none" stroke="black" d="M119,-231.7C119,-223.98 119,-214.71 119,-206.11"/>
<polygon fill="black" stroke="black" points="122.5,-206.1 119,-196.1 115.5,-206.1 122.5,-206.1"/>
</g>
<!-- N188576144 -->
<g id="node26" class="node">
<title>N188576144</title>
<ellipse fill="#fafafa" stroke="black" cx="191" cy="-178" rx="27" ry="18"/>
<text text-anchor="middle" x="191" y="-174.3" font-family="Times New Roman,serif" font-size="14.00">+</text>
</g>
<!-- N1561408618&#45;&gt;N188576144 -->
<g id="edge24" class="edge">
<title>N1561408618&#45;&gt;N188576144</title>
<path fill="none" stroke="black" d="M133.57,-234.83C143.75,-224.94 157.52,-211.55 169.03,-200.36"/>
<polygon fill="black" stroke="black" points="171.47,-202.87 176.2,-193.38 166.59,-197.85 171.47,-202.87"/>
</g>
<!-- N1608230649 -->
<g id="node27" class="node">
<title>N1608230649</title>
<ellipse fill="#fafafa" stroke="black" cx="304" cy="-178" rx="27" ry="18"/>
<text text-anchor="middle" x="304" y="-174.3" font-family="Times New Roman,serif" font-size="14.00">[]</text>
</g>
<!-- N1561408618&#45;&gt;N1608230649 -->
<g id="edge25" class="edge">
<title>N1561408618&#45;&gt;N1608230649</title>
<path fill="none" stroke="black" d="M140.16,-238.58C145,-236.32 150.14,-234 155,-232 194.1,-215.86 240.11,-199.95 270.55,-189.84"/>
<polygon fill="black" stroke="black" points="271.84,-193.1 280.24,-186.64 269.65,-186.45 271.84,-193.1"/>
</g>
<!-- N282432134 -->
<g id="node28" class="node">
<title>N282432134</title>
<ellipse fill="#fafafa" stroke="black" cx="46" cy="-106" rx="27" ry="18"/>
<text text-anchor="middle" x="46" y="-102.3" font-family="Times New Roman,serif" font-size="14.00">&#45;</text>
</g>
<!-- N388043093&#45;&gt;N282432134 -->
<g id="edge26" class="edge">
<title>N388043093&#45;&gt;N282432134</title>
<path fill="none" stroke="black" d="M104.23,-162.83C93.84,-152.87 79.76,-139.37 68.04,-128.14"/>
<polygon fill="black" stroke="black" points="70.39,-125.54 60.75,-121.14 65.55,-130.59 70.39,-125.54"/>
</g>
<!-- N266437232 -->
<g id="node29" class="node">
<title>N266437232</title>
<ellipse fill="#fafafa" stroke="black" cx="119" cy="-106" rx="27" ry="18"/>
<text text-anchor="middle" x="119" y="-102.3" font-family="Times New Roman,serif" font-size="14.00">[]</text>
</g>
<!-- N388043093&#45;&gt;N266437232 -->
<g id="edge27" class="edge">
<title>N388043093&#45;&gt;N266437232</title>
<path fill="none" stroke="black" d="M119,-159.7C119,-151.98 119,-142.71 119,-134.11"/>
<polygon fill="black" stroke="black" points="122.5,-134.1 119,-124.1 115.5,-134.1 122.5,-134.1"/>
</g>
<!-- N1361289747 -->
<g id="node32" class="node">
<title>N1361289747</title>
<ellipse fill="#fafafa" stroke="black" cx="191" cy="-106" rx="27" ry="18"/>
<text text-anchor="middle" x="191" y="-102.3" font-family="Times New Roman,serif" font-size="14.00">[]</text>
</g>
<!-- N188576144&#45;&gt;N1361289747 -->
<g id="edge30" class="edge">
<title>N188576144&#45;&gt;N1361289747</title>
<path fill="none" stroke="black" d="M191,-159.7C191,-151.98 191,-142.71 191,-134.11"/>
<polygon fill="black" stroke="black" points="194.5,-134.1 191,-124.1 187.5,-134.1 194.5,-134.1"/>
</g>
<!-- N1381128261 -->
<g id="node33" class="node">
<title>N1381128261</title>
<ellipse fill="#fafafa" stroke="black" cx="265" cy="-106" rx="29.5" ry="18"/>
<text text-anchor="middle" x="265" y="-102.3" font-family="Times New Roman,serif" font-size="14.00">&#45;30.8</text>
</g>
<!-- N188576144&#45;&gt;N1381128261 -->
<g id="edge31" class="edge">
<title>N188576144&#45;&gt;N1381128261</title>
<path fill="none" stroke="black" d="M205.98,-162.83C216.44,-152.94 230.59,-139.55 242.42,-128.36"/>
<polygon fill="black" stroke="black" points="244.93,-130.8 249.79,-121.38 240.12,-125.71 244.93,-130.8"/>
</g>
<!-- N615634843 -->
<g id="node35" class="node">
<title>N615634843</title>
<ellipse fill="#fafafa" stroke="black" cx="345" cy="-106" rx="32.49" ry="18"/>
<text text-anchor="middle" x="345" y="-102.3" font-family="Times New Roman,serif" font-size="14.00">if&#45;else</text>
</g>
<!-- N1608230649&#45;&gt;N615634843 -->
<g id="edge33" class="edge">
<title>N1608230649&#45;&gt;N615634843</title>
<path fill="none" stroke="black" d="M313.51,-160.76C318.46,-152.32 324.62,-141.8 330.17,-132.31"/>
<polygon fill="black" stroke="black" points="333.22,-134.03 335.26,-123.63 327.18,-130.49 333.22,-134.03"/>
</g>
<!-- N1873859565 -->
<g id="node30" class="node">
<title>N1873859565</title>
<ellipse fill="#fafafa" stroke="black" cx="45" cy="-34" rx="29.5" ry="18"/>
<text text-anchor="middle" x="45" y="-30.3" font-family="Times New Roman,serif" font-size="14.00">&#45;18.3</text>
</g>
<!-- N282432134&#45;&gt;N1873859565 -->
<g id="edge28" class="edge">
<title>N282432134&#45;&gt;N1873859565</title>
<path fill="none" stroke="black" d="M45.75,-87.7C45.64,-79.98 45.51,-70.71 45.39,-62.11"/>
<polygon fill="black" stroke="black" points="48.89,-62.05 45.24,-52.1 41.89,-62.15 48.89,-62.05"/>
</g>
<!-- N1843289228 -->
<g id="node31" class="node">
<title>N1843289228</title>
<ellipse fill="#fafafa" stroke="black" cx="119" cy="-34" rx="27" ry="18"/>
<text text-anchor="middle" x="119" y="-30.3" font-family="Times New Roman,serif" font-size="14.00">55.4</text>
</g>
<!-- N266437232&#45;&gt;N1843289228 -->
<g id="edge29" class="edge">
<title>N266437232&#45;&gt;N1843289228</title>
<path fill="none" stroke="black" d="M119,-87.7C119,-79.98 119,-70.71 119,-62.11"/>
<polygon fill="black" stroke="black" points="122.5,-62.1 119,-52.1 115.5,-62.1 122.5,-62.1"/>
</g>
<!-- N999609945 -->
<g id="node34" class="node">
<title>N999609945</title>
<ellipse fill="#fafafa" stroke="black" cx="191" cy="-34" rx="27" ry="18"/>
<text text-anchor="middle" x="191" y="-30.3" font-family="Times New Roman,serif" font-size="14.00">49.4</text>
</g>
<!-- N1361289747&#45;&gt;N999609945 -->
<g id="edge32" class="edge">
<title>N1361289747&#45;&gt;N999609945</title>
<path fill="none" stroke="black" d="M191,-87.7C191,-79.98 191,-70.71 191,-62.11"/>
<polygon fill="black" stroke="black" points="194.5,-62.1 191,-52.1 187.5,-62.1 194.5,-62.1"/>
</g>
<!-- N1758386724 -->
<g id="node36" class="node">
<title>N1758386724</title>
<ellipse fill="#fafafa" stroke="black" cx="271" cy="-34" rx="27" ry="18"/>
<text text-anchor="middle" x="271" y="-30.3" font-family="Times New Roman,serif" font-size="14.00">29.5</text>
</g>
<!-- N615634843&#45;&gt;N1758386724 -->
<g id="edge34" class="edge">
<title>N615634843&#45;&gt;N1758386724</title>
<path fill="none" stroke="black" d="M329.31,-90.15C318.9,-80.31 305.07,-67.23 293.5,-56.28"/>
<polygon fill="black" stroke="black" points="295.58,-53.44 285.91,-49.11 290.77,-58.52 295.58,-53.44"/>
</g>
<!-- N673068808 -->
<g id="node37" class="node">
<title>N673068808</title>
<ellipse fill="#fafafa" stroke="black" cx="345" cy="-34" rx="29.5" ry="18"/>
<text text-anchor="middle" x="345" y="-30.3" font-family="Times New Roman,serif" font-size="14.00">&#45;14.5</text>
</g>
<!-- N615634843&#45;&gt;N673068808 -->
<g id="edge35" class="edge">
<title>N615634843&#45;&gt;N673068808</title>
<path fill="none" stroke="black" d="M345,-87.7C345,-79.98 345,-70.71 345,-62.11"/>
<polygon fill="black" stroke="black" points="348.5,-62.1 345,-52.1 341.5,-62.1 348.5,-62.1"/>
</g>
<!-- N900008524 -->
<g id="node38" class="node">
<title>N900008524</title>
<ellipse fill="#fafafa" stroke="black" cx="421" cy="-34" rx="29.5" ry="18"/>
<text text-anchor="middle" x="421" y="-30.3" font-family="Times New Roman,serif" font-size="14.00">&#45;78.7</text>
</g>
<!-- N615634843&#45;&gt;N900008524 -->
<g id="edge36" class="edge">
<title>N615634843&#45;&gt;N900008524</title>
<path fill="none" stroke="black" d="M361.12,-90.15C371.84,-80.28 386.09,-67.15 398,-56.19"/>
<polygon fill="black" stroke="black" points="400.44,-58.69 405.43,-49.35 395.7,-53.55 400.44,-58.69"/>
</g>
<!-- N1832580921 -->
<g id="node45" class="node">
<title>N1832580921</title>
<ellipse fill="#fafafa" stroke="black" cx="407" cy="-538" rx="27" ry="18"/>
<text text-anchor="middle" x="407" y="-534.3" font-family="Times New Roman,serif" font-size="14.00">[]</text>
</g>
<!-- N1256728724&#45;&gt;N1832580921 -->
<g id="edge43" class="edge">
<title>N1256728724&#45;&gt;N1832580921</title>
<path fill="none" stroke="black" d="M475.61,-595.5C463.03,-585.14 445.46,-570.67 431.25,-558.97"/>
<polygon fill="black" stroke="black" points="433.28,-556.11 423.34,-552.46 428.83,-561.51 433.28,-556.11"/>
</g>
<!-- N497359413 -->
<g id="node46" class="node">
<title>N497359413</title>
<ellipse fill="#fafafa" stroke="black" cx="492" cy="-538" rx="39.79" ry="18"/>
<text text-anchor="middle" x="492" y="-534.3" font-family="Times New Roman,serif" font-size="14.00">argc(...)</text>
</g>
<!-- N1256728724&#45;&gt;N497359413 -->
<g id="edge44" class="edge">
<title>N1256728724&#45;&gt;N497359413</title>
<path fill="none" stroke="black" d="M492,-591.7C492,-583.98 492,-574.71 492,-566.11"/>
<polygon fill="black" stroke="black" points="495.5,-566.1 492,-556.1 488.5,-566.1 495.5,-566.1"/>
</g>
<!-- N2124046270 -->
<g id="node48" class="node">
<title>N2124046270</title>
<ellipse fill="#fafafa" stroke="black" cx="577" cy="-538" rx="27" ry="18"/>
<text text-anchor="middle" x="577" y="-534.3" font-family="Times New Roman,serif" font-size="14.00">0.0</text>
</g>
<!-- N1412925683&#45;&gt;N2124046270 -->
<g id="edge46" class="edge">
<title>N1412925683&#45;&gt;N2124046270</title>
<path fill="none" stroke="black" d="M577,-591.7C577,-583.98 577,-574.71 577,-566.11"/>
<polygon fill="black" stroke="black" points="580.5,-566.1 577,-556.1 573.5,-566.1 580.5,-566.1"/>
</g>
<!-- N1151593579 -->
<g id="node49" class="node">
<title>N1151593579</title>
<ellipse fill="#fafafa" stroke="black" cx="649" cy="-538" rx="27" ry="18"/>
<text text-anchor="middle" x="649" y="-534.3" font-family="Times New Roman,serif" font-size="14.00">&gt;</text>
</g>
<!-- N1412925683&#45;&gt;N1151593579 -->
<g id="edge47" class="edge">
<title>N1412925683&#45;&gt;N1151593579</title>
<path fill="none" stroke="black" d="M591.57,-594.83C601.75,-584.94 615.52,-571.55 627.03,-560.36"/>
<polygon fill="black" stroke="black" points="629.47,-562.87 634.2,-553.38 624.59,-557.85 629.47,-562.87"/>
</g>
<!-- N369241501 -->
<g id="node47" class="node">
<title>N369241501</title>
<ellipse fill="#fafafa" stroke="black" cx="414" cy="-466" rx="27" ry="18"/>
<text text-anchor="middle" x="414" y="-462.3" font-family="Times New Roman,serif" font-size="14.00">1.0</text>
</g>
<!-- N1832580921&#45;&gt;N369241501 -->
<g id="edge45" class="edge">
<title>N1832580921&#45;&gt;N369241501</title>
<path fill="none" stroke="black" d="M408.73,-519.7C409.5,-511.98 410.43,-502.71 411.29,-494.11"/>
<polygon fill="black" stroke="black" points="414.78,-494.4 412.29,-484.1 407.81,-493.71 414.78,-494.4"/>
</g>
<!-- N1902260856 -->
<g id="node50" class="node">
<title>N1902260856</title>
<ellipse fill="#fafafa" stroke="black" cx="562" cy="-466" rx="27" ry="18"/>
<text text-anchor="middle" x="562" y="-462.3" font-family="Times New Roman,serif" font-size="14.00">+</text>
</g>
<!-- N1151593579&#45;&gt;N1902260856 -->
<g id="edge48" class="edge">
<title>N1151593579&#45;&gt;N1902260856</title>
<path fill="none" stroke="black" d="M632.23,-523.5C619.35,-513.14 601.37,-498.67 586.82,-486.97"/>
<polygon fill="black" stroke="black" points="588.71,-484 578.72,-480.46 584.32,-489.45 588.71,-484"/>
</g>
<!-- N1988859660 -->
<g id="node51" class="node">
<title>N1988859660</title>
<ellipse fill="#fafafa" stroke="black" cx="681" cy="-466" rx="27" ry="18"/>
<text text-anchor="middle" x="681" y="-462.3" font-family="Times New Roman,serif" font-size="14.00">~=</text>
</g>
<!-- N1151593579&#45;&gt;N1988859660 -->
<g id="edge49" class="edge">
<title>N1151593579&#45;&gt;N1988859660</title>
<path fill="none" stroke="black" d="M656.58,-520.41C660.37,-512.13 665.03,-501.92 669.27,-492.66"/>
<polygon fill="black" stroke="black" points="672.5,-494.02 673.47,-483.47 666.13,-491.11 672.5,-494.02"/>
</g>
<!-- N1514160588 -->
<g id="node52" class="node">
<title>N1514160588</title>
<ellipse fill="#fafafa" stroke="black" cx="487" cy="-394" rx="27" ry="18"/>
<text text-anchor="middle" x="487" y="-390.3" font-family="Times New Roman,serif" font-size="14.00">~!=</text>
</g>
<!-- N1902260856&#45;&gt;N1514160588 -->
<g id="edge50" class="edge">
<title>N1902260856&#45;&gt;N1514160588</title>
<path fill="none" stroke="black" d="M546.82,-450.83C536.15,-440.87 521.68,-427.37 509.65,-416.14"/>
<polygon fill="black" stroke="black" points="511.85,-413.41 502.15,-409.14 507.08,-418.53 511.85,-413.41"/>
</g>
<!-- N22756955 -->
<g id="node53" class="node">
<title>N22756955</title>
<ellipse fill="#fafafa" stroke="black" cx="562" cy="-394" rx="27" ry="18"/>
<text text-anchor="middle" x="562" y="-390.3" font-family="Times New Roman,serif" font-size="14.00">&lt;</text>
</g>
<!-- N1902260856&#45;&gt;N22756955 -->
<g id="edge51" class="edge">
<title>N1902260856&#45;&gt;N22756955</title>
<path fill="none" stroke="black" d="M562,-447.7C562,-439.98 562,-430.71 562,-422.11"/>
<polygon fill="black" stroke="black" points="565.5,-422.1 562,-412.1 558.5,-422.1 565.5,-422.1"/>
</g>
<!-- N2074185499 -->
<g id="node58" class="node">
<title>N2074185499</title>
<ellipse fill="#fafafa" stroke="black" cx="681" cy="-394" rx="27" ry="18"/>
<text text-anchor="middle" x="681" y="-390.3" font-family="Times New Roman,serif" font-size="14.00">/</text>
</g>
<!-- N1988859660&#45;&gt;N2074185499 -->
<g id="edge56" class="edge">
<title>N1988859660&#45;&gt;N2074185499</title>
<path fill="none" stroke="black" d="M681,-447.7C681,-439.98 681,-430.71 681,-422.11"/>
<polygon fill="black" stroke="black" points="684.5,-422.1 681,-412.1 677.5,-422.1 684.5,-422.1"/>
</g>
<!-- N797925218 -->
<g id="node59" class="node">
<title>N797925218</title>
<ellipse fill="#fafafa" stroke="black" cx="787" cy="-394" rx="27" ry="18"/>
<text text-anchor="middle" x="787" y="-390.3" font-family="Times New Roman,serif" font-size="14.00">+</text>
</g>
<!-- N1988859660&#45;&gt;N797925218 -->
<g id="edge57" class="edge">
<title>N1988859660&#45;&gt;N797925218</title>
<path fill="none" stroke="black" d="M699.46,-452.81C716.16,-441.78 740.95,-425.41 759.89,-412.9"/>
<polygon fill="black" stroke="black" points="761.98,-415.72 768.39,-407.29 758.12,-409.88 761.98,-415.72"/>
</g>
<!-- N1640639994 -->
<g id="node54" class="node">
<title>N1640639994</title>
<ellipse fill="#fafafa" stroke="black" cx="343" cy="-322" rx="27" ry="18"/>
<text text-anchor="middle" x="343" y="-318.3" font-family="Times New Roman,serif" font-size="14.00">38.0</text>
</g>
<!-- N1514160588&#45;&gt;N1640639994 -->
<g id="edge52" class="edge">
<title>N1514160588&#45;&gt;N1640639994</title>
<path fill="none" stroke="black" d="M465.75,-382.67C441.4,-370.83 401.28,-351.33 373.57,-337.86"/>
<polygon fill="black" stroke="black" points="374.86,-334.6 364.33,-333.37 371.8,-340.89 374.86,-334.6"/>
</g>
<!-- N1263793464 -->
<g id="node55" class="node">
<title>N1263793464</title>
<ellipse fill="#fafafa" stroke="black" cx="415" cy="-322" rx="27" ry="18"/>
<text text-anchor="middle" x="415" y="-318.3" font-family="Times New Roman,serif" font-size="14.00">88.7</text>
</g>
<!-- N1514160588&#45;&gt;N1263793464 -->
<g id="edge53" class="edge">
<title>N1514160588&#45;&gt;N1263793464</title>
<path fill="none" stroke="black" d="M472.43,-378.83C462.25,-368.94 448.48,-355.55 436.97,-344.36"/>
<polygon fill="black" stroke="black" points="439.41,-341.85 429.8,-337.38 434.53,-346.87 439.41,-341.85"/>
</g>
<!-- N323326911 -->
<g id="node56" class="node">
<title>N323326911</title>
<ellipse fill="#fafafa" stroke="black" cx="489" cy="-322" rx="29.5" ry="18"/>
<text text-anchor="middle" x="489" y="-318.3" font-family="Times New Roman,serif" font-size="14.00">&#45;60.3</text>
</g>
<!-- N22756955&#45;&gt;N323326911 -->
<g id="edge54" class="edge">
<title>N22756955&#45;&gt;N323326911</title>
<path fill="none" stroke="black" d="M547.23,-378.83C536.97,-369 523.13,-355.72 511.51,-344.58"/>
<polygon fill="black" stroke="black" points="513.89,-342.02 504.25,-337.63 509.05,-347.07 513.89,-342.02"/>
</g>
<!-- N1270144618 -->
<g id="node57" class="node">
<title>N1270144618</title>
<ellipse fill="#fafafa" stroke="black" cx="565" cy="-322" rx="29.5" ry="18"/>
<text text-anchor="middle" x="565" y="-318.3" font-family="Times New Roman,serif" font-size="14.00">&#45;82.5</text>
</g>
<!-- N22756955&#45;&gt;N1270144618 -->
<g id="edge55" class="edge">
<title>N22756955&#45;&gt;N1270144618</title>
<path fill="none" stroke="black" d="M562.74,-375.7C563.07,-367.98 563.47,-358.71 563.84,-350.11"/>
<polygon fill="black" stroke="black" points="567.34,-350.25 564.27,-340.1 560.34,-349.95 567.34,-350.25"/>
</g>
<!-- N275310919 -->
<g id="node60" class="node">
<title>N275310919</title>
<ellipse fill="#fafafa" stroke="black" cx="639" cy="-322" rx="27" ry="18"/>
<text text-anchor="middle" x="639" y="-318.3" font-family="Times New Roman,serif" font-size="14.00">65.7</text>
</g>
<!-- N2074185499&#45;&gt;N275310919 -->
<g id="edge58" class="edge">
<title>N2074185499&#45;&gt;N275310919</title>
<path fill="none" stroke="black" d="M671.47,-377.12C666.33,-368.56 659.88,-357.8 654.08,-348.13"/>
<polygon fill="black" stroke="black" points="656.93,-346.08 648.78,-339.31 650.93,-349.68 656.93,-346.08"/>
</g>
<!-- N2109874862 -->
<g id="node61" class="node">
<title>N2109874862</title>
<ellipse fill="#fafafa" stroke="black" cx="713" cy="-322" rx="29.5" ry="18"/>
<text text-anchor="middle" x="713" y="-318.3" font-family="Times New Roman,serif" font-size="14.00">&#45;52.8</text>
</g>
<!-- N2074185499&#45;&gt;N2109874862 -->
<g id="edge59" class="edge">
<title>N2074185499&#45;&gt;N2109874862</title>
<path fill="none" stroke="black" d="M688.58,-376.41C692.37,-368.13 697.03,-357.92 701.27,-348.66"/>
<polygon fill="black" stroke="black" points="704.5,-350.02 705.47,-339.47 698.13,-347.11 704.5,-350.02"/>
</g>
<!-- N183284570 -->
<g id="node62" class="node">
<title>N183284570</title>
<ellipse fill="#fafafa" stroke="black" cx="787" cy="-322" rx="27" ry="18"/>
<text text-anchor="middle" x="787" y="-318.3" font-family="Times New Roman,serif" font-size="14.00">51.3</text>
</g>
<!-- N797925218&#45;&gt;N183284570 -->
<g id="edge60" class="edge">
<title>N797925218&#45;&gt;N183284570</title>
<path fill="none" stroke="black" d="M787,-375.7C787,-367.98 787,-358.71 787,-350.11"/>
<polygon fill="black" stroke="black" points="790.5,-350.1 787,-340.1 783.5,-350.1 790.5,-350.1"/>
</g>
<!-- N1607305514 -->
<g id="node63" class="node">
<title>N1607305514</title>
<ellipse fill="#fafafa" stroke="black" cx="859" cy="-322" rx="27" ry="18"/>
<text text-anchor="middle" x="859" y="-318.3" font-family="Times New Roman,serif" font-size="14.00">21.8</text>
</g>
<!-- N797925218&#45;&gt;N1607305514 -->
<g id="edge61" class="edge">
<title>N797925218&#45;&gt;N1607305514</title>
<path fill="none" stroke="black" d="M801.57,-378.83C811.75,-368.94 825.52,-355.55 837.03,-344.36"/>
<polygon fill="black" stroke="black" points="839.47,-346.87 844.2,-337.38 834.59,-341.85 839.47,-346.87"/>
</g>
<!-- N194706439 -->
<g id="node66" class="node">
<title>N194706439</title>
<ellipse fill="#fafafa" stroke="black" cx="721" cy="-538" rx="27" ry="18"/>
<text text-anchor="middle" x="721" y="-534.3" font-family="Times New Roman,serif" font-size="14.00">0.0</text>
</g>
<!-- N146305349&#45;&gt;N194706439 -->
<g id="edge64" class="edge">
<title>N146305349&#45;&gt;N194706439</title>
<path fill="none" stroke="black" d="M693.35,-592.76C697.71,-584.28 703.15,-573.71 708.04,-564.2"/>
<polygon fill="black" stroke="black" points="711.23,-565.64 712.7,-555.15 705.01,-562.44 711.23,-565.64"/>
</g>
</g>
</svg>
