<?xml version="1.0" encoding="UTF-8" standalone="no"?>
<!DOCTYPE svg PUBLIC "-//W3C//DTD SVG 1.1//EN"
 "http://www.w3.org/Graphics/SVG/1.1/DTD/svg11.dtd">
<!-- Generated by graphviz version 7.0.1 (20221109.1506)
 -->
<!-- Title: G Pages: 1 -->
<svg width="766pt" height="346pt"
 viewBox="0.00 0.00 766.00 346.00" xmlns="http://www.w3.org/2000/svg" xmlns:xlink="http://www.w3.org/1999/xlink">
<g id="graph0" class="graph" transform="scale(1 1) rotate(0) translate(4 342)">
<title>G</title>
<polygon fill="white" stroke="none" points="-4,4 -4,-342 762,-342 762,4 -4,4"/>
<g id="clust1" class="cluster">
<title>cluster_P1828757853</title>
<polygon fill="none" stroke="black" points="8,-8 8,-330 750,-330 750,-8 8,-8"/>
<text text-anchor="middle" x="379" y="-314.8" font-family="Times New Roman,serif" font-size="14.00">c</text>
</g>
<g id="clust4" class="cluster">
<title>cluster_Z963269035</title>
<polygon fill="none" stroke="black" points="636,-224 636,-299 728,-299 728,-224 636,-224"/>
<text text-anchor="middle" x="682" y="-283.8" font-family="Times New Roman,serif" font-size="14.00">MEMLIMIT</text>
</g>
<g id="clust3" class="cluster">
<title>cluster_Z1345636186</title>
<polygon fill="none" stroke="black" points="522,-224 522,-299 600,-299 600,-224 522,-224"/>
<text text-anchor="middle" x="561" y="-283.8" font-family="Times New Roman,serif" font-size="14.00">ARGMIN</text>
</g>
<!-- 0.0 -->
<g id="node1" class="node">
<title>0.0</title>
<polygon fill="lightgrey" stroke="black" points="561,-268 530,-250 561,-232 592,-250 561,-268"/>
<text text-anchor="middle" x="561" y="-246.3" font-family="Times New Roman,serif" font-size="14.00">0.0</text>
</g>
<!-- 64.0 -->
<g id="node2" class="node">
<title>64.0</title>
<polygon fill="lightgrey" stroke="black" points="682,-268 644.13,-250 682,-232 719.87,-250 682,-268"/>
<text text-anchor="middle" x="682" y="-246.3" font-family="Times New Roman,serif" font-size="14.00">64.0</text>
</g>
<!-- N1359484306 -->
<g id="node3" class="node">
<title>N1359484306</title>
<ellipse fill="#0000ff" stroke="black" cx="429" cy="-250" rx="27" ry="18"/>
<text text-anchor="middle" x="429" y="-246.3" font-family="Times New Roman,serif" font-size="14.00">{}</text>
</g>
<!-- N2140832232 -->
<g id="node4" class="node">
<title>N2140832232</title>
<ellipse fill="#0000ff" stroke="black" cx="231" cy="-178" rx="27" ry="18"/>
<text text-anchor="middle" x="231" y="-174.3" font-family="Times New Roman,serif" font-size="14.00">:=</text>
</g>
<!-- N1359484306&#45;&gt;N2140832232 -->
<g id="edge1" class="edge">
<title>N1359484306&#45;&gt;N2140832232</title>
<path fill="none" stroke="black" d="M405.51,-240.7C370.75,-228.41 305.42,-205.31 265.3,-191.13"/>
<polygon fill="black" stroke="black" points="266.48,-187.83 255.89,-187.8 264.15,-194.43 266.48,-187.83"/>
</g>
<!-- N157456214 -->
<g id="node5" class="node">
<title>N157456214</title>
<ellipse fill="#0000ff" stroke="black" cx="429" cy="-178" rx="27" ry="18"/>
<text text-anchor="middle" x="429" y="-174.3" font-family="Times New Roman,serif" font-size="14.00">&lt;</text>
</g>
<!-- N1359484306&#45;&gt;N157456214 -->
<g id="edge2" class="edge">
<title>N1359484306&#45;&gt;N157456214</title>
<path fill="none" stroke="black" d="M429,-231.7C429,-224.41 429,-215.73 429,-207.54"/>
<polygon fill="black" stroke="black" points="432.5,-207.62 429,-197.62 425.5,-207.62 432.5,-207.62"/>
</g>
<!-- N1659791576 -->
<g id="node6" class="node">
<title>N1659791576</title>
<ellipse fill="#0000ff" stroke="black" cx="576" cy="-178" rx="27" ry="18"/>
<text text-anchor="middle" x="576" y="-174.3" font-family="Times New Roman,serif" font-size="14.00">[]</text>
</g>
<!-- N1359484306&#45;&gt;N1659791576 -->
<g id="edge3" class="edge">
<title>N1359484306&#45;&gt;N1659791576</title>
<path fill="none" stroke="black" d="M450.69,-238.67C475.48,-226.87 516.26,-207.45 544.53,-193.98"/>
<polygon fill="black" stroke="black" points="545.81,-197.25 553.33,-189.79 542.8,-190.93 545.81,-197.25"/>
</g>
<!-- N1935365522 -->
<g id="node7" class="node">
<title>N1935365522</title>
<ellipse fill="#0000ff" stroke="black" cx="117" cy="-106" rx="27" ry="18"/>
<text text-anchor="middle" x="117" y="-102.3" font-family="Times New Roman,serif" font-size="14.00">|</text>
</g>
<!-- N2140832232&#45;&gt;N1935365522 -->
<g id="edge4" class="edge">
<title>N2140832232&#45;&gt;N1935365522</title>
<path fill="none" stroke="black" d="M211.66,-165.13C193.73,-154.11 166.79,-137.57 146.23,-124.95"/>
<polygon fill="black" stroke="black" points="148.08,-121.97 137.72,-119.72 144.41,-127.94 148.08,-121.97"/>
</g>
<!-- N1483022288 -->
<g id="node8" class="node">
<title>N1483022288</title>
<ellipse fill="#0000ff" stroke="black" cx="231" cy="-106" rx="27" ry="18"/>
<text text-anchor="middle" x="231" y="-102.3" font-family="Times New Roman,serif" font-size="14.00">&lt;</text>
</g>
<!-- N2140832232&#45;&gt;N1483022288 -->
<g id="edge5" class="edge">
<title>N2140832232&#45;&gt;N1483022288</title>
<path fill="none" stroke="black" d="M231,-159.7C231,-152.41 231,-143.73 231,-135.54"/>
<polygon fill="black" stroke="black" points="234.5,-135.62 231,-125.62 227.5,-135.62 234.5,-135.62"/>
</g>
<!-- N1335050193 -->
<g id="node13" class="node">
<title>N1335050193</title>
<ellipse fill="#0000ff" stroke="black" cx="415" cy="-106" rx="27" ry="18"/>
<text text-anchor="middle" x="415" y="-102.3" font-family="Times New Roman,serif" font-size="14.00">{}</text>
</g>
<!-- N157456214&#45;&gt;N1335050193 -->
<g id="edge10" class="edge">
<title>N157456214&#45;&gt;N1335050193</title>
<path fill="none" stroke="black" d="M425.54,-159.7C424.06,-152.32 422.3,-143.52 420.65,-135.25"/>
<polygon fill="black" stroke="black" points="424.11,-134.71 418.72,-125.59 417.25,-136.08 424.11,-134.71"/>
</g>
<!-- N1418370913 -->
<g id="node14" class="node">
<title>N1418370913</title>
<ellipse fill="#0000ff" stroke="black" cx="489" cy="-106" rx="27" ry="18"/>
<text text-anchor="middle" x="489" y="-102.3" font-family="Times New Roman,serif" font-size="14.00">{}</text>
</g>
<!-- N157456214&#45;&gt;N1418370913 -->
<g id="edge11" class="edge">
<title>N157456214&#45;&gt;N1418370913</title>
<path fill="none" stroke="black" d="M442.02,-161.81C449.8,-152.73 459.86,-141 468.67,-130.72"/>
<polygon fill="black" stroke="black" points="471.17,-133.18 475.02,-123.31 465.86,-128.62 471.17,-133.18"/>
</g>
<!-- N551734240 -->
<g id="node19" class="node">
<title>N551734240</title>
<ellipse fill="#0000ff" stroke="black" cx="637" cy="-106" rx="27" ry="18"/>
<text text-anchor="middle" x="637" y="-102.3" font-family="Times New Roman,serif" font-size="14.00">&lt;</text>
</g>
<!-- N1659791576&#45;&gt;N551734240 -->
<g id="edge16" class="edge">
<title>N1659791576&#45;&gt;N551734240</title>
<path fill="none" stroke="black" d="M589.24,-161.81C597.15,-152.73 607.38,-141 616.33,-130.72"/>
<polygon fill="black" stroke="black" points="618.86,-133.14 622.8,-123.3 613.59,-128.54 618.86,-133.14"/>
</g>
<!-- N1159785389 -->
<g id="node9" class="node">
<title>N1159785389</title>
<ellipse fill="#0000ff" stroke="black" cx="43" cy="-34" rx="27" ry="18"/>
<text text-anchor="middle" x="43" y="-30.3" font-family="Times New Roman,serif" font-size="14.00">&#45;5.2</text>
</g>
<!-- N1935365522&#45;&gt;N1159785389 -->
<g id="edge6" class="edge">
<title>N1935365522&#45;&gt;N1159785389</title>
<path fill="none" stroke="black" d="M102.02,-90.83C91.76,-81.13 77.94,-68.06 66.26,-57"/>
<polygon fill="black" stroke="black" points="68.98,-54.75 59.31,-50.42 64.17,-59.84 68.98,-54.75"/>
</g>
<!-- N1410986873 -->
<g id="node10" class="node">
<title>N1410986873</title>
<ellipse fill="#0000ff" stroke="black" cx="117" cy="-34" rx="29.5" ry="18"/>
<text text-anchor="middle" x="117" y="-30.3" font-family="Times New Roman,serif" font-size="14.00">&#45;93.0</text>
</g>
<!-- N1935365522&#45;&gt;N1410986873 -->
<g id="edge7" class="edge">
<title>N1935365522&#45;&gt;N1410986873</title>
<path fill="none" stroke="black" d="M117,-87.7C117,-80.41 117,-71.73 117,-63.54"/>
<polygon fill="black" stroke="black" points="120.5,-63.62 117,-53.62 113.5,-63.62 120.5,-63.62"/>
</g>
<!-- N2110245805 -->
<g id="node11" class="node">
<title>N2110245805</title>
<ellipse fill="#0000ff" stroke="black" cx="193" cy="-34" rx="29.5" ry="18"/>
<text text-anchor="middle" x="193" y="-30.3" font-family="Times New Roman,serif" font-size="14.00">&#45;32.2</text>
</g>
<!-- N1483022288&#45;&gt;N2110245805 -->
<g id="edge8" class="edge">
<title>N1483022288&#45;&gt;N2110245805</title>
<path fill="none" stroke="black" d="M222.19,-88.76C217.79,-80.67 212.36,-70.66 207.38,-61.49"/>
<polygon fill="black" stroke="black" points="210.6,-60.08 202.75,-52.96 204.45,-63.42 210.6,-60.08"/>
</g>
<!-- N221036634 -->
<g id="node12" class="node">
<title>N221036634</title>
<ellipse fill="#0000ff" stroke="black" cx="269" cy="-34" rx="29.5" ry="18"/>
<text text-anchor="middle" x="269" y="-30.3" font-family="Times New Roman,serif" font-size="14.00">&#45;43.5</text>
</g>
<!-- N1483022288&#45;&gt;N221036634 -->
<g id="edge9" class="edge">
<title>N1483022288&#45;&gt;N221036634</title>
<path fill="none" stroke="black" d="M239.81,-88.76C244.21,-80.67 249.64,-70.66 254.62,-61.49"/>
<polygon fill="black" stroke="black" points="257.55,-63.42 259.25,-52.96 251.4,-60.08 257.55,-63.42"/>
</g>
<!-- N391359742 -->
<g id="node15" class="node">
<title>N391359742</title>
<ellipse fill="#0000ff" stroke="black" cx="343" cy="-34" rx="27" ry="18"/>
<text text-anchor="middle" x="343" y="-30.3" font-family="Times New Roman,serif" font-size="14.00">&#45;3.3</text>
</g>
<!-- N1335050193&#45;&gt;N391359742 -->
<g id="edge12" class="edge">
<title>N1335050193&#45;&gt;N391359742</title>
<path fill="none" stroke="black" d="M400.08,-90.5C390.23,-80.92 377.14,-68.19 365.97,-57.34"/>
<polygon fill="black" stroke="black" points="368.59,-55 358.98,-50.54 363.71,-60.02 368.59,-55"/>
</g>
<!-- N2081853534 -->
<g id="node16" class="node">
<title>N2081853534</title>
<ellipse fill="#0000ff" stroke="black" cx="415" cy="-34" rx="27" ry="18"/>
<text text-anchor="middle" x="415" y="-30.3" font-family="Times New Roman,serif" font-size="14.00">33.5</text>
</g>
<!-- N1335050193&#45;&gt;N2081853534 -->
<g id="edge13" class="edge">
<title>N1335050193&#45;&gt;N2081853534</title>
<path fill="none" stroke="black" d="M415,-87.7C415,-80.41 415,-71.73 415,-63.54"/>
<polygon fill="black" stroke="black" points="418.5,-63.62 415,-53.62 411.5,-63.62 418.5,-63.62"/>
</g>
<!-- N707610042 -->
<g id="node17" class="node">
<title>N707610042</title>
<ellipse fill="#0000ff" stroke="black" cx="489" cy="-34" rx="29.5" ry="18"/>
<text text-anchor="middle" x="489" y="-30.3" font-family="Times New Roman,serif" font-size="14.00">&#45;39.9</text>
</g>
<!-- N1418370913&#45;&gt;N707610042 -->
<g id="edge14" class="edge">
<title>N1418370913&#45;&gt;N707610042</title>
<path fill="none" stroke="black" d="M489,-87.7C489,-80.41 489,-71.73 489,-63.54"/>
<polygon fill="black" stroke="black" points="492.5,-63.62 489,-53.62 485.5,-63.62 492.5,-63.62"/>
</g>
<!-- N710714889 -->
<g id="node18" class="node">
<title>N710714889</title>
<ellipse fill="#0000ff" stroke="black" cx="563" cy="-34" rx="27" ry="18"/>
<text text-anchor="middle" x="563" y="-30.3" font-family="Times New Roman,serif" font-size="14.00">50.9</text>
</g>
<!-- N1418370913&#45;&gt;N710714889 -->
<g id="edge15" class="edge">
<title>N1418370913&#45;&gt;N710714889</title>
<path fill="none" stroke="black" d="M503.98,-90.83C514.24,-81.13 528.06,-68.06 539.74,-57"/>
<polygon fill="black" stroke="black" points="541.83,-59.84 546.69,-50.42 537.02,-54.75 541.83,-59.84"/>
</g>
<!-- N1757293506 -->
<g id="node20" class="node">
<title>N1757293506</title>
<ellipse fill="#0000ff" stroke="black" cx="637" cy="-34" rx="29.5" ry="18"/>
<text text-anchor="middle" x="637" y="-30.3" font-family="Times New Roman,serif" font-size="14.00">&#45;57.6</text>
</g>
<!-- N551734240&#45;&gt;N1757293506 -->
<g id="edge17" class="edge">
<title>N551734240&#45;&gt;N1757293506</title>
<path fill="none" stroke="black" d="M637,-87.7C637,-80.41 637,-71.73 637,-63.54"/>
<polygon fill="black" stroke="black" points="640.5,-63.62 637,-53.62 633.5,-63.62 640.5,-63.62"/>
</g>
<!-- N687780858 -->
<g id="node21" class="node">
<title>N687780858</title>
<ellipse fill="#0000ff" stroke="black" cx="713" cy="-34" rx="29.5" ry="18"/>
<text text-anchor="middle" x="713" y="-30.3" font-family="Times New Roman,serif" font-size="14.00">&#45;66.9</text>
</g>
<!-- N551734240&#45;&gt;N687780858 -->
<g id="edge18" class="edge">
<title>N551734240&#45;&gt;N687780858</title>
<path fill="none" stroke="black" d="M652.38,-90.83C662.85,-81.19 676.92,-68.23 688.87,-57.22"/>
<polygon fill="black" stroke="black" points="691.02,-60 696.01,-50.65 686.28,-54.85 691.02,-60"/>
</g>
</g>
</svg>
