<?xml version="1.0" encoding="UTF-8" standalone="no"?>
<!DOCTYPE svg PUBLIC "-//W3C//DTD SVG 1.1//EN"
 "http://www.w3.org/Graphics/SVG/1.1/DTD/svg11.dtd">
<!-- Generated by graphviz version 6.0.2 (20221011.1828)
 -->
<!-- Title: G Pages: 1 -->
<svg width="458pt" height="418pt"
 viewBox="0.00 0.00 458.00 418.00" xmlns="http://www.w3.org/2000/svg" xmlns:xlink="http://www.w3.org/1999/xlink">
<g id="graph0" class="graph" transform="scale(1 1) rotate(0) translate(4 414)">
<title>G</title>
<polygon fill="white" stroke="none" points="-4,4 -4,-414 454,-414 454,4 -4,4"/>
<g id="clust1" class="cluster">
<title>cluster_P1595953398</title>
<polygon fill="none" stroke="black" points="8,-8 8,-402 442,-402 442,-8 8,-8"/>
<text text-anchor="middle" x="225" y="-386.8" font-family="Times New Roman,serif" font-size="14.00">c</text>
</g>
<g id="clust2" class="cluster">
<title>cluster_Z2017354584</title>
<polygon fill="none" stroke="black" points="305,-296 305,-371 397,-371 397,-296 305,-296"/>
<text text-anchor="middle" x="351" y="-355.8" font-family="Times New Roman,serif" font-size="14.00">MEMLIMIT</text>
</g>
<!-- 64.0 -->
<g id="node1" class="node">
<title>64.0</title>
<polygon fill="lightgrey" stroke="black" points="351,-340 313.13,-322 351,-304 388.87,-322 351,-340"/>
<text text-anchor="middle" x="351" y="-318.3" font-family="Times New Roman,serif" font-size="14.00">64.0</text>
</g>
<!-- N1509563803 -->
<g id="node2" class="node">
<title>N1509563803</title>
<ellipse fill="#ff0000" stroke="black" cx="137" cy="-322" rx="27" ry="18"/>
<text text-anchor="middle" x="137" y="-318.3" font-family="Times New Roman,serif" font-size="14.00">&lt;</text>
</g>
<!-- N684874119 -->
<g id="node3" class="node">
<title>N684874119</title>
<ellipse fill="#0000ff" stroke="black" cx="100" cy="-250" rx="27" ry="18"/>
<text text-anchor="middle" x="100" y="-246.3" font-family="Times New Roman,serif" font-size="14.00">&lt;</text>
</g>
<!-- N1509563803&#45;&gt;N684874119 -->
<g id="edge1" class="edge">
<title>N1509563803&#45;&gt;N684874119</title>
<path fill="none" stroke="black" d="M128.42,-304.76C123.94,-296.28 118.35,-285.71 113.32,-276.2"/>
<polygon fill="black" stroke="black" points="116.3,-274.35 108.54,-267.15 110.11,-277.62 116.3,-274.35"/>
</g>
<!-- N1157740463 -->
<g id="node4" class="node">
<title>N1157740463</title>
<ellipse fill="#ff0000" stroke="black" cx="174" cy="-250" rx="29.5" ry="18"/>
<text text-anchor="middle" x="174" y="-246.3" font-family="Times New Roman,serif" font-size="14.00">&#45;58.6</text>
</g>
<!-- N1509563803&#45;&gt;N1157740463 -->
<g id="edge2" class="edge">
<title>N1509563803&#45;&gt;N1157740463</title>
<path fill="none" stroke="black" d="M145.58,-304.76C150,-296.4 155.49,-286.02 160.47,-276.61"/>
<polygon fill="black" stroke="black" points="163.63,-278.11 165.21,-267.63 157.44,-274.84 163.63,-278.11"/>
</g>
<!-- N1379435698 -->
<g id="node5" class="node">
<title>N1379435698</title>
<ellipse fill="#0000ff" stroke="black" cx="63" cy="-178" rx="27" ry="18"/>
<text text-anchor="middle" x="63" y="-174.3" font-family="Times New Roman,serif" font-size="14.00">[]</text>
</g>
<!-- N684874119&#45;&gt;N1379435698 -->
<g id="edge3" class="edge">
<title>N684874119&#45;&gt;N1379435698</title>
<path fill="none" stroke="black" d="M91.42,-232.76C86.94,-224.28 81.35,-213.71 76.32,-204.2"/>
<polygon fill="black" stroke="black" points="79.3,-202.35 71.54,-195.15 73.11,-205.62 79.3,-202.35"/>
</g>
<!-- N1529306539 -->
<g id="node6" class="node">
<title>N1529306539</title>
<ellipse fill="#0000ff" stroke="black" cx="154" cy="-178" rx="27" ry="18"/>
<text text-anchor="middle" x="154" y="-174.3" font-family="Times New Roman,serif" font-size="14.00">{}</text>
</g>
<!-- N684874119&#45;&gt;N1529306539 -->
<g id="edge4" class="edge">
<title>N684874119&#45;&gt;N1529306539</title>
<path fill="none" stroke="black" d="M111.98,-233.46C118.98,-224.4 127.94,-212.79 135.79,-202.61"/>
<polygon fill="black" stroke="black" points="138.71,-204.55 142.05,-194.49 133.17,-200.27 138.71,-204.55"/>
</g>
<!-- N1635985705 -->
<g id="node7" class="node">
<title>N1635985705</title>
<ellipse fill="#0000ff" stroke="black" cx="44" cy="-106" rx="27" ry="18"/>
<text text-anchor="middle" x="44" y="-102.3" font-family="Times New Roman,serif" font-size="14.00">[]</text>
</g>
<!-- N1379435698&#45;&gt;N1635985705 -->
<g id="edge5" class="edge">
<title>N1379435698&#45;&gt;N1635985705</title>
<path fill="none" stroke="black" d="M58.4,-160.05C56.25,-152.14 53.65,-142.54 51.24,-133.69"/>
<polygon fill="black" stroke="black" points="54.55,-132.52 48.56,-123.79 47.8,-134.36 54.55,-132.52"/>
</g>
<!-- N1073502961 -->
<g id="node9" class="node">
<title>N1073502961</title>
<ellipse fill="#0000ff" stroke="black" cx="118" cy="-106" rx="27" ry="18"/>
<text text-anchor="middle" x="118" y="-102.3" font-family="Times New Roman,serif" font-size="14.00">&#45;</text>
</g>
<!-- N1529306539&#45;&gt;N1073502961 -->
<g id="edge7" class="edge">
<title>N1529306539&#45;&gt;N1073502961</title>
<path fill="none" stroke="black" d="M145.65,-160.76C141.29,-152.28 135.85,-141.71 130.96,-132.2"/>
<polygon fill="black" stroke="black" points="133.99,-130.44 126.3,-123.15 127.77,-133.64 133.99,-130.44"/>
</g>
<!-- N1582797472 -->
<g id="node10" class="node">
<title>N1582797472</title>
<ellipse fill="#0000ff" stroke="black" cx="191" cy="-106" rx="27" ry="18"/>
<text text-anchor="middle" x="191" y="-102.3" font-family="Times New Roman,serif" font-size="14.00">*</text>
</g>
<!-- N1529306539&#45;&gt;N1582797472 -->
<g id="edge8" class="edge">
<title>N1529306539&#45;&gt;N1582797472</title>
<path fill="none" stroke="black" d="M162.58,-160.76C167.06,-152.28 172.65,-141.71 177.68,-132.2"/>
<polygon fill="black" stroke="black" points="180.89,-133.62 182.46,-123.15 174.7,-130.35 180.89,-133.62"/>
</g>
<!-- N644166178 -->
<g id="node11" class="node">
<title>N644166178</title>
<ellipse fill="#0000ff" stroke="black" cx="335" cy="-106" rx="27" ry="18"/>
<text text-anchor="middle" x="335" y="-102.3" font-family="Times New Roman,serif" font-size="14.00">~=</text>
</g>
<!-- N1529306539&#45;&gt;N644166178 -->
<g id="edge9" class="edge">
<title>N1529306539&#45;&gt;N644166178</title>
<path fill="none" stroke="black" d="M176.92,-168.13C208.75,-155.83 266.47,-133.5 302.67,-119.51"/>
<polygon fill="black" stroke="black" points="304.2,-122.67 312.26,-115.79 301.67,-116.14 304.2,-122.67"/>
</g>
<!-- N695682681 -->
<g id="node8" class="node">
<title>N695682681</title>
<ellipse fill="#0000ff" stroke="black" cx="43" cy="-34" rx="27" ry="18"/>
<text text-anchor="middle" x="43" y="-30.3" font-family="Times New Roman,serif" font-size="14.00">61.6</text>
</g>
<!-- N1635985705&#45;&gt;N695682681 -->
<g id="edge6" class="edge">
<title>N1635985705&#45;&gt;N695682681</title>
<path fill="none" stroke="black" d="M43.75,-87.7C43.64,-79.98 43.51,-70.71 43.39,-62.11"/>
<polygon fill="black" stroke="black" points="46.89,-62.05 43.24,-52.1 39.89,-62.15 46.89,-62.05"/>
</g>
<!-- N892529689 -->
<g id="node12" class="node">
<title>N892529689</title>
<ellipse fill="#0000ff" stroke="black" cx="117" cy="-34" rx="29.5" ry="18"/>
<text text-anchor="middle" x="117" y="-30.3" font-family="Times New Roman,serif" font-size="14.00">&#45;82.1</text>
</g>
<!-- N1073502961&#45;&gt;N892529689 -->
<g id="edge10" class="edge">
<title>N1073502961&#45;&gt;N892529689</title>
<path fill="none" stroke="black" d="M117.75,-87.7C117.64,-79.98 117.51,-70.71 117.39,-62.11"/>
<polygon fill="black" stroke="black" points="120.89,-62.05 117.24,-52.1 113.89,-62.15 120.89,-62.05"/>
</g>
<!-- N1757676444 -->
<g id="node13" class="node">
<title>N1757676444</title>
<ellipse fill="#0000ff" stroke="black" cx="191" cy="-34" rx="27" ry="18"/>
<text text-anchor="middle" x="191" y="-30.3" font-family="Times New Roman,serif" font-size="14.00">34.4</text>
</g>
<!-- N1582797472&#45;&gt;N1757676444 -->
<g id="edge11" class="edge">
<title>N1582797472&#45;&gt;N1757676444</title>
<path fill="none" stroke="black" d="M191,-87.7C191,-79.98 191,-70.71 191,-62.11"/>
<polygon fill="black" stroke="black" points="194.5,-62.1 191,-52.1 187.5,-62.1 194.5,-62.1"/>
</g>
<!-- N182738614 -->
<g id="node14" class="node">
<title>N182738614</title>
<ellipse fill="#0000ff" stroke="black" cx="263" cy="-34" rx="27" ry="18"/>
<text text-anchor="middle" x="263" y="-30.3" font-family="Times New Roman,serif" font-size="14.00">71.2</text>
</g>
<!-- N1582797472&#45;&gt;N182738614 -->
<g id="edge12" class="edge">
<title>N1582797472&#45;&gt;N182738614</title>
<path fill="none" stroke="black" d="M205.57,-90.83C215.75,-80.94 229.52,-67.55 241.03,-56.36"/>
<polygon fill="black" stroke="black" points="243.47,-58.87 248.2,-49.38 238.59,-53.85 243.47,-58.87"/>
</g>
<!-- N94345706 -->
<g id="node15" class="node">
<title>N94345706</title>
<ellipse fill="#0000ff" stroke="black" cx="335" cy="-34" rx="27" ry="18"/>
<text text-anchor="middle" x="335" y="-30.3" font-family="Times New Roman,serif" font-size="14.00">34.5</text>
</g>
<!-- N644166178&#45;&gt;N94345706 -->
<g id="edge13" class="edge">
<title>N644166178&#45;&gt;N94345706</title>
<path fill="none" stroke="black" d="M335,-87.7C335,-79.98 335,-70.71 335,-62.11"/>
<polygon fill="black" stroke="black" points="338.5,-62.1 335,-52.1 331.5,-62.1 338.5,-62.1"/>
</g>
<!-- N670035812 -->
<g id="node16" class="node">
<title>N670035812</title>
<ellipse fill="#0000ff" stroke="black" cx="407" cy="-34" rx="27" ry="18"/>
<text text-anchor="middle" x="407" y="-30.3" font-family="Times New Roman,serif" font-size="14.00">52.2</text>
</g>
<!-- N644166178&#45;&gt;N670035812 -->
<g id="edge14" class="edge">
<title>N644166178&#45;&gt;N670035812</title>
<path fill="none" stroke="black" d="M349.57,-90.83C359.75,-80.94 373.52,-67.55 385.03,-56.36"/>
<polygon fill="black" stroke="black" points="387.47,-58.87 392.2,-49.38 382.59,-53.85 387.47,-58.87"/>
</g>
</g>
</svg>
