<?xml version="1.0" encoding="UTF-8" standalone="no"?>
<!DOCTYPE svg PUBLIC "-//W3C//DTD SVG 1.1//EN"
 "http://www.w3.org/Graphics/SVG/1.1/DTD/svg11.dtd">
<!-- Generated by graphviz version 6.0.2 (20221011.1828)
 -->
<!-- Title: G Pages: 1 -->
<svg width="196pt" height="346pt"
 viewBox="0.00 0.00 196.00 346.00" xmlns="http://www.w3.org/2000/svg" xmlns:xlink="http://www.w3.org/1999/xlink">
<g id="graph0" class="graph" transform="scale(1 1) rotate(0) translate(4 342)">
<title>G</title>
<polygon fill="white" stroke="none" points="-4,4 -4,-342 192,-342 192,4 -4,4"/>
<g id="clust1" class="cluster">
<title>cluster_P1595953398</title>
<polygon fill="none" stroke="black" points="8,-8 8,-330 180,-330 180,-8 8,-8"/>
<text text-anchor="middle" x="94" y="-314.8" font-family="Times New Roman,serif" font-size="14.00">c</text>
</g>
<g id="clust2" class="cluster">
<title>cluster_Z2017354584</title>
<polygon fill="none" stroke="black" points="80,-224 80,-299 172,-299 172,-224 80,-224"/>
<text text-anchor="middle" x="126" y="-283.8" font-family="Times New Roman,serif" font-size="14.00">MEMLIMIT</text>
</g>
<!-- 64.0 -->
<g id="node1" class="node">
<title>64.0</title>
<polygon fill="lightgrey" stroke="black" points="126,-268 88.13,-250 126,-232 163.87,-250 126,-268"/>
<text text-anchor="middle" x="126" y="-246.3" font-family="Times New Roman,serif" font-size="14.00">64.0</text>
</g>
<!-- N201556483 -->
<g id="node2" class="node">
<title>N201556483</title>
<ellipse fill="#ff0000" stroke="black" cx="43" cy="-250" rx="27" ry="18"/>
<text text-anchor="middle" x="43" y="-246.3" font-family="Times New Roman,serif" font-size="14.00">&lt;</text>
</g>
<!-- N214074868 -->
<g id="node3" class="node">
<title>N214074868</title>
<ellipse fill="#ff0000" stroke="black" cx="43" cy="-178" rx="27" ry="18"/>
<text text-anchor="middle" x="43" y="-174.3" font-family="Times New Roman,serif" font-size="14.00">+</text>
</g>
<!-- N201556483&#45;&gt;N214074868 -->
<g id="edge1" class="edge">
<title>N201556483&#45;&gt;N214074868</title>
<path fill="none" stroke="black" d="M43,-231.7C43,-223.98 43,-214.71 43,-206.11"/>
<polygon fill="black" stroke="black" points="46.5,-206.1 43,-196.1 39.5,-206.1 46.5,-206.1"/>
</g>
<!-- N1442045361 -->
<g id="node4" class="node">
<title>N1442045361</title>
<ellipse fill="#ff0000" stroke="black" cx="117" cy="-178" rx="29.5" ry="18"/>
<text text-anchor="middle" x="117" y="-174.3" font-family="Times New Roman,serif" font-size="14.00">&#45;58.6</text>
</g>
<!-- N201556483&#45;&gt;N1442045361 -->
<g id="edge2" class="edge">
<title>N201556483&#45;&gt;N1442045361</title>
<path fill="none" stroke="black" d="M57.98,-234.83C68.44,-224.94 82.59,-211.55 94.42,-200.36"/>
<polygon fill="black" stroke="black" points="96.93,-202.8 101.79,-193.38 92.12,-197.71 96.93,-202.8"/>
</g>
<!-- N146611050 -->
<g id="node5" class="node">
<title>N146611050</title>
<ellipse fill="#ff0000" stroke="black" cx="43" cy="-106" rx="27" ry="18"/>
<text text-anchor="middle" x="43" y="-102.3" font-family="Times New Roman,serif" font-size="14.00">88.0</text>
</g>
<!-- N214074868&#45;&gt;N146611050 -->
<g id="edge3" class="edge">
<title>N214074868&#45;&gt;N146611050</title>
<path fill="none" stroke="black" d="M43,-159.7C43,-151.98 43,-142.71 43,-134.11"/>
<polygon fill="black" stroke="black" points="46.5,-134.1 43,-124.1 39.5,-134.1 46.5,-134.1"/>
</g>
<!-- N415138788 -->
<g id="node6" class="node">
<title>N415138788</title>
<ellipse fill="#0000ff" stroke="black" cx="115" cy="-106" rx="27" ry="18"/>
<text text-anchor="middle" x="115" y="-102.3" font-family="Times New Roman,serif" font-size="14.00">~=</text>
</g>
<!-- N214074868&#45;&gt;N415138788 -->
<g id="edge4" class="edge">
<title>N214074868&#45;&gt;N415138788</title>
<path fill="none" stroke="black" d="M57.57,-162.83C67.75,-152.94 81.52,-139.55 93.03,-128.36"/>
<polygon fill="black" stroke="black" points="95.47,-130.87 100.2,-121.38 90.59,-125.85 95.47,-130.87"/>
</g>
<!-- N13326370 -->
<g id="node7" class="node">
<title>N13326370</title>
<ellipse fill="#0000ff" stroke="black" cx="58" cy="-34" rx="27" ry="18"/>
<text text-anchor="middle" x="58" y="-30.3" font-family="Times New Roman,serif" font-size="14.00">34.5</text>
</g>
<!-- N415138788&#45;&gt;N13326370 -->
<g id="edge5" class="edge">
<title>N415138788&#45;&gt;N13326370</title>
<path fill="none" stroke="black" d="M102.63,-89.81C95.09,-80.55 85.3,-68.52 76.81,-58.09"/>
<polygon fill="black" stroke="black" points="79.37,-55.7 70.34,-50.16 73.94,-60.12 79.37,-55.7"/>
</g>
<!-- N1268650975 -->
<g id="node8" class="node">
<title>N1268650975</title>
<ellipse fill="#0000ff" stroke="black" cx="130" cy="-34" rx="27" ry="18"/>
<text text-anchor="middle" x="130" y="-30.3" font-family="Times New Roman,serif" font-size="14.00">52.2</text>
</g>
<!-- N415138788&#45;&gt;N1268650975 -->
<g id="edge6" class="edge">
<title>N415138788&#45;&gt;N1268650975</title>
<path fill="none" stroke="black" d="M118.63,-88.05C120.3,-80.26 122.32,-70.82 124.2,-62.08"/>
<polygon fill="black" stroke="black" points="127.63,-62.79 126.3,-52.28 120.78,-61.32 127.63,-62.79"/>
</g>
</g>
</svg>
