<?xml version="1.0" encoding="UTF-8" standalone="no"?>
<!DOCTYPE svg PUBLIC "-//W3C//DTD SVG 1.1//EN"
 "http://www.w3.org/Graphics/SVG/1.1/DTD/svg11.dtd">
<!-- Generated by graphviz version 7.0.1 (20221109.1506)
 -->
<!-- Title: G Pages: 1 -->
<svg width="390pt" height="418pt"
 viewBox="0.00 0.00 390.00 418.00" xmlns="http://www.w3.org/2000/svg" xmlns:xlink="http://www.w3.org/1999/xlink">
<g id="graph0" class="graph" transform="scale(1 1) rotate(0) translate(4 414)">
<title>G</title>
<polygon fill="white" stroke="none" points="-4,4 -4,-414 386,-414 386,4 -4,4"/>
<g id="clust1" class="cluster">
<title>cluster_P1622006612</title>
<polygon fill="none" stroke="black" points="8,-8 8,-402 374,-402 374,-8 8,-8"/>
<text text-anchor="middle" x="191" y="-386.8" font-family="Times New Roman,serif" font-size="14.00">c</text>
</g>
<g id="clust4" class="cluster">
<title>cluster_Z1753447031</title>
<polygon fill="none" stroke="black" points="253,-296 253,-371 345,-371 345,-296 253,-296"/>
<text text-anchor="middle" x="299" y="-355.8" font-family="Times New Roman,serif" font-size="14.00">MEMLIMIT</text>
</g>
<g id="clust2" class="cluster">
<title>cluster_Z2008362258</title>
<polygon fill="none" stroke="black" points="158,-296 158,-371 236,-371 236,-296 158,-296"/>
<text text-anchor="middle" x="197" y="-355.8" font-family="Times New Roman,serif" font-size="14.00">ARGMAX</text>
</g>
<!-- 0.0 -->
<g id="node1" class="node">
<title>0.0</title>
<polygon fill="lightgrey" stroke="black" points="197,-340 166,-322 197,-304 228,-322 197,-340"/>
<text text-anchor="middle" x="197" y="-318.3" font-family="Times New Roman,serif" font-size="14.00">0.0</text>
</g>
<!-- 64.0 -->
<g id="node2" class="node">
<title>64.0</title>
<polygon fill="lightgrey" stroke="black" points="299,-340 261.13,-322 299,-304 336.87,-322 299,-340"/>
<text text-anchor="middle" x="299" y="-318.3" font-family="Times New Roman,serif" font-size="14.00">64.0</text>
</g>
<!-- N1810132623 -->
<g id="node3" class="node">
<title>N1810132623</title>
<ellipse fill="#ff0000" stroke="black" cx="103" cy="-322" rx="27" ry="18"/>
<text text-anchor="middle" x="103" y="-318.3" font-family="Times New Roman,serif" font-size="14.00">&gt;</text>
</g>
<!-- N895947612 -->
<g id="node4" class="node">
<title>N895947612</title>
<ellipse fill="#ff0000" stroke="black" cx="81" cy="-250" rx="27" ry="18"/>
<text text-anchor="middle" x="81" y="-246.3" font-family="Times New Roman,serif" font-size="14.00">&#45;</text>
</g>
<!-- N1810132623&#45;&gt;N895947612 -->
<g id="edge1" class="edge">
<title>N1810132623&#45;&gt;N895947612</title>
<path fill="none" stroke="black" d="M97.67,-304.05C95.27,-296.4 92.37,-287.16 89.66,-278.56"/>
<polygon fill="black" stroke="black" points="93.07,-277.72 86.73,-269.23 86.39,-279.82 93.07,-277.72"/>
</g>
<!-- N846492085 -->
<g id="node5" class="node">
<title>N846492085</title>
<ellipse fill="#ff0000" stroke="black" cx="156" cy="-250" rx="27" ry="18"/>
<text text-anchor="middle" x="156" y="-246.3" font-family="Times New Roman,serif" font-size="14.00">:=</text>
</g>
<!-- N1810132623&#45;&gt;N846492085 -->
<g id="edge2" class="edge">
<title>N1810132623&#45;&gt;N846492085</title>
<path fill="none" stroke="black" d="M114.76,-305.46C121.42,-296.67 129.89,-285.48 137.43,-275.53"/>
<polygon fill="black" stroke="black" points="140.11,-277.78 143.36,-267.7 134.53,-273.56 140.11,-277.78"/>
</g>
<!-- N1096283470 -->
<g id="node6" class="node">
<title>N1096283470</title>
<ellipse fill="#ff0000" stroke="black" cx="79" cy="-178" rx="27" ry="18"/>
<text text-anchor="middle" x="79" y="-174.3" font-family="Times New Roman,serif" font-size="14.00">50.0</text>
</g>
<!-- N895947612&#45;&gt;N1096283470 -->
<g id="edge3" class="edge">
<title>N895947612&#45;&gt;N1096283470</title>
<path fill="none" stroke="black" d="M80.51,-231.7C80.3,-224.41 80.05,-215.73 79.82,-207.54"/>
<polygon fill="black" stroke="black" points="83.32,-207.51 79.53,-197.62 76.32,-207.71 83.32,-207.51"/>
</g>
<!-- N152005629 -->
<g id="node7" class="node">
<title>N152005629</title>
<ellipse fill="#0000ff" stroke="black" cx="156" cy="-178" rx="32.49" ry="18"/>
<text text-anchor="middle" x="156" y="-174.3" font-family="Times New Roman,serif" font-size="14.00">if&#45;else</text>
</g>
<!-- N846492085&#45;&gt;N152005629 -->
<g id="edge4" class="edge">
<title>N846492085&#45;&gt;N152005629</title>
<path fill="none" stroke="black" d="M156,-231.7C156,-224.41 156,-215.73 156,-207.54"/>
<polygon fill="black" stroke="black" points="159.5,-207.62 156,-197.62 152.5,-207.62 159.5,-207.62"/>
</g>
<!-- N75457651 -->
<g id="node8" class="node">
<title>N75457651</title>
<ellipse fill="#ff0000" stroke="black" cx="236" cy="-178" rx="29.5" ry="18"/>
<text text-anchor="middle" x="236" y="-174.3" font-family="Times New Roman,serif" font-size="14.00">&#45;81.2</text>
</g>
<!-- N846492085&#45;&gt;N75457651 -->
<g id="edge5" class="edge">
<title>N846492085&#45;&gt;N75457651</title>
<path fill="none" stroke="black" d="M171.81,-235.17C183.05,-225.33 198.39,-211.91 211.25,-200.66"/>
<polygon fill="black" stroke="black" points="213.32,-203.5 218.54,-194.28 208.71,-198.23 213.32,-203.5"/>
</g>
<!-- N362239120 -->
<g id="node9" class="node">
<title>N362239120</title>
<ellipse fill="#0000ff" stroke="black" cx="64" cy="-106" rx="27" ry="18"/>
<text text-anchor="middle" x="64" y="-102.3" font-family="Times New Roman,serif" font-size="14.00">[]</text>
</g>
<!-- N152005629&#45;&gt;N362239120 -->
<g id="edge6" class="edge">
<title>N152005629&#45;&gt;N362239120</title>
<path fill="none" stroke="black" d="M137.38,-162.83C123.82,-152.51 105.25,-138.39 90.19,-126.93"/>
<polygon fill="black" stroke="black" points="92.63,-124.38 82.55,-121.11 88.39,-129.95 92.63,-124.38"/>
</g>
<!-- N1796488937 -->
<g id="node10" class="node">
<title>N1796488937</title>
<ellipse fill="#0000ff" stroke="black" cx="156" cy="-106" rx="27" ry="18"/>
<text text-anchor="middle" x="156" y="-102.3" font-family="Times New Roman,serif" font-size="14.00">~!=</text>
</g>
<!-- N152005629&#45;&gt;N1796488937 -->
<g id="edge7" class="edge">
<title>N152005629&#45;&gt;N1796488937</title>
<path fill="none" stroke="black" d="M156,-159.7C156,-152.41 156,-143.73 156,-135.54"/>
<polygon fill="black" stroke="black" points="159.5,-135.62 156,-125.62 152.5,-135.62 159.5,-135.62"/>
</g>
<!-- N423031029 -->
<g id="node11" class="node">
<title>N423031029</title>
<ellipse fill="#0000ff" stroke="black" cx="265" cy="-106" rx="27" ry="18"/>
<text text-anchor="middle" x="265" y="-102.3" font-family="Times New Roman,serif" font-size="14.00">*</text>
</g>
<!-- N152005629&#45;&gt;N423031029 -->
<g id="edge8" class="edge">
<title>N152005629&#45;&gt;N423031029</title>
<path fill="none" stroke="black" d="M176.76,-163.67C193.72,-152.77 217.88,-137.26 236.63,-125.22"/>
<polygon fill="black" stroke="black" points="238.34,-128.28 244.87,-119.93 234.56,-122.39 238.34,-128.28"/>
</g>
<!-- N1712669532 -->
<g id="node12" class="node">
<title>N1712669532</title>
<ellipse fill="#0000ff" stroke="black" cx="43" cy="-34" rx="27" ry="18"/>
<text text-anchor="middle" x="43" y="-30.3" font-family="Times New Roman,serif" font-size="14.00">74.5</text>
</g>
<!-- N362239120&#45;&gt;N1712669532 -->
<g id="edge9" class="edge">
<title>N362239120&#45;&gt;N1712669532</title>
<path fill="none" stroke="black" d="M58.92,-88.05C56.62,-80.4 53.85,-71.16 51.27,-62.56"/>
<polygon fill="black" stroke="black" points="54.7,-61.81 48.47,-53.24 47.99,-63.82 54.7,-61.81"/>
</g>
<!-- N1225373914 -->
<g id="node13" class="node">
<title>N1225373914</title>
<ellipse fill="#0000ff" stroke="black" cx="117" cy="-34" rx="29.5" ry="18"/>
<text text-anchor="middle" x="117" y="-30.3" font-family="Times New Roman,serif" font-size="14.00">&#45;29.2</text>
</g>
<!-- N1796488937&#45;&gt;N1225373914 -->
<g id="edge10" class="edge">
<title>N1796488937&#45;&gt;N1225373914</title>
<path fill="none" stroke="black" d="M146.95,-88.76C142.38,-80.55 136.71,-70.37 131.54,-61.09"/>
<polygon fill="black" stroke="black" points="134.66,-59.5 126.73,-52.47 128.54,-62.91 134.66,-59.5"/>
</g>
<!-- N60830820 -->
<g id="node14" class="node">
<title>N60830820</title>
<ellipse fill="#0000ff" stroke="black" cx="191" cy="-34" rx="27" ry="18"/>
<text text-anchor="middle" x="191" y="-30.3" font-family="Times New Roman,serif" font-size="14.00">28.1</text>
</g>
<!-- N1796488937&#45;&gt;N60830820 -->
<g id="edge11" class="edge">
<title>N1796488937&#45;&gt;N60830820</title>
<path fill="none" stroke="black" d="M164.29,-88.41C168.3,-80.39 173.22,-70.57 177.73,-61.54"/>
<polygon fill="black" stroke="black" points="180.75,-63.33 182.09,-52.82 174.49,-60.2 180.75,-63.33"/>
</g>
<!-- N759156157 -->
<g id="node15" class="node">
<title>N759156157</title>
<ellipse fill="#0000ff" stroke="black" cx="265" cy="-34" rx="29.5" ry="18"/>
<text text-anchor="middle" x="265" y="-30.3" font-family="Times New Roman,serif" font-size="14.00">&#45;81.6</text>
</g>
<!-- N423031029&#45;&gt;N759156157 -->
<g id="edge12" class="edge">
<title>N423031029&#45;&gt;N759156157</title>
<path fill="none" stroke="black" d="M265,-87.7C265,-80.41 265,-71.73 265,-63.54"/>
<polygon fill="black" stroke="black" points="268.5,-63.62 265,-53.62 261.5,-63.62 268.5,-63.62"/>
</g>
<!-- N1635546341 -->
<g id="node16" class="node">
<title>N1635546341</title>
<ellipse fill="#0000ff" stroke="black" cx="339" cy="-34" rx="27" ry="18"/>
<text text-anchor="middle" x="339" y="-30.3" font-family="Times New Roman,serif" font-size="14.00">60.8</text>
</g>
<!-- N423031029&#45;&gt;N1635546341 -->
<g id="edge13" class="edge">
<title>N423031029&#45;&gt;N1635546341</title>
<path fill="none" stroke="black" d="M279.98,-90.83C290.24,-81.13 304.06,-68.06 315.74,-57"/>
<polygon fill="black" stroke="black" points="317.83,-59.84 322.69,-50.42 313.02,-54.75 317.83,-59.84"/>
</g>
</g>
</svg>
