<?xml version="1.0" encoding="UTF-8" standalone="no"?>
<!DOCTYPE svg PUBLIC "-//W3C//DTD SVG 1.1//EN"
 "http://www.w3.org/Graphics/SVG/1.1/DTD/svg11.dtd">
<!-- Generated by graphviz version 7.0.1 (20221109.1506)
 -->
<!-- Title: G Pages: 1 -->
<svg width="614pt" height="346pt"
 viewBox="0.00 0.00 614.00 346.00" xmlns="http://www.w3.org/2000/svg" xmlns:xlink="http://www.w3.org/1999/xlink">
<g id="graph0" class="graph" transform="scale(1 1) rotate(0) translate(4 342)">
<title>G</title>
<polygon fill="white" stroke="none" points="-4,4 -4,-342 610,-342 610,4 -4,4"/>
<g id="clust1" class="cluster">
<title>cluster_P403424356</title>
<polygon fill="none" stroke="black" points="8,-8 8,-330 598,-330 598,-8 8,-8"/>
<text text-anchor="middle" x="303" y="-314.8" font-family="Times New Roman,serif" font-size="14.00">c</text>
</g>
<g id="clust3" class="cluster">
<title>cluster_Z1566723494</title>
<polygon fill="none" stroke="black" points="500,-224 500,-299 578,-299 578,-224 500,-224"/>
<text text-anchor="middle" x="539" y="-283.8" font-family="Times New Roman,serif" font-size="14.00">ARGMIN</text>
</g>
<g id="clust4" class="cluster">
<title>cluster_Z510113906</title>
<polygon fill="none" stroke="black" points="354,-224 354,-299 446,-299 446,-224 354,-224"/>
<text text-anchor="middle" x="400" y="-283.8" font-family="Times New Roman,serif" font-size="14.00">MEMLIMIT</text>
</g>
<!-- 0.0 -->
<g id="node1" class="node">
<title>0.0</title>
<polygon fill="lightgrey" stroke="black" points="539,-268 508,-250 539,-232 570,-250 539,-268"/>
<text text-anchor="middle" x="539" y="-246.3" font-family="Times New Roman,serif" font-size="14.00">0.0</text>
</g>
<!-- 64.0 -->
<g id="node2" class="node">
<title>64.0</title>
<polygon fill="lightgrey" stroke="black" points="400,-268 362.13,-250 400,-232 437.87,-250 400,-268"/>
<text text-anchor="middle" x="400" y="-246.3" font-family="Times New Roman,serif" font-size="14.00">64.0</text>
</g>
<!-- N1223685984 -->
<g id="node3" class="node">
<title>N1223685984</title>
<ellipse fill="#0000ff" stroke="black" cx="224" cy="-250" rx="27" ry="18"/>
<text text-anchor="middle" x="224" y="-246.3" font-family="Times New Roman,serif" font-size="14.00">&lt;</text>
</g>
<!-- N1076835071 -->
<g id="node4" class="node">
<title>N1076835071</title>
<ellipse fill="#0000ff" stroke="black" cx="212" cy="-178" rx="27" ry="18"/>
<text text-anchor="middle" x="212" y="-174.3" font-family="Times New Roman,serif" font-size="14.00">*</text>
</g>
<!-- N1223685984&#45;&gt;N1076835071 -->
<g id="edge1" class="edge">
<title>N1223685984&#45;&gt;N1076835071</title>
<path fill="none" stroke="black" d="M221.03,-231.7C219.77,-224.32 218.26,-215.52 216.84,-207.25"/>
<polygon fill="black" stroke="black" points="220.33,-206.86 215.19,-197.6 213.43,-208.04 220.33,-206.86"/>
</g>
<!-- N1463757745 -->
<g id="node5" class="node">
<title>N1463757745</title>
<ellipse fill="#0000ff" stroke="black" cx="376" cy="-178" rx="27" ry="18"/>
<text text-anchor="middle" x="376" y="-174.3" font-family="Times New Roman,serif" font-size="14.00">&gt;</text>
</g>
<!-- N1223685984&#45;&gt;N1463757745 -->
<g id="edge2" class="edge">
<title>N1223685984&#45;&gt;N1463757745</title>
<path fill="none" stroke="black" d="M245.78,-238.97C271.51,-227.12 314.55,-207.3 344.06,-193.71"/>
<polygon fill="black" stroke="black" points="345.27,-197.01 352.89,-189.64 342.34,-190.65 345.27,-197.01"/>
</g>
<!-- N1525262377 -->
<g id="node6" class="node">
<title>N1525262377</title>
<ellipse fill="#0000ff" stroke="black" cx="115" cy="-106" rx="27" ry="18"/>
<text text-anchor="middle" x="115" y="-102.3" font-family="Times New Roman,serif" font-size="14.00">&gt;</text>
</g>
<!-- N1076835071&#45;&gt;N1525262377 -->
<g id="edge3" class="edge">
<title>N1076835071&#45;&gt;N1525262377</title>
<path fill="none" stroke="black" d="M194.21,-164.16C179.58,-153.6 158.61,-138.47 141.93,-126.43"/>
<polygon fill="black" stroke="black" points="144.06,-123.66 133.91,-120.64 139.97,-129.33 144.06,-123.66"/>
</g>
<!-- N1837760739 -->
<g id="node7" class="node">
<title>N1837760739</title>
<ellipse fill="#0000ff" stroke="black" cx="212" cy="-106" rx="27" ry="18"/>
<text text-anchor="middle" x="212" y="-102.3" font-family="Times New Roman,serif" font-size="14.00">|</text>
</g>
<!-- N1076835071&#45;&gt;N1837760739 -->
<g id="edge4" class="edge">
<title>N1076835071&#45;&gt;N1837760739</title>
<path fill="none" stroke="black" d="M212,-159.7C212,-152.41 212,-143.73 212,-135.54"/>
<polygon fill="black" stroke="black" points="215.5,-135.62 212,-125.62 208.5,-135.62 215.5,-135.62"/>
</g>
<!-- N1597462040 -->
<g id="node12" class="node">
<title>N1597462040</title>
<ellipse fill="#0000ff" stroke="black" cx="376" cy="-106" rx="27" ry="18"/>
<text text-anchor="middle" x="376" y="-102.3" font-family="Times New Roman,serif" font-size="14.00">/</text>
</g>
<!-- N1463757745&#45;&gt;N1597462040 -->
<g id="edge9" class="edge">
<title>N1463757745&#45;&gt;N1597462040</title>
<path fill="none" stroke="black" d="M376,-159.7C376,-152.41 376,-143.73 376,-135.54"/>
<polygon fill="black" stroke="black" points="379.5,-135.62 376,-125.62 372.5,-135.62 379.5,-135.62"/>
</g>
<!-- N403716510 -->
<g id="node13" class="node">
<title>N403716510</title>
<ellipse fill="#0000ff" stroke="black" cx="487" cy="-106" rx="27" ry="18"/>
<text text-anchor="middle" x="487" y="-102.3" font-family="Times New Roman,serif" font-size="14.00">:=</text>
</g>
<!-- N1463757745&#45;&gt;N403716510 -->
<g id="edge10" class="edge">
<title>N1463757745&#45;&gt;N403716510</title>
<path fill="none" stroke="black" d="M395.08,-164.97C412.47,-154 438.41,-137.64 458.3,-125.1"/>
<polygon fill="black" stroke="black" points="459.92,-128.21 466.52,-119.92 456.19,-122.29 459.92,-128.21"/>
</g>
<!-- N1418428263 -->
<g id="node8" class="node">
<title>N1418428263</title>
<ellipse fill="#0000ff" stroke="black" cx="43" cy="-34" rx="27" ry="18"/>
<text text-anchor="middle" x="43" y="-30.3" font-family="Times New Roman,serif" font-size="14.00">28.7</text>
</g>
<!-- N1525262377&#45;&gt;N1418428263 -->
<g id="edge5" class="edge">
<title>N1525262377&#45;&gt;N1418428263</title>
<path fill="none" stroke="black" d="M100.08,-90.5C90.23,-80.92 77.14,-68.19 65.97,-57.34"/>
<polygon fill="black" stroke="black" points="68.59,-55 58.98,-50.54 63.71,-60.02 68.59,-55"/>
</g>
<!-- N2059904228 -->
<g id="node9" class="node">
<title>N2059904228</title>
<ellipse fill="#0000ff" stroke="black" cx="115" cy="-34" rx="27" ry="18"/>
<text text-anchor="middle" x="115" y="-30.3" font-family="Times New Roman,serif" font-size="14.00">85.6</text>
</g>
<!-- N1525262377&#45;&gt;N2059904228 -->
<g id="edge6" class="edge">
<title>N1525262377&#45;&gt;N2059904228</title>
<path fill="none" stroke="black" d="M115,-87.7C115,-80.41 115,-71.73 115,-63.54"/>
<polygon fill="black" stroke="black" points="118.5,-63.62 115,-53.62 111.5,-63.62 118.5,-63.62"/>
</g>
<!-- N1836643189 -->
<g id="node10" class="node">
<title>N1836643189</title>
<ellipse fill="#0000ff" stroke="black" cx="189" cy="-34" rx="29.5" ry="18"/>
<text text-anchor="middle" x="189" y="-30.3" font-family="Times New Roman,serif" font-size="14.00">&#45;81.4</text>
</g>
<!-- N1837760739&#45;&gt;N1836643189 -->
<g id="edge7" class="edge">
<title>N1837760739&#45;&gt;N1836643189</title>
<path fill="none" stroke="black" d="M206.43,-88.05C203.92,-80.4 200.88,-71.16 198.05,-62.56"/>
<polygon fill="black" stroke="black" points="201.44,-61.63 194.99,-53.23 194.79,-63.82 201.44,-61.63"/>
</g>
<!-- N1355316001 -->
<g id="node11" class="node">
<title>N1355316001</title>
<ellipse fill="#0000ff" stroke="black" cx="265" cy="-34" rx="29.5" ry="18"/>
<text text-anchor="middle" x="265" y="-30.3" font-family="Times New Roman,serif" font-size="14.00">&#45;83.5</text>
</g>
<!-- N1837760739&#45;&gt;N1355316001 -->
<g id="edge8" class="edge">
<title>N1837760739&#45;&gt;N1355316001</title>
<path fill="none" stroke="black" d="M223.76,-89.46C230.42,-80.67 238.89,-69.48 246.43,-59.53"/>
<polygon fill="black" stroke="black" points="249.11,-61.78 252.36,-51.7 243.53,-57.56 249.11,-61.78"/>
</g>
<!-- N853119666 -->
<g id="node14" class="node">
<title>N853119666</title>
<ellipse fill="#0000ff" stroke="black" cx="339" cy="-34" rx="27" ry="18"/>
<text text-anchor="middle" x="339" y="-30.3" font-family="Times New Roman,serif" font-size="14.00">read</text>
</g>
<!-- N1597462040&#45;&gt;N853119666 -->
<g id="edge11" class="edge">
<title>N1597462040&#45;&gt;N853119666</title>
<path fill="none" stroke="black" d="M367.42,-88.76C363.08,-80.55 357.7,-70.37 352.79,-61.09"/>
<polygon fill="black" stroke="black" points="356.01,-59.69 348.24,-52.49 349.82,-62.96 356.01,-59.69"/>
</g>
<!-- N559670971 -->
<g id="node15" class="node">
<title>N559670971</title>
<ellipse fill="#0000ff" stroke="black" cx="413" cy="-34" rx="29.5" ry="18"/>
<text text-anchor="middle" x="413" y="-30.3" font-family="Times New Roman,serif" font-size="14.00">&#45;72.4</text>
</g>
<!-- N1597462040&#45;&gt;N559670971 -->
<g id="edge12" class="edge">
<title>N1597462040&#45;&gt;N559670971</title>
<path fill="none" stroke="black" d="M384.58,-88.76C388.82,-80.75 394.04,-70.88 398.84,-61.79"/>
<polygon fill="black" stroke="black" points="401.92,-63.45 403.5,-52.97 395.73,-60.18 401.92,-63.45"/>
</g>
<!-- N1144648478 -->
<g id="node16" class="node">
<title>N1144648478</title>
<ellipse fill="#0000ff" stroke="black" cx="487" cy="-34" rx="27" ry="18"/>
<text text-anchor="middle" x="487" y="-30.3" font-family="Times New Roman,serif" font-size="14.00">49.7</text>
</g>
<!-- N403716510&#45;&gt;N1144648478 -->
<g id="edge13" class="edge">
<title>N403716510&#45;&gt;N1144648478</title>
<path fill="none" stroke="black" d="M487,-87.7C487,-80.41 487,-71.73 487,-63.54"/>
<polygon fill="black" stroke="black" points="490.5,-63.62 487,-53.62 483.5,-63.62 490.5,-63.62"/>
</g>
<!-- N1576861390 -->
<g id="node17" class="node">
<title>N1576861390</title>
<ellipse fill="#0000ff" stroke="black" cx="561" cy="-34" rx="29.5" ry="18"/>
<text text-anchor="middle" x="561" y="-30.3" font-family="Times New Roman,serif" font-size="14.00">&#45;76.1</text>
</g>
<!-- N403716510&#45;&gt;N1576861390 -->
<g id="edge14" class="edge">
<title>N403716510&#45;&gt;N1576861390</title>
<path fill="none" stroke="black" d="M501.98,-90.83C512.17,-81.19 525.87,-68.23 537.51,-57.22"/>
<polygon fill="black" stroke="black" points="539.58,-60.08 544.44,-50.67 534.77,-55 539.58,-60.08"/>
</g>
</g>
</svg>
