<?xml version="1.0" encoding="UTF-8" standalone="no"?>
<!DOCTYPE svg PUBLIC "-//W3C//DTD SVG 1.1//EN"
 "http://www.w3.org/Graphics/SVG/1.1/DTD/svg11.dtd">
<!-- Generated by graphviz version 6.0.2 (20221011.1828)
 -->
<!-- Title: G Pages: 1 -->
<svg width="196pt" height="202pt"
 viewBox="0.00 0.00 196.00 202.00" xmlns="http://www.w3.org/2000/svg" xmlns:xlink="http://www.w3.org/1999/xlink">
<g id="graph0" class="graph" transform="scale(1 1) rotate(0) translate(4 198)">
<title>G</title>
<polygon fill="white" stroke="none" points="-4,4 -4,-198 192,-198 192,4 -4,4"/>
<g id="clust1" class="cluster">
<title>cluster_P1595953398</title>
<polygon fill="none" stroke="black" points="8,-8 8,-186 180,-186 180,-8 8,-8"/>
<text text-anchor="middle" x="94" y="-170.8" font-family="Times New Roman,serif" font-size="14.00">c</text>
</g>
<g id="clust2" class="cluster">
<title>cluster_Z2017354584</title>
<polygon fill="none" stroke="black" points="80,-80 80,-155 172,-155 172,-80 80,-80"/>
<text text-anchor="middle" x="126" y="-139.8" font-family="Times New Roman,serif" font-size="14.00">MEMLIMIT</text>
</g>
<!-- 64.0 -->
<g id="node1" class="node">
<title>64.0</title>
<polygon fill="lightgrey" stroke="black" points="126,-124 88.13,-106 126,-88 163.87,-106 126,-124"/>
<text text-anchor="middle" x="126" y="-102.3" font-family="Times New Roman,serif" font-size="14.00">64.0</text>
</g>
<!-- N1681595665 -->
<g id="node2" class="node">
<title>N1681595665</title>
<ellipse fill="#ff0000" stroke="black" cx="43" cy="-106" rx="27" ry="18"/>
<text text-anchor="middle" x="43" y="-102.3" font-family="Times New Roman,serif" font-size="14.00">&lt;</text>
</g>
<!-- N787867107 -->
<g id="node3" class="node">
<title>N787867107</title>
<ellipse fill="#0000ff" stroke="black" cx="43" cy="-34" rx="27" ry="18"/>
<text text-anchor="middle" x="43" y="-30.3" font-family="Times New Roman,serif" font-size="14.00">52.2</text>
</g>
<!-- N1681595665&#45;&gt;N787867107 -->
<g id="edge1" class="edge">
<title>N1681595665&#45;&gt;N787867107</title>
<path fill="none" stroke="black" d="M43,-87.7C43,-79.98 43,-70.71 43,-62.11"/>
<polygon fill="black" stroke="black" points="46.5,-62.1 43,-52.1 39.5,-62.1 46.5,-62.1"/>
</g>
<!-- N57494364 -->
<g id="node4" class="node">
<title>N57494364</title>
<ellipse fill="#ff0000" stroke="black" cx="117" cy="-34" rx="29.5" ry="18"/>
<text text-anchor="middle" x="117" y="-30.3" font-family="Times New Roman,serif" font-size="14.00">&#45;58.6</text>
</g>
<!-- N1681595665&#45;&gt;N57494364 -->
<g id="edge2" class="edge">
<title>N1681595665&#45;&gt;N57494364</title>
<path fill="none" stroke="black" d="M57.98,-90.83C68.44,-80.94 82.59,-67.55 94.42,-56.36"/>
<polygon fill="black" stroke="black" points="96.93,-58.8 101.79,-49.38 92.12,-53.71 96.93,-58.8"/>
</g>
</g>
</svg>
