<?xml version="1.0" encoding="UTF-8" standalone="no"?>
<!DOCTYPE svg PUBLIC "-//W3C//DTD SVG 1.1//EN"
 "http://www.w3.org/Graphics/SVG/1.1/DTD/svg11.dtd">
<!-- Generated by graphviz version 6.0.2 (20221011.1828)
 -->
<!-- Title: G Pages: 1 -->
<svg width="386pt" height="274pt"
 viewBox="0.00 0.00 386.00 274.00" xmlns="http://www.w3.org/2000/svg" xmlns:xlink="http://www.w3.org/1999/xlink">
<g id="graph0" class="graph" transform="scale(1 1) rotate(0) translate(4 270)">
<title>G</title>
<polygon fill="white" stroke="none" points="-4,4 -4,-270 382,-270 382,4 -4,4"/>
<g id="clust1" class="cluster">
<title>cluster_P1595953398</title>
<polygon fill="none" stroke="black" points="8,-8 8,-258 370,-258 370,-8 8,-8"/>
<text text-anchor="middle" x="189" y="-242.8" font-family="Times New Roman,serif" font-size="14.00">c</text>
</g>
<g id="clust2" class="cluster">
<title>cluster_Z2017354584</title>
<polygon fill="none" stroke="black" points="241,-152 241,-227 333,-227 333,-152 241,-152"/>
<text text-anchor="middle" x="287" y="-211.8" font-family="Times New Roman,serif" font-size="14.00">MEMLIMIT</text>
</g>
<!-- 64.0 -->
<g id="node1" class="node">
<title>64.0</title>
<polygon fill="lightgrey" stroke="black" points="287,-196 249.13,-178 287,-160 324.87,-178 287,-196"/>
<text text-anchor="middle" x="287" y="-174.3" font-family="Times New Roman,serif" font-size="14.00">64.0</text>
</g>
<!-- N731395981 -->
<g id="node2" class="node">
<title>N731395981</title>
<ellipse fill="#0000ff" stroke="black" cx="147" cy="-178" rx="27" ry="18"/>
<text text-anchor="middle" x="147" y="-174.3" font-family="Times New Roman,serif" font-size="14.00">{}</text>
</g>
<!-- N1196765369 -->
<g id="node3" class="node">
<title>N1196765369</title>
<ellipse fill="#0000ff" stroke="black" cx="74" cy="-106" rx="27" ry="18"/>
<text text-anchor="middle" x="74" y="-102.3" font-family="Times New Roman,serif" font-size="14.00">&#45;</text>
</g>
<!-- N731395981&#45;&gt;N1196765369 -->
<g id="edge1" class="edge">
<title>N731395981&#45;&gt;N1196765369</title>
<path fill="none" stroke="black" d="M132.23,-162.83C121.84,-152.87 107.76,-139.37 96.04,-128.14"/>
<polygon fill="black" stroke="black" points="98.39,-125.54 88.75,-121.14 93.55,-130.59 98.39,-125.54"/>
</g>
<!-- N486898233 -->
<g id="node4" class="node">
<title>N486898233</title>
<ellipse fill="#0000ff" stroke="black" cx="147" cy="-106" rx="27" ry="18"/>
<text text-anchor="middle" x="147" y="-102.3" font-family="Times New Roman,serif" font-size="14.00">*</text>
</g>
<!-- N731395981&#45;&gt;N486898233 -->
<g id="edge2" class="edge">
<title>N731395981&#45;&gt;N486898233</title>
<path fill="none" stroke="black" d="M147,-159.7C147,-151.98 147,-142.71 147,-134.11"/>
<polygon fill="black" stroke="black" points="150.5,-134.1 147,-124.1 143.5,-134.1 150.5,-134.1"/>
</g>
<!-- N650023597 -->
<g id="node5" class="node">
<title>N650023597</title>
<ellipse fill="#0000ff" stroke="black" cx="263" cy="-106" rx="27" ry="18"/>
<text text-anchor="middle" x="263" y="-102.3" font-family="Times New Roman,serif" font-size="14.00">~=</text>
</g>
<!-- N731395981&#45;&gt;N650023597 -->
<g id="edge3" class="edge">
<title>N731395981&#45;&gt;N650023597</title>
<path fill="none" stroke="black" d="M166.42,-165.28C185.15,-153.98 213.72,-136.74 234.93,-123.94"/>
<polygon fill="black" stroke="black" points="236.77,-126.92 243.52,-118.75 233.15,-120.92 236.77,-126.92"/>
</g>
<!-- N1282473384 -->
<g id="node6" class="node">
<title>N1282473384</title>
<ellipse fill="#0000ff" stroke="black" cx="45" cy="-34" rx="29.5" ry="18"/>
<text text-anchor="middle" x="45" y="-30.3" font-family="Times New Roman,serif" font-size="14.00">&#45;82.1</text>
</g>
<!-- N1196765369&#45;&gt;N1282473384 -->
<g id="edge4" class="edge">
<title>N1196765369&#45;&gt;N1282473384</title>
<path fill="none" stroke="black" d="M67.13,-88.41C63.78,-80.34 59.68,-70.43 55.92,-61.35"/>
<polygon fill="black" stroke="black" points="59.09,-59.86 52.02,-51.96 52.62,-62.53 59.09,-59.86"/>
</g>
<!-- N575593575 -->
<g id="node7" class="node">
<title>N575593575</title>
<ellipse fill="#0000ff" stroke="black" cx="119" cy="-34" rx="27" ry="18"/>
<text text-anchor="middle" x="119" y="-30.3" font-family="Times New Roman,serif" font-size="14.00">34.4</text>
</g>
<!-- N486898233&#45;&gt;N575593575 -->
<g id="edge5" class="edge">
<title>N486898233&#45;&gt;N575593575</title>
<path fill="none" stroke="black" d="M140.36,-88.41C137.09,-80.22 133.06,-70.14 129.38,-60.95"/>
<polygon fill="black" stroke="black" points="132.55,-59.45 125.59,-51.47 126.05,-62.05 132.55,-59.45"/>
</g>
<!-- N346861221 -->
<g id="node8" class="node">
<title>N346861221</title>
<ellipse fill="#0000ff" stroke="black" cx="191" cy="-34" rx="27" ry="18"/>
<text text-anchor="middle" x="191" y="-30.3" font-family="Times New Roman,serif" font-size="14.00">71.2</text>
</g>
<!-- N486898233&#45;&gt;N346861221 -->
<g id="edge6" class="edge">
<title>N486898233&#45;&gt;N346861221</title>
<path fill="none" stroke="black" d="M156.98,-89.12C162.5,-80.34 169.46,-69.26 175.65,-59.42"/>
<polygon fill="black" stroke="black" points="178.7,-61.15 181.06,-50.82 172.77,-57.42 178.7,-61.15"/>
</g>
<!-- N1188392295 -->
<g id="node9" class="node">
<title>N1188392295</title>
<ellipse fill="#0000ff" stroke="black" cx="263" cy="-34" rx="27" ry="18"/>
<text text-anchor="middle" x="263" y="-30.3" font-family="Times New Roman,serif" font-size="14.00">34.5</text>
</g>
<!-- N650023597&#45;&gt;N1188392295 -->
<g id="edge7" class="edge">
<title>N650023597&#45;&gt;N1188392295</title>
<path fill="none" stroke="black" d="M263,-87.7C263,-79.98 263,-70.71 263,-62.11"/>
<polygon fill="black" stroke="black" points="266.5,-62.1 263,-52.1 259.5,-62.1 266.5,-62.1"/>
</g>
<!-- N226710952 -->
<g id="node10" class="node">
<title>N226710952</title>
<ellipse fill="#0000ff" stroke="black" cx="335" cy="-34" rx="27" ry="18"/>
<text text-anchor="middle" x="335" y="-30.3" font-family="Times New Roman,serif" font-size="14.00">52.2</text>
</g>
<!-- N650023597&#45;&gt;N226710952 -->
<g id="edge8" class="edge">
<title>N650023597&#45;&gt;N226710952</title>
<path fill="none" stroke="black" d="M277.57,-90.83C287.75,-80.94 301.52,-67.55 313.03,-56.36"/>
<polygon fill="black" stroke="black" points="315.47,-58.87 320.2,-49.38 310.59,-53.85 315.47,-58.87"/>
</g>
</g>
</svg>
