<?xml version="1.0" encoding="UTF-8" standalone="no"?>
<!DOCTYPE svg PUBLIC "-//W3C//DTD SVG 1.1//EN"
 "http://www.w3.org/Graphics/SVG/1.1/DTD/svg11.dtd">
<!-- Generated by graphviz version 7.0.1 (20221109.1506)
 -->
<!-- Title: G Pages: 1 -->
<svg width="282pt" height="138pt"
 viewBox="0.00 0.00 282.00 138.00" xmlns="http://www.w3.org/2000/svg" xmlns:xlink="http://www.w3.org/1999/xlink">
<g id="graph0" class="graph" transform="scale(1 1) rotate(0) translate(4 134)">
<title>G</title>
<polygon fill="white" stroke="none" points="-4,4 -4,-134 278,-134 278,4 -4,4"/>
<g id="clust1" class="cluster">
<title>cluster_P403424356</title>
<polygon fill="none" stroke="black" points="8,-8 8,-122 266,-122 266,-8 8,-8"/>
<text text-anchor="middle" x="137" y="-106.8" font-family="Times New Roman,serif" font-size="14.00">c</text>
</g>
<g id="clust2" class="cluster">
<title>cluster_Z1393931310</title>
<polygon fill="none" stroke="black" points="180,-16 180,-91 258,-91 258,-16 180,-16"/>
<text text-anchor="middle" x="219" y="-75.8" font-family="Times New Roman,serif" font-size="14.00">ARGMAX</text>
</g>
<g id="clust4" class="cluster">
<title>cluster_Z510113906</title>
<polygon fill="none" stroke="black" points="80,-16 80,-91 172,-91 172,-16 80,-16"/>
<text text-anchor="middle" x="126" y="-75.8" font-family="Times New Roman,serif" font-size="14.00">MEMLIMIT</text>
</g>
<!-- 0.0 -->
<g id="node1" class="node">
<title>0.0</title>
<polygon fill="lightgrey" stroke="black" points="219,-60 188,-42 219,-24 250,-42 219,-60"/>
<text text-anchor="middle" x="219" y="-38.3" font-family="Times New Roman,serif" font-size="14.00">0.0</text>
</g>
<!-- 64.0 -->
<g id="node2" class="node">
<title>64.0</title>
<polygon fill="lightgrey" stroke="black" points="126,-60 88.13,-42 126,-24 163.87,-42 126,-60"/>
<text text-anchor="middle" x="126" y="-38.3" font-family="Times New Roman,serif" font-size="14.00">64.0</text>
</g>
<!-- N1458849419 -->
<g id="node3" class="node">
<title>N1458849419</title>
<ellipse fill="#0000ff" stroke="black" cx="43" cy="-42" rx="27" ry="18"/>
<text text-anchor="middle" x="43" y="-38.3" font-family="Times New Roman,serif" font-size="14.00">read</text>
</g>
</g>
</svg>
