<?xml version="1.0" encoding="UTF-8" standalone="no"?>
<!DOCTYPE svg PUBLIC "-//W3C//DTD SVG 1.1//EN"
 "http://www.w3.org/Graphics/SVG/1.1/DTD/svg11.dtd">
<!-- Generated by graphviz version 6.0.2 (20221011.1828)
 -->
<!-- Title: G Pages: 1 -->
<svg width="624pt" height="778pt"
 viewBox="0.00 0.00 624.00 778.00" xmlns="http://www.w3.org/2000/svg" xmlns:xlink="http://www.w3.org/1999/xlink">
<g id="graph0" class="graph" transform="scale(1 1) rotate(0) translate(4 774)">
<title>G</title>
<polygon fill="white" stroke="none" points="-4,4 -4,-774 620,-774 620,4 -4,4"/>
<g id="clust1" class="cluster">
<title>cluster_P1286783232</title>
<polygon fill="none" stroke="black" points="8,-8 8,-762 608,-762 608,-8 8,-8"/>
<text text-anchor="middle" x="308" y="-746.8" font-family="Times New Roman,serif" font-size="14.00">avg</text>
</g>
<g id="clust2" class="cluster">
<title>cluster_Z1753447031</title>
<polygon fill="none" stroke="black" points="332,-656 332,-731 419,-731 419,-656 332,-656"/>
<text text-anchor="middle" x="375.5" y="-715.8" font-family="Times New Roman,serif" font-size="14.00">MEMLIMIT</text>
</g>
<!-- 2.0 -->
<g id="node1" class="node">
<title>2.0</title>
<polygon fill="lightgrey" stroke="black" points="374,-700 343,-682 374,-664 405,-682 374,-700"/>
<text text-anchor="middle" x="374" y="-678.3" font-family="Times New Roman,serif" font-size="14.00">2.0</text>
</g>
<!-- N1883919084 -->
<g id="node2" class="node">
<title>N1883919084</title>
<ellipse fill="#fafafa" stroke="black" cx="295" cy="-682" rx="27" ry="18"/>
<text text-anchor="middle" x="295" y="-678.3" font-family="Times New Roman,serif" font-size="14.00">{}</text>
</g>
<!-- N1860513229 -->
<g id="node3" class="node">
<title>N1860513229</title>
<ellipse fill="#fafafa" stroke="black" cx="115" cy="-610" rx="27" ry="18"/>
<text text-anchor="middle" x="115" y="-606.3" font-family="Times New Roman,serif" font-size="14.00">:=</text>
</g>
<!-- N1883919084&#45;&gt;N1860513229 -->
<g id="edge1" class="edge">
<title>N1883919084&#45;&gt;N1860513229</title>
<path fill="none" stroke="black" d="M272.2,-672.13C240.64,-659.86 183.46,-637.62 147.45,-623.62"/>
<polygon fill="black" stroke="black" points="148.48,-620.27 137.9,-619.9 145.95,-626.79 148.48,-620.27"/>
</g>
<!-- N1150538133 -->
<g id="node4" class="node">
<title>N1150538133</title>
<ellipse fill="#fafafa" stroke="black" cx="258" cy="-610" rx="27" ry="18"/>
<text text-anchor="middle" x="258" y="-606.3" font-family="Times New Roman,serif" font-size="14.00">:=</text>
</g>
<!-- N1883919084&#45;&gt;N1150538133 -->
<g id="edge2" class="edge">
<title>N1883919084&#45;&gt;N1150538133</title>
<path fill="none" stroke="black" d="M286.42,-664.76C281.94,-656.28 276.35,-645.71 271.32,-636.2"/>
<polygon fill="black" stroke="black" points="274.3,-634.35 266.54,-627.15 268.11,-637.62 274.3,-634.35"/>
</g>
<!-- N662822946 -->
<g id="node5" class="node">
<title>N662822946</title>
<ellipse fill="#fafafa" stroke="black" cx="332" cy="-610" rx="29.5" ry="18"/>
<text text-anchor="middle" x="332" y="-606.3" font-family="Times New Roman,serif" font-size="14.00">while</text>
</g>
<!-- N1883919084&#45;&gt;N662822946 -->
<g id="edge3" class="edge">
<title>N1883919084&#45;&gt;N662822946</title>
<path fill="none" stroke="black" d="M303.58,-664.76C308,-656.4 313.49,-646.02 318.47,-636.61"/>
<polygon fill="black" stroke="black" points="321.63,-638.11 323.21,-627.63 315.44,-634.84 321.63,-638.11"/>
</g>
<!-- N92150540 -->
<g id="node6" class="node">
<title>N92150540</title>
<ellipse fill="#fafafa" stroke="black" cx="475" cy="-610" rx="27" ry="18"/>
<text text-anchor="middle" x="475" y="-606.3" font-family="Times New Roman,serif" font-size="14.00">/</text>
</g>
<!-- N1883919084&#45;&gt;N92150540 -->
<g id="edge4" class="edge">
<title>N1883919084&#45;&gt;N92150540</title>
<path fill="none" stroke="black" d="M310.69,-667.33C315.94,-663.26 321.98,-659.08 328,-656 363.97,-637.6 408.81,-625.23 439.44,-618.19"/>
<polygon fill="black" stroke="black" points="440.25,-621.59 449.25,-616 438.73,-614.76 440.25,-621.59"/>
</g>
<!-- N1110623531 -->
<g id="node7" class="node">
<title>N1110623531</title>
<ellipse fill="#fafafa" stroke="black" cx="43" cy="-538" rx="27" ry="18"/>
<text text-anchor="middle" x="43" y="-534.3" font-family="Times New Roman,serif" font-size="14.00">0.0</text>
</g>
<!-- N1860513229&#45;&gt;N1110623531 -->
<g id="edge5" class="edge">
<title>N1860513229&#45;&gt;N1110623531</title>
<path fill="none" stroke="black" d="M100.43,-594.83C90.25,-584.94 76.48,-571.55 64.97,-560.36"/>
<polygon fill="black" stroke="black" points="67.41,-557.85 57.8,-553.38 62.53,-562.87 67.41,-557.85"/>
</g>
<!-- N410495873 -->
<g id="node8" class="node">
<title>N410495873</title>
<ellipse fill="#fafafa" stroke="black" cx="115" cy="-538" rx="27" ry="18"/>
<text text-anchor="middle" x="115" y="-534.3" font-family="Times New Roman,serif" font-size="14.00">&#45;</text>
</g>
<!-- N1860513229&#45;&gt;N410495873 -->
<g id="edge6" class="edge">
<title>N1860513229&#45;&gt;N410495873</title>
<path fill="none" stroke="black" d="M115,-591.7C115,-583.98 115,-574.71 115,-566.11"/>
<polygon fill="black" stroke="black" points="118.5,-566.1 115,-556.1 111.5,-566.1 118.5,-566.1"/>
</g>
<!-- N2028371466 -->
<g id="node27" class="node">
<title>N2028371466</title>
<ellipse fill="#fafafa" stroke="black" cx="187" cy="-538" rx="27" ry="18"/>
<text text-anchor="middle" x="187" y="-534.3" font-family="Times New Roman,serif" font-size="14.00">1.0</text>
</g>
<!-- N1150538133&#45;&gt;N2028371466 -->
<g id="edge25" class="edge">
<title>N1150538133&#45;&gt;N2028371466</title>
<path fill="none" stroke="black" d="M243.29,-594.5C233.39,-584.73 220.16,-571.69 209.01,-560.7"/>
<polygon fill="black" stroke="black" points="211.27,-558.01 201.69,-553.49 206.36,-563 211.27,-558.01"/>
</g>
<!-- N198761306 -->
<g id="node28" class="node">
<title>N198761306</title>
<ellipse fill="#fafafa" stroke="black" cx="259" cy="-538" rx="27" ry="18"/>
<text text-anchor="middle" x="259" y="-534.3" font-family="Times New Roman,serif" font-size="14.00">0.0</text>
</g>
<!-- N1150538133&#45;&gt;N198761306 -->
<g id="edge26" class="edge">
<title>N1150538133&#45;&gt;N198761306</title>
<path fill="none" stroke="black" d="M258.25,-591.7C258.36,-583.98 258.49,-574.71 258.61,-566.11"/>
<polygon fill="black" stroke="black" points="262.11,-566.15 258.76,-556.1 255.11,-566.05 262.11,-566.15"/>
</g>
<!-- N798244209 -->
<g id="node29" class="node">
<title>N798244209</title>
<ellipse fill="#fafafa" stroke="black" cx="331" cy="-538" rx="27" ry="18"/>
<text text-anchor="middle" x="331" y="-534.3" font-family="Times New Roman,serif" font-size="14.00">&lt;</text>
</g>
<!-- N662822946&#45;&gt;N798244209 -->
<g id="edge27" class="edge">
<title>N662822946&#45;&gt;N798244209</title>
<path fill="none" stroke="black" d="M331.75,-591.7C331.64,-583.98 331.51,-574.71 331.39,-566.11"/>
<polygon fill="black" stroke="black" points="334.89,-566.05 331.24,-556.1 327.89,-566.15 334.89,-566.05"/>
</g>
<!-- N525571 -->
<g id="node30" class="node">
<title>N525571</title>
<ellipse fill="#fafafa" stroke="black" cx="403" cy="-538" rx="27" ry="18"/>
<text text-anchor="middle" x="403" y="-534.3" font-family="Times New Roman,serif" font-size="14.00">:=</text>
</g>
<!-- N662822946&#45;&gt;N525571 -->
<g id="edge28" class="edge">
<title>N662822946&#45;&gt;N525571</title>
<path fill="none" stroke="black" d="M347.06,-594.15C356.98,-584.37 370.13,-571.4 381.19,-560.5"/>
<polygon fill="black" stroke="black" points="383.79,-562.86 388.45,-553.35 378.87,-557.87 383.79,-562.86"/>
</g>
<!-- N1032986144 -->
<g id="node54" class="node">
<title>N1032986144</title>
<ellipse fill="#fafafa" stroke="black" cx="475" cy="-538" rx="27" ry="18"/>
<text text-anchor="middle" x="475" y="-534.3" font-family="Times New Roman,serif" font-size="14.00">[]</text>
</g>
<!-- N92150540&#45;&gt;N1032986144 -->
<g id="edge52" class="edge">
<title>N92150540&#45;&gt;N1032986144</title>
<path fill="none" stroke="black" d="M475,-591.7C475,-583.98 475,-574.71 475,-566.11"/>
<polygon fill="black" stroke="black" points="478.5,-566.1 475,-556.1 471.5,-566.1 478.5,-566.1"/>
</g>
<!-- N917819120 -->
<g id="node55" class="node">
<title>N917819120</title>
<ellipse fill="#fafafa" stroke="black" cx="560" cy="-538" rx="39.79" ry="18"/>
<text text-anchor="middle" x="560" y="-534.3" font-family="Times New Roman,serif" font-size="14.00">argc(...)</text>
</g>
<!-- N92150540&#45;&gt;N917819120 -->
<g id="edge53" class="edge">
<title>N92150540&#45;&gt;N917819120</title>
<path fill="none" stroke="black" d="M491.39,-595.5C503.41,-585.61 519.97,-571.96 533.81,-560.56"/>
<polygon fill="black" stroke="black" points="536.1,-563.22 541.6,-554.16 531.65,-557.81 536.1,-563.22"/>
</g>
<!-- N811587677 -->
<g id="node9" class="node">
<title>N811587677</title>
<ellipse fill="#fafafa" stroke="black" cx="108" cy="-466" rx="27" ry="18"/>
<text text-anchor="middle" x="108" y="-462.3" font-family="Times New Roman,serif" font-size="14.00">:=</text>
</g>
<!-- N410495873&#45;&gt;N811587677 -->
<g id="edge7" class="edge">
<title>N410495873&#45;&gt;N811587677</title>
<path fill="none" stroke="black" d="M113.27,-519.7C112.5,-511.98 111.57,-502.71 110.71,-494.11"/>
<polygon fill="black" stroke="black" points="114.19,-493.71 109.71,-484.1 107.22,-494.4 114.19,-493.71"/>
</g>
<!-- N1166807841 -->
<g id="node10" class="node">
<title>N1166807841</title>
<ellipse fill="#fafafa" stroke="black" cx="180" cy="-466" rx="27" ry="18"/>
<text text-anchor="middle" x="180" y="-462.3" font-family="Times New Roman,serif" font-size="14.00">&gt;</text>
</g>
<!-- N410495873&#45;&gt;N1166807841 -->
<g id="edge8" class="edge">
<title>N410495873&#45;&gt;N1166807841</title>
<path fill="none" stroke="black" d="M128.78,-522.15C137.66,-512.6 149.36,-499.99 159.34,-489.25"/>
<polygon fill="black" stroke="black" points="162,-491.53 166.24,-481.82 156.87,-486.77 162,-491.53"/>
</g>
<!-- N289639718 -->
<g id="node11" class="node">
<title>N289639718</title>
<ellipse fill="#fafafa" stroke="black" cx="46" cy="-394" rx="27" ry="18"/>
<text text-anchor="middle" x="46" y="-390.3" font-family="Times New Roman,serif" font-size="14.00">&lt;</text>
</g>
<!-- N811587677&#45;&gt;N289639718 -->
<g id="edge9" class="edge">
<title>N811587677&#45;&gt;N289639718</title>
<path fill="none" stroke="black" d="M94.85,-450.15C86.47,-440.69 75.44,-428.24 65.98,-417.56"/>
<polygon fill="black" stroke="black" points="68.38,-414.99 59.13,-409.82 63.14,-419.63 68.38,-414.99"/>
</g>
<!-- N885851948 -->
<g id="node12" class="node">
<title>N885851948</title>
<ellipse fill="#fafafa" stroke="black" cx="120" cy="-394" rx="29.5" ry="18"/>
<text text-anchor="middle" x="120" y="-390.3" font-family="Times New Roman,serif" font-size="14.00">&#45;14.7</text>
</g>
<!-- N811587677&#45;&gt;N885851948 -->
<g id="edge10" class="edge">
<title>N811587677&#45;&gt;N885851948</title>
<path fill="none" stroke="black" d="M110.9,-448.05C112.23,-440.35 113.82,-431.03 115.31,-422.36"/>
<polygon fill="black" stroke="black" points="118.8,-422.72 117.04,-412.28 111.9,-421.54 118.8,-422.72"/>
</g>
<!-- N1384722895 -->
<g id="node15" class="node">
<title>N1384722895</title>
<ellipse fill="#fafafa" stroke="black" cx="195" cy="-394" rx="27" ry="18"/>
<text text-anchor="middle" x="195" y="-390.3" font-family="Times New Roman,serif" font-size="14.00">*</text>
</g>
<!-- N1166807841&#45;&gt;N1384722895 -->
<g id="edge13" class="edge">
<title>N1166807841&#45;&gt;N1384722895</title>
<path fill="none" stroke="black" d="M183.63,-448.05C185.3,-440.26 187.32,-430.82 189.2,-422.08"/>
<polygon fill="black" stroke="black" points="192.63,-422.79 191.3,-412.28 185.78,-421.32 192.63,-422.79"/>
</g>
<!-- N245475541 -->
<g id="node16" class="node">
<title>N245475541</title>
<ellipse fill="#fafafa" stroke="black" cx="305" cy="-394" rx="27" ry="18"/>
<text text-anchor="middle" x="305" y="-390.3" font-family="Times New Roman,serif" font-size="14.00">+</text>
</g>
<!-- N1166807841&#45;&gt;N245475541 -->
<g id="edge14" class="edge">
<title>N1166807841&#45;&gt;N245475541</title>
<path fill="none" stroke="black" d="M200.08,-453.75C220.68,-442.22 252.9,-424.18 276.21,-411.12"/>
<polygon fill="black" stroke="black" points="277.95,-414.16 284.97,-406.22 274.53,-408.05 277.95,-414.16"/>
</g>
<!-- N2048834776 -->
<g id="node13" class="node">
<title>N2048834776</title>
<ellipse fill="#fafafa" stroke="black" cx="45" cy="-322" rx="29.5" ry="18"/>
<text text-anchor="middle" x="45" y="-318.3" font-family="Times New Roman,serif" font-size="14.00">&#45;28.0</text>
</g>
<!-- N289639718&#45;&gt;N2048834776 -->
<g id="edge11" class="edge">
<title>N289639718&#45;&gt;N2048834776</title>
<path fill="none" stroke="black" d="M45.75,-375.7C45.64,-367.98 45.51,-358.71 45.39,-350.11"/>
<polygon fill="black" stroke="black" points="48.89,-350.05 45.24,-340.1 41.89,-350.15 48.89,-350.05"/>
</g>
<!-- N1605283233 -->
<g id="node14" class="node">
<title>N1605283233</title>
<ellipse fill="#fafafa" stroke="black" cx="121" cy="-322" rx="29.5" ry="18"/>
<text text-anchor="middle" x="121" y="-318.3" font-family="Times New Roman,serif" font-size="14.00">&#45;20.2</text>
</g>
<!-- N289639718&#45;&gt;N1605283233 -->
<g id="edge12" class="edge">
<title>N289639718&#45;&gt;N1605283233</title>
<path fill="none" stroke="black" d="M61.18,-378.83C71.78,-368.94 86.13,-355.55 98.12,-344.36"/>
<polygon fill="black" stroke="black" points="100.67,-346.77 105.59,-337.38 95.89,-341.65 100.67,-346.77"/>
</g>
<!-- N22429093 -->
<g id="node17" class="node">
<title>N22429093</title>
<ellipse fill="#fafafa" stroke="black" cx="195" cy="-322" rx="27" ry="18"/>
<text text-anchor="middle" x="195" y="-318.3" font-family="Times New Roman,serif" font-size="14.00">6.2</text>
</g>
<!-- N1384722895&#45;&gt;N22429093 -->
<g id="edge15" class="edge">
<title>N1384722895&#45;&gt;N22429093</title>
<path fill="none" stroke="black" d="M195,-375.7C195,-367.98 195,-358.71 195,-350.11"/>
<polygon fill="black" stroke="black" points="198.5,-350.1 195,-340.1 191.5,-350.1 198.5,-350.1"/>
</g>
<!-- N733957003 -->
<g id="node18" class="node">
<title>N733957003</title>
<ellipse fill="#fafafa" stroke="black" cx="269" cy="-322" rx="29.5" ry="18"/>
<text text-anchor="middle" x="269" y="-318.3" font-family="Times New Roman,serif" font-size="14.00">&#45;43.6</text>
</g>
<!-- N1384722895&#45;&gt;N733957003 -->
<g id="edge16" class="edge">
<title>N1384722895&#45;&gt;N733957003</title>
<path fill="none" stroke="black" d="M209.98,-378.83C220.44,-368.94 234.59,-355.55 246.42,-344.36"/>
<polygon fill="black" stroke="black" points="248.93,-346.8 253.79,-337.38 244.12,-341.71 248.93,-346.8"/>
</g>
<!-- N815992954 -->
<g id="node19" class="node">
<title>N815992954</title>
<ellipse fill="#fafafa" stroke="black" cx="343" cy="-322" rx="27" ry="18"/>
<text text-anchor="middle" x="343" y="-318.3" font-family="Times New Roman,serif" font-size="14.00">|</text>
</g>
<!-- N245475541&#45;&gt;N815992954 -->
<g id="edge17" class="edge">
<title>N245475541&#45;&gt;N815992954</title>
<path fill="none" stroke="black" d="M313.81,-376.76C318.42,-368.28 324.16,-357.71 329.32,-348.2"/>
<polygon fill="black" stroke="black" points="332.54,-349.61 334.23,-339.15 326.39,-346.27 332.54,-349.61"/>
</g>
<!-- N868737467 -->
<g id="node20" class="node">
<title>N868737467</title>
<ellipse fill="#fafafa" stroke="black" cx="415" cy="-322" rx="27" ry="18"/>
<text text-anchor="middle" x="415" y="-318.3" font-family="Times New Roman,serif" font-size="14.00">~=</text>
</g>
<!-- N245475541&#45;&gt;N868737467 -->
<g id="edge18" class="edge">
<title>N245475541&#45;&gt;N868737467</title>
<path fill="none" stroke="black" d="M324.16,-380.81C341.67,-369.67 367.76,-353.06 387.49,-340.5"/>
<polygon fill="black" stroke="black" points="389.5,-343.37 396.06,-335.05 385.74,-337.47 389.5,-343.37"/>
</g>
<!-- N55331187 -->
<g id="node21" class="node">
<title>N55331187</title>
<ellipse fill="#fafafa" stroke="black" cx="193" cy="-250" rx="29.5" ry="18"/>
<text text-anchor="middle" x="193" y="-246.3" font-family="Times New Roman,serif" font-size="14.00">&#45;42.9</text>
</g>
<!-- N815992954&#45;&gt;N55331187 -->
<g id="edge19" class="edge">
<title>N815992954&#45;&gt;N55331187</title>
<path fill="none" stroke="black" d="M321.69,-310.91C316.86,-308.63 311.76,-306.23 307,-304 279.33,-291.04 247.83,-276.4 224.96,-265.8"/>
<polygon fill="black" stroke="black" points="226.27,-262.55 215.73,-261.52 223.33,-268.9 226.27,-262.55"/>
</g>
<!-- N1392425346 -->
<g id="node22" class="node">
<title>N1392425346</title>
<ellipse fill="#fafafa" stroke="black" cx="267" cy="-250" rx="27" ry="18"/>
<text text-anchor="middle" x="267" y="-246.3" font-family="Times New Roman,serif" font-size="14.00">~=</text>
</g>
<!-- N815992954&#45;&gt;N1392425346 -->
<g id="edge20" class="edge">
<title>N815992954&#45;&gt;N1392425346</title>
<path fill="none" stroke="black" d="M327.62,-306.83C316.8,-296.87 302.14,-283.37 289.95,-272.14"/>
<polygon fill="black" stroke="black" points="292.08,-269.34 282.36,-265.14 287.34,-274.49 292.08,-269.34"/>
</g>
<!-- N399931359 -->
<g id="node25" class="node">
<title>N399931359</title>
<ellipse fill="#fafafa" stroke="black" cx="341" cy="-250" rx="29.5" ry="18"/>
<text text-anchor="middle" x="341" y="-246.3" font-family="Times New Roman,serif" font-size="14.00">&#45;45.4</text>
</g>
<!-- N868737467&#45;&gt;N399931359 -->
<g id="edge23" class="edge">
<title>N868737467&#45;&gt;N399931359</title>
<path fill="none" stroke="black" d="M400.02,-306.83C389.56,-296.94 375.41,-283.55 363.58,-272.36"/>
<polygon fill="black" stroke="black" points="365.88,-269.71 356.21,-265.38 361.07,-274.8 365.88,-269.71"/>
</g>
<!-- N809762318 -->
<g id="node26" class="node">
<title>N809762318</title>
<ellipse fill="#fafafa" stroke="black" cx="417" cy="-250" rx="29.5" ry="18"/>
<text text-anchor="middle" x="417" y="-246.3" font-family="Times New Roman,serif" font-size="14.00">&#45;98.5</text>
</g>
<!-- N868737467&#45;&gt;N809762318 -->
<g id="edge24" class="edge">
<title>N868737467&#45;&gt;N809762318</title>
<path fill="none" stroke="black" d="M415.49,-303.7C415.71,-295.98 415.98,-286.71 416.23,-278.11"/>
<polygon fill="black" stroke="black" points="419.72,-278.2 416.51,-268.1 412.73,-278 419.72,-278.2"/>
</g>
<!-- N2054574951 -->
<g id="node23" class="node">
<title>N2054574951</title>
<ellipse fill="#fafafa" stroke="black" cx="195" cy="-178" rx="27" ry="18"/>
<text text-anchor="middle" x="195" y="-174.3" font-family="Times New Roman,serif" font-size="14.00">84.5</text>
</g>
<!-- N1392425346&#45;&gt;N2054574951 -->
<g id="edge21" class="edge">
<title>N1392425346&#45;&gt;N2054574951</title>
<path fill="none" stroke="black" d="M252.43,-234.83C242.25,-224.94 228.48,-211.55 216.97,-200.36"/>
<polygon fill="black" stroke="black" points="219.41,-197.85 209.8,-193.38 214.53,-202.87 219.41,-197.85"/>
</g>
<!-- N1991294891 -->
<g id="node24" class="node">
<title>N1991294891</title>
<ellipse fill="#fafafa" stroke="black" cx="267" cy="-178" rx="27" ry="18"/>
<text text-anchor="middle" x="267" y="-174.3" font-family="Times New Roman,serif" font-size="14.00">25.7</text>
</g>
<!-- N1392425346&#45;&gt;N1991294891 -->
<g id="edge22" class="edge">
<title>N1392425346&#45;&gt;N1991294891</title>
<path fill="none" stroke="black" d="M267,-231.7C267,-223.98 267,-214.71 267,-206.11"/>
<polygon fill="black" stroke="black" points="270.5,-206.1 267,-196.1 263.5,-206.1 270.5,-206.1"/>
</g>
<!-- N1263877414 -->
<g id="node31" class="node">
<title>N1263877414</title>
<ellipse fill="#fafafa" stroke="black" cx="252" cy="-466" rx="27" ry="18"/>
<text text-anchor="middle" x="252" y="-462.3" font-family="Times New Roman,serif" font-size="14.00">[]</text>
</g>
<!-- N798244209&#45;&gt;N1263877414 -->
<g id="edge29" class="edge">
<title>N798244209&#45;&gt;N1263877414</title>
<path fill="none" stroke="black" d="M315.39,-523.17C303.92,-513.01 288.15,-499.03 275.21,-487.56"/>
<polygon fill="black" stroke="black" points="277.38,-484.81 267.58,-480.8 272.74,-490.05 277.38,-484.81"/>
</g>
<!-- N110771485 -->
<g id="node32" class="node">
<title>N110771485</title>
<ellipse fill="#fafafa" stroke="black" cx="337" cy="-466" rx="39.79" ry="18"/>
<text text-anchor="middle" x="337" y="-462.3" font-family="Times New Roman,serif" font-size="14.00">argc(...)</text>
</g>
<!-- N798244209&#45;&gt;N110771485 -->
<g id="edge30" class="edge">
<title>N798244209&#45;&gt;N110771485</title>
<path fill="none" stroke="black" d="M332.48,-519.7C333.14,-511.98 333.94,-502.71 334.68,-494.11"/>
<polygon fill="black" stroke="black" points="338.17,-494.37 335.53,-484.1 331.19,-493.77 338.17,-494.37"/>
</g>
<!-- N1208736537 -->
<g id="node34" class="node">
<title>N1208736537</title>
<ellipse fill="#fafafa" stroke="black" cx="422" cy="-466" rx="27" ry="18"/>
<text text-anchor="middle" x="422" y="-462.3" font-family="Times New Roman,serif" font-size="14.00">0.0</text>
</g>
<!-- N525571&#45;&gt;N1208736537 -->
<g id="edge32" class="edge">
<title>N525571&#45;&gt;N1208736537</title>
<path fill="none" stroke="black" d="M407.6,-520.05C409.75,-512.14 412.35,-502.54 414.76,-493.69"/>
<polygon fill="black" stroke="black" points="418.2,-494.36 417.44,-483.79 411.45,-492.52 418.2,-494.36"/>
</g>
<!-- N710239027 -->
<g id="node35" class="node">
<title>N710239027</title>
<ellipse fill="#fafafa" stroke="black" cx="494" cy="-466" rx="27" ry="18"/>
<text text-anchor="middle" x="494" y="-462.3" font-family="Times New Roman,serif" font-size="14.00">+</text>
</g>
<!-- N525571&#45;&gt;N710239027 -->
<g id="edge33" class="edge">
<title>N525571&#45;&gt;N710239027</title>
<path fill="none" stroke="black" d="M420.12,-523.83C433.84,-513.27 453.31,-498.3 468.82,-486.37"/>
<polygon fill="black" stroke="black" points="471.17,-488.98 476.96,-480.11 466.9,-483.43 471.17,-488.98"/>
</g>
<!-- N141289226 -->
<g id="node33" class="node">
<title>N141289226</title>
<ellipse fill="#fafafa" stroke="black" cx="377" cy="-394" rx="27" ry="18"/>
<text text-anchor="middle" x="377" y="-390.3" font-family="Times New Roman,serif" font-size="14.00">1.0</text>
</g>
<!-- N1263877414&#45;&gt;N141289226 -->
<g id="edge31" class="edge">
<title>N1263877414&#45;&gt;N141289226</title>
<path fill="none" stroke="black" d="M272.08,-453.75C292.68,-442.22 324.9,-424.18 348.21,-411.12"/>
<polygon fill="black" stroke="black" points="349.95,-414.16 356.97,-406.22 346.53,-408.05 349.95,-414.16"/>
</g>
<!-- N2104545713 -->
<g id="node36" class="node">
<title>N2104545713</title>
<ellipse fill="#fafafa" stroke="black" cx="484" cy="-394" rx="27" ry="18"/>
<text text-anchor="middle" x="484" y="-390.3" font-family="Times New Roman,serif" font-size="14.00">[]</text>
</g>
<!-- N710239027&#45;&gt;N2104545713 -->
<g id="edge34" class="edge">
<title>N710239027&#45;&gt;N2104545713</title>
<path fill="none" stroke="black" d="M491.58,-448.05C490.48,-440.35 489.15,-431.03 487.91,-422.36"/>
<polygon fill="black" stroke="black" points="491.35,-421.68 486.47,-412.28 484.42,-422.67 491.35,-421.68"/>
</g>
<!-- N712256162 -->
<g id="node37" class="node">
<title>N712256162</title>
<ellipse fill="#fafafa" stroke="black" cx="564" cy="-394" rx="35.19" ry="18"/>
<text text-anchor="middle" x="564" y="-390.3" font-family="Times New Roman,serif" font-size="14.00">arg(...)</text>
</g>
<!-- N710239027&#45;&gt;N712256162 -->
<g id="edge35" class="edge">
<title>N710239027&#45;&gt;N712256162</title>
<path fill="none" stroke="black" d="M508.5,-450.5C518,-441 530.62,-428.38 541.42,-417.58"/>
<polygon fill="black" stroke="black" points="543.95,-420 548.54,-410.46 539,-415.05 543.95,-420"/>
</g>
<!-- N1018298342 -->
<g id="node38" class="node">
<title>N1018298342</title>
<ellipse fill="#fafafa" stroke="black" cx="487" cy="-322" rx="27" ry="18"/>
<text text-anchor="middle" x="487" y="-318.3" font-family="Times New Roman,serif" font-size="14.00">0.0</text>
</g>
<!-- N2104545713&#45;&gt;N1018298342 -->
<g id="edge36" class="edge">
<title>N2104545713&#45;&gt;N1018298342</title>
<path fill="none" stroke="black" d="M484.74,-375.7C485.07,-367.98 485.47,-358.71 485.84,-350.11"/>
<polygon fill="black" stroke="black" points="489.34,-350.25 486.27,-340.1 482.34,-349.95 489.34,-350.25"/>
</g>
<!-- N1039949752 -->
<g id="node39" class="node">
<title>N1039949752</title>
<ellipse fill="#fafafa" stroke="black" cx="563" cy="-322" rx="27" ry="18"/>
<text text-anchor="middle" x="563" y="-318.3" font-family="Times New Roman,serif" font-size="14.00">+</text>
</g>
<!-- N712256162&#45;&gt;N1039949752 -->
<g id="edge37" class="edge">
<title>N712256162&#45;&gt;N1039949752</title>
<path fill="none" stroke="black" d="M563.75,-375.7C563.64,-367.98 563.51,-358.71 563.39,-350.11"/>
<polygon fill="black" stroke="black" points="566.89,-350.05 563.24,-340.1 559.89,-350.15 566.89,-350.05"/>
</g>
<!-- N1182461167 -->
<g id="node40" class="node">
<title>N1182461167</title>
<ellipse fill="#fafafa" stroke="black" cx="491" cy="-250" rx="27" ry="18"/>
<text text-anchor="middle" x="491" y="-246.3" font-family="Times New Roman,serif" font-size="14.00">&#45;</text>
</g>
<!-- N1039949752&#45;&gt;N1182461167 -->
<g id="edge38" class="edge">
<title>N1039949752&#45;&gt;N1182461167</title>
<path fill="none" stroke="black" d="M548.43,-306.83C538.25,-296.94 524.48,-283.55 512.97,-272.36"/>
<polygon fill="black" stroke="black" points="515.41,-269.85 505.8,-265.38 510.53,-274.87 515.41,-269.85"/>
</g>
<!-- N1297149880 -->
<g id="node41" class="node">
<title>N1297149880</title>
<ellipse fill="#fafafa" stroke="black" cx="563" cy="-250" rx="27" ry="18"/>
<text text-anchor="middle" x="563" y="-246.3" font-family="Times New Roman,serif" font-size="14.00">&#45;</text>
</g>
<!-- N1039949752&#45;&gt;N1297149880 -->
<g id="edge39" class="edge">
<title>N1039949752&#45;&gt;N1297149880</title>
<path fill="none" stroke="black" d="M563,-303.7C563,-295.98 563,-286.71 563,-278.11"/>
<polygon fill="black" stroke="black" points="566.5,-278.1 563,-268.1 559.5,-278.1 566.5,-278.1"/>
</g>
<!-- N2116908859 -->
<g id="node42" class="node">
<title>N2116908859</title>
<ellipse fill="#fafafa" stroke="black" cx="339" cy="-178" rx="27" ry="18"/>
<text text-anchor="middle" x="339" y="-174.3" font-family="Times New Roman,serif" font-size="14.00">&gt;</text>
</g>
<!-- N1182461167&#45;&gt;N2116908859 -->
<g id="edge40" class="edge">
<title>N1182461167&#45;&gt;N2116908859</title>
<path fill="none" stroke="black" d="M469.7,-238.89C464.87,-236.61 459.76,-234.21 455,-232 426.36,-218.7 393.63,-203.77 370.25,-193.15"/>
<polygon fill="black" stroke="black" points="371.4,-189.83 360.84,-188.88 368.51,-196.2 371.4,-189.83"/>
</g>
<!-- N445288316 -->
<g id="node48" class="node">
<title>N445288316</title>
<ellipse fill="#fafafa" stroke="black" cx="421" cy="-178" rx="27" ry="18"/>
<text text-anchor="middle" x="421" y="-174.3" font-family="Times New Roman,serif" font-size="14.00">+</text>
</g>
<!-- N1297149880&#45;&gt;N445288316 -->
<g id="edge46" class="edge">
<title>N1297149880&#45;&gt;N445288316</title>
<path fill="none" stroke="black" d="M541.74,-238.52C517.79,-226.72 478.68,-207.43 451.48,-194.03"/>
<polygon fill="black" stroke="black" points="452.92,-190.83 442.4,-189.55 449.83,-197.11 452.92,-190.83"/>
</g>
<!-- N592688102 -->
<g id="node49" class="node">
<title>N592688102</title>
<ellipse fill="#fafafa" stroke="black" cx="563" cy="-178" rx="27" ry="18"/>
<text text-anchor="middle" x="563" y="-174.3" font-family="Times New Roman,serif" font-size="14.00">~=</text>
</g>
<!-- N1297149880&#45;&gt;N592688102 -->
<g id="edge47" class="edge">
<title>N1297149880&#45;&gt;N592688102</title>
<path fill="none" stroke="black" d="M563,-231.7C563,-223.98 563,-214.71 563,-206.11"/>
<polygon fill="black" stroke="black" points="566.5,-206.1 563,-196.1 559.5,-206.1 566.5,-206.1"/>
</g>
<!-- N561247961 -->
<g id="node43" class="node">
<title>N561247961</title>
<ellipse fill="#fafafa" stroke="black" cx="200" cy="-106" rx="27" ry="18"/>
<text text-anchor="middle" x="200" y="-102.3" font-family="Times New Roman,serif" font-size="14.00">&lt;</text>
</g>
<!-- N2116908859&#45;&gt;N561247961 -->
<g id="edge41" class="edge">
<title>N2116908859&#45;&gt;N561247961</title>
<path fill="none" stroke="black" d="M318.19,-166.52C294.85,-154.77 256.79,-135.6 230.19,-122.2"/>
<polygon fill="black" stroke="black" points="231.46,-118.92 220.95,-117.55 228.31,-125.18 231.46,-118.92"/>
</g>
<!-- N813656972 -->
<g id="node44" class="node">
<title>N813656972</title>
<ellipse fill="#fafafa" stroke="black" cx="273" cy="-106" rx="27" ry="18"/>
<text text-anchor="middle" x="273" y="-102.3" font-family="Times New Roman,serif" font-size="14.00">[]</text>
</g>
<!-- N2116908859&#45;&gt;N813656972 -->
<g id="edge42" class="edge">
<title>N2116908859&#45;&gt;N813656972</title>
<path fill="none" stroke="black" d="M325,-162.15C315.99,-152.6 304.11,-139.99 293.98,-129.25"/>
<polygon fill="black" stroke="black" points="296.38,-126.7 286.98,-121.82 291.29,-131.5 296.38,-126.7"/>
</g>
<!-- N2048425748 -->
<g id="node45" class="node">
<title>N2048425748</title>
<ellipse fill="#fafafa" stroke="black" cx="126" cy="-34" rx="27" ry="18"/>
<text text-anchor="middle" x="126" y="-30.3" font-family="Times New Roman,serif" font-size="14.00">25.3</text>
</g>
<!-- N561247961&#45;&gt;N2048425748 -->
<g id="edge43" class="edge">
<title>N561247961&#45;&gt;N2048425748</title>
<path fill="none" stroke="black" d="M185.02,-90.83C174.49,-80.87 160.22,-67.37 148.34,-56.14"/>
<polygon fill="black" stroke="black" points="150.62,-53.47 140.95,-49.14 145.81,-58.56 150.62,-53.47"/>
</g>
<!-- N1863932867 -->
<g id="node46" class="node">
<title>N1863932867</title>
<ellipse fill="#fafafa" stroke="black" cx="200" cy="-34" rx="29.5" ry="18"/>
<text text-anchor="middle" x="200" y="-30.3" font-family="Times New Roman,serif" font-size="14.00">&#45;64.6</text>
</g>
<!-- N561247961&#45;&gt;N1863932867 -->
<g id="edge44" class="edge">
<title>N561247961&#45;&gt;N1863932867</title>
<path fill="none" stroke="black" d="M200,-87.7C200,-79.98 200,-70.71 200,-62.11"/>
<polygon fill="black" stroke="black" points="203.5,-62.1 200,-52.1 196.5,-62.1 203.5,-62.1"/>
</g>
<!-- N1373810119 -->
<g id="node47" class="node">
<title>N1373810119</title>
<ellipse fill="#fafafa" stroke="black" cx="274" cy="-34" rx="27" ry="18"/>
<text text-anchor="middle" x="274" y="-30.3" font-family="Times New Roman,serif" font-size="14.00">79.1</text>
</g>
<!-- N813656972&#45;&gt;N1373810119 -->
<g id="edge45" class="edge">
<title>N813656972&#45;&gt;N1373810119</title>
<path fill="none" stroke="black" d="M273.25,-87.7C273.36,-79.98 273.49,-70.71 273.61,-62.11"/>
<polygon fill="black" stroke="black" points="277.11,-62.15 273.76,-52.1 270.11,-62.05 277.11,-62.15"/>
</g>
<!-- N103887628 -->
<g id="node50" class="node">
<title>N103887628</title>
<ellipse fill="#fafafa" stroke="black" cx="347" cy="-106" rx="29.5" ry="18"/>
<text text-anchor="middle" x="347" y="-102.3" font-family="Times New Roman,serif" font-size="14.00">&#45;25.8</text>
</g>
<!-- N445288316&#45;&gt;N103887628 -->
<g id="edge48" class="edge">
<title>N445288316&#45;&gt;N103887628</title>
<path fill="none" stroke="black" d="M406.02,-162.83C395.56,-152.94 381.41,-139.55 369.58,-128.36"/>
<polygon fill="black" stroke="black" points="371.88,-125.71 362.21,-121.38 367.07,-130.8 371.88,-125.71"/>
</g>
<!-- N1123629720 -->
<g id="node51" class="node">
<title>N1123629720</title>
<ellipse fill="#fafafa" stroke="black" cx="421" cy="-106" rx="27" ry="18"/>
<text text-anchor="middle" x="421" y="-102.3" font-family="Times New Roman,serif" font-size="14.00">49.5</text>
</g>
<!-- N445288316&#45;&gt;N1123629720 -->
<g id="edge49" class="edge">
<title>N445288316&#45;&gt;N1123629720</title>
<path fill="none" stroke="black" d="M421,-159.7C421,-151.98 421,-142.71 421,-134.11"/>
<polygon fill="black" stroke="black" points="424.5,-134.1 421,-124.1 417.5,-134.1 424.5,-134.1"/>
</g>
<!-- N205962452 -->
<g id="node52" class="node">
<title>N205962452</title>
<ellipse fill="#fafafa" stroke="black" cx="495" cy="-106" rx="29.5" ry="18"/>
<text text-anchor="middle" x="495" y="-102.3" font-family="Times New Roman,serif" font-size="14.00">&#45;66.9</text>
</g>
<!-- N592688102&#45;&gt;N205962452 -->
<g id="edge50" class="edge">
<title>N592688102&#45;&gt;N205962452</title>
<path fill="none" stroke="black" d="M548.91,-162.5C539.64,-152.96 527.33,-140.28 516.81,-129.46"/>
<polygon fill="black" stroke="black" points="519.02,-126.7 509.54,-121.97 514,-131.58 519.02,-126.7"/>
</g>
<!-- N842326585 -->
<g id="node53" class="node">
<title>N842326585</title>
<ellipse fill="#fafafa" stroke="black" cx="571" cy="-106" rx="29.5" ry="18"/>
<text text-anchor="middle" x="571" y="-102.3" font-family="Times New Roman,serif" font-size="14.00">&#45;86.1</text>
</g>
<!-- N592688102&#45;&gt;N842326585 -->
<g id="edge51" class="edge">
<title>N592688102&#45;&gt;N842326585</title>
<path fill="none" stroke="black" d="M564.98,-159.7C565.86,-151.98 566.92,-142.71 567.9,-134.11"/>
<polygon fill="black" stroke="black" points="571.39,-134.44 569.05,-124.1 564.43,-133.64 571.39,-134.44"/>
</g>
<!-- N263025902 -->
<g id="node56" class="node">
<title>N263025902</title>
<ellipse fill="#fafafa" stroke="black" cx="566" cy="-466" rx="27" ry="18"/>
<text text-anchor="middle" x="566" y="-462.3" font-family="Times New Roman,serif" font-size="14.00">0.0</text>
</g>
<!-- N1032986144&#45;&gt;N263025902 -->
<g id="edge54" class="edge">
<title>N1032986144&#45;&gt;N263025902</title>
<path fill="none" stroke="black" d="M492.12,-523.83C505.84,-513.27 525.31,-498.3 540.82,-486.37"/>
<polygon fill="black" stroke="black" points="543.17,-488.98 548.96,-480.11 538.9,-483.43 543.17,-488.98"/>
</g>
</g>
</svg>
