<?xml version="1.0" encoding="UTF-8" standalone="no"?>
<!DOCTYPE svg PUBLIC "-//W3C//DTD SVG 1.1//EN"
 "http://www.w3.org/Graphics/SVG/1.1/DTD/svg11.dtd">
<!-- Generated by graphviz version 6.0.2 (20221011.1828)
 -->
<!-- Title: G Pages: 1 -->
<svg width="314pt" height="274pt"
 viewBox="0.00 0.00 314.00 274.00" xmlns="http://www.w3.org/2000/svg" xmlns:xlink="http://www.w3.org/1999/xlink">
<g id="graph0" class="graph" transform="scale(1 1) rotate(0) translate(4 270)">
<title>G</title>
<polygon fill="white" stroke="none" points="-4,4 -4,-270 310,-270 310,4 -4,4"/>
<g id="clust1" class="cluster">
<title>cluster_P1595953398</title>
<polygon fill="none" stroke="black" points="8,-8 8,-258 298,-258 298,-8 8,-8"/>
<text text-anchor="middle" x="153" y="-242.8" font-family="Times New Roman,serif" font-size="14.00">c</text>
</g>
<g id="clust2" class="cluster">
<title>cluster_Z2017354584</title>
<polygon fill="none" stroke="black" points="187,-152 187,-227 279,-227 279,-152 187,-152"/>
<text text-anchor="middle" x="233" y="-211.8" font-family="Times New Roman,serif" font-size="14.00">MEMLIMIT</text>
</g>
<!-- 64.0 -->
<g id="node1" class="node">
<title>64.0</title>
<polygon fill="lightgrey" stroke="black" points="233,-196 195.13,-178 233,-160 270.87,-178 233,-196"/>
<text text-anchor="middle" x="233" y="-174.3" font-family="Times New Roman,serif" font-size="14.00">64.0</text>
</g>
<!-- N221036634 -->
<g id="node2" class="node">
<title>N221036634</title>
<ellipse fill="#ff0000" stroke="black" cx="128" cy="-178" rx="27" ry="18"/>
<text text-anchor="middle" x="128" y="-174.3" font-family="Times New Roman,serif" font-size="14.00">&lt;</text>
</g>
<!-- N1335050193 -->
<g id="node3" class="node">
<title>N1335050193</title>
<ellipse fill="#ff0000" stroke="black" cx="117" cy="-106" rx="27" ry="18"/>
<text text-anchor="middle" x="117" y="-102.3" font-family="Times New Roman,serif" font-size="14.00">+</text>
</g>
<!-- N221036634&#45;&gt;N1335050193 -->
<g id="edge1" class="edge">
<title>N221036634&#45;&gt;N1335050193</title>
<path fill="none" stroke="black" d="M125.34,-160.05C124.13,-152.35 122.66,-143.03 121.3,-134.36"/>
<polygon fill="black" stroke="black" points="124.72,-133.61 119.71,-124.28 117.81,-134.7 124.72,-133.61"/>
</g>
<!-- N1418370913 -->
<g id="node4" class="node">
<title>N1418370913</title>
<ellipse fill="#0000ff" stroke="black" cx="191" cy="-106" rx="27" ry="18"/>
<text text-anchor="middle" x="191" y="-102.3" font-family="Times New Roman,serif" font-size="14.00">~=</text>
</g>
<!-- N221036634&#45;&gt;N1418370913 -->
<g id="edge2" class="edge">
<title>N221036634&#45;&gt;N1418370913</title>
<path fill="none" stroke="black" d="M141.36,-162.15C149.88,-152.69 161.09,-140.24 170.69,-129.56"/>
<polygon fill="black" stroke="black" points="173.57,-131.6 177.66,-121.82 168.37,-126.92 173.57,-131.6"/>
</g>
<!-- N391359742 -->
<g id="node5" class="node">
<title>N391359742</title>
<ellipse fill="#ff0000" stroke="black" cx="43" cy="-34" rx="27" ry="18"/>
<text text-anchor="middle" x="43" y="-30.3" font-family="Times New Roman,serif" font-size="14.00">88.0</text>
</g>
<!-- N1335050193&#45;&gt;N391359742 -->
<g id="edge3" class="edge">
<title>N1335050193&#45;&gt;N391359742</title>
<path fill="none" stroke="black" d="M102.02,-90.83C91.49,-80.87 77.22,-67.37 65.34,-56.14"/>
<polygon fill="black" stroke="black" points="67.62,-53.47 57.95,-49.14 62.81,-58.56 67.62,-53.47"/>
</g>
<!-- N2081853534 -->
<g id="node6" class="node">
<title>N2081853534</title>
<ellipse fill="#ff0000" stroke="black" cx="117" cy="-34" rx="29.5" ry="18"/>
<text text-anchor="middle" x="117" y="-30.3" font-family="Times New Roman,serif" font-size="14.00">&#45;87.6</text>
</g>
<!-- N1335050193&#45;&gt;N2081853534 -->
<g id="edge4" class="edge">
<title>N1335050193&#45;&gt;N2081853534</title>
<path fill="none" stroke="black" d="M117,-87.7C117,-79.98 117,-70.71 117,-62.11"/>
<polygon fill="black" stroke="black" points="120.5,-62.1 117,-52.1 113.5,-62.1 120.5,-62.1"/>
</g>
<!-- N707610042 -->
<g id="node7" class="node">
<title>N707610042</title>
<ellipse fill="#0000ff" stroke="black" cx="191" cy="-34" rx="27" ry="18"/>
<text text-anchor="middle" x="191" y="-30.3" font-family="Times New Roman,serif" font-size="14.00">34.5</text>
</g>
<!-- N1418370913&#45;&gt;N707610042 -->
<g id="edge5" class="edge">
<title>N1418370913&#45;&gt;N707610042</title>
<path fill="none" stroke="black" d="M191,-87.7C191,-79.98 191,-70.71 191,-62.11"/>
<polygon fill="black" stroke="black" points="194.5,-62.1 191,-52.1 187.5,-62.1 194.5,-62.1"/>
</g>
<!-- N710714889 -->
<g id="node8" class="node">
<title>N710714889</title>
<ellipse fill="#0000ff" stroke="black" cx="263" cy="-34" rx="27" ry="18"/>
<text text-anchor="middle" x="263" y="-30.3" font-family="Times New Roman,serif" font-size="14.00">52.2</text>
</g>
<!-- N1418370913&#45;&gt;N710714889 -->
<g id="edge6" class="edge">
<title>N1418370913&#45;&gt;N710714889</title>
<path fill="none" stroke="black" d="M205.57,-90.83C215.75,-80.94 229.52,-67.55 241.03,-56.36"/>
<polygon fill="black" stroke="black" points="243.47,-58.87 248.2,-49.38 238.59,-53.85 243.47,-58.87"/>
</g>
</g>
</svg>
