<?xml version="1.0" encoding="UTF-8" standalone="no"?>
<!DOCTYPE svg PUBLIC "-//W3C//DTD SVG 1.1//EN"
 "http://www.w3.org/Graphics/SVG/1.1/DTD/svg11.dtd">
<!-- Generated by graphviz version 6.0.2 (20221011.1828)
 -->
<!-- Title: G Pages: 1 -->
<svg width="834pt" height="850pt"
 viewBox="0.00 0.00 834.00 850.00" xmlns="http://www.w3.org/2000/svg" xmlns:xlink="http://www.w3.org/1999/xlink">
<g id="graph0" class="graph" transform="scale(1 1) rotate(0) translate(4 846)">
<title>G</title>
<polygon fill="white" stroke="none" points="-4,4 -4,-846 830,-846 830,4 -4,4"/>
<g id="clust1" class="cluster">
<title>cluster_P1286783232</title>
<polygon fill="none" stroke="black" points="8,-8 8,-834 818,-834 818,-8 8,-8"/>
<text text-anchor="middle" x="413" y="-818.8" font-family="Times New Roman,serif" font-size="14.00">avg</text>
</g>
<g id="clust2" class="cluster">
<title>cluster_Z1753447031</title>
<polygon fill="none" stroke="black" points="484,-728 484,-803 571,-803 571,-728 484,-728"/>
<text text-anchor="middle" x="527.5" y="-787.8" font-family="Times New Roman,serif" font-size="14.00">MEMLIMIT</text>
</g>
<!-- 2.0 -->
<g id="node1" class="node">
<title>2.0</title>
<polygon fill="lightgrey" stroke="black" points="526,-772 495,-754 526,-736 557,-754 526,-772"/>
<text text-anchor="middle" x="526" y="-750.3" font-family="Times New Roman,serif" font-size="14.00">2.0</text>
</g>
<!-- N936580213 -->
<g id="node2" class="node">
<title>N936580213</title>
<ellipse fill="#fafafa" stroke="black" cx="447" cy="-754" rx="27" ry="18"/>
<text text-anchor="middle" x="447" y="-750.3" font-family="Times New Roman,serif" font-size="14.00">{}</text>
</g>
<!-- N662736689 -->
<g id="node3" class="node">
<title>N662736689</title>
<ellipse fill="#fafafa" stroke="black" cx="267" cy="-682" rx="27" ry="18"/>
<text text-anchor="middle" x="267" y="-678.3" font-family="Times New Roman,serif" font-size="14.00">:=</text>
</g>
<!-- N936580213&#45;&gt;N662736689 -->
<g id="edge1" class="edge">
<title>N936580213&#45;&gt;N662736689</title>
<path fill="none" stroke="black" d="M424.2,-744.13C392.64,-731.86 335.46,-709.62 299.45,-695.62"/>
<polygon fill="black" stroke="black" points="300.48,-692.27 289.9,-691.9 297.95,-698.79 300.48,-692.27"/>
</g>
<!-- N1131316523 -->
<g id="node4" class="node">
<title>N1131316523</title>
<ellipse fill="#fafafa" stroke="black" cx="410" cy="-682" rx="27" ry="18"/>
<text text-anchor="middle" x="410" y="-678.3" font-family="Times New Roman,serif" font-size="14.00">:=</text>
</g>
<!-- N936580213&#45;&gt;N1131316523 -->
<g id="edge2" class="edge">
<title>N936580213&#45;&gt;N1131316523</title>
<path fill="none" stroke="black" d="M438.42,-736.76C433.94,-728.28 428.35,-717.71 423.32,-708.2"/>
<polygon fill="black" stroke="black" points="426.3,-706.35 418.54,-699.15 420.11,-709.62 426.3,-706.35"/>
</g>
<!-- N852687460 -->
<g id="node5" class="node">
<title>N852687460</title>
<ellipse fill="#fafafa" stroke="black" cx="484" cy="-682" rx="29.5" ry="18"/>
<text text-anchor="middle" x="484" y="-678.3" font-family="Times New Roman,serif" font-size="14.00">while</text>
</g>
<!-- N936580213&#45;&gt;N852687460 -->
<g id="edge3" class="edge">
<title>N936580213&#45;&gt;N852687460</title>
<path fill="none" stroke="black" d="M455.58,-736.76C460,-728.4 465.49,-718.02 470.47,-708.61"/>
<polygon fill="black" stroke="black" points="473.63,-710.11 475.21,-699.63 467.44,-706.84 473.63,-710.11"/>
</g>
<!-- N495792375 -->
<g id="node6" class="node">
<title>N495792375</title>
<ellipse fill="#fafafa" stroke="black" cx="663" cy="-682" rx="27" ry="18"/>
<text text-anchor="middle" x="663" y="-678.3" font-family="Times New Roman,serif" font-size="14.00">/</text>
</g>
<!-- N936580213&#45;&gt;N495792375 -->
<g id="edge4" class="edge">
<title>N936580213&#45;&gt;N495792375</title>
<path fill="none" stroke="black" d="M462.59,-739.13C467.83,-735.05 473.9,-730.91 480,-728 527.78,-705.23 588.26,-693.27 626.3,-687.55"/>
<polygon fill="black" stroke="black" points="627.01,-690.98 636.41,-686.09 626.01,-684.05 627.01,-690.98"/>
</g>
<!-- N1045941616 -->
<g id="node7" class="node">
<title>N1045941616</title>
<ellipse fill="#fafafa" stroke="black" cx="195" cy="-610" rx="27" ry="18"/>
<text text-anchor="middle" x="195" y="-606.3" font-family="Times New Roman,serif" font-size="14.00">0.0</text>
</g>
<!-- N662736689&#45;&gt;N1045941616 -->
<g id="edge5" class="edge">
<title>N662736689&#45;&gt;N1045941616</title>
<path fill="none" stroke="black" d="M252.43,-666.83C242.25,-656.94 228.48,-643.55 216.97,-632.36"/>
<polygon fill="black" stroke="black" points="219.41,-629.85 209.8,-625.38 214.53,-634.87 219.41,-629.85"/>
</g>
<!-- N161960012 -->
<g id="node8" class="node">
<title>N161960012</title>
<ellipse fill="#fafafa" stroke="black" cx="267" cy="-610" rx="27" ry="18"/>
<text text-anchor="middle" x="267" y="-606.3" font-family="Times New Roman,serif" font-size="14.00">&#45;</text>
</g>
<!-- N662736689&#45;&gt;N161960012 -->
<g id="edge6" class="edge">
<title>N662736689&#45;&gt;N161960012</title>
<path fill="none" stroke="black" d="M267,-663.7C267,-655.98 267,-646.71 267,-638.11"/>
<polygon fill="black" stroke="black" points="270.5,-638.1 267,-628.1 263.5,-638.1 270.5,-638.1"/>
</g>
<!-- N1166151249 -->
<g id="node27" class="node">
<title>N1166151249</title>
<ellipse fill="#fafafa" stroke="black" cx="339" cy="-610" rx="27" ry="18"/>
<text text-anchor="middle" x="339" y="-606.3" font-family="Times New Roman,serif" font-size="14.00">1.0</text>
</g>
<!-- N1131316523&#45;&gt;N1166151249 -->
<g id="edge25" class="edge">
<title>N1131316523&#45;&gt;N1166151249</title>
<path fill="none" stroke="black" d="M395.29,-666.5C385.39,-656.73 372.16,-643.69 361.01,-632.7"/>
<polygon fill="black" stroke="black" points="363.27,-630.01 353.69,-625.49 358.36,-635 363.27,-630.01"/>
</g>
<!-- N1121453612 -->
<g id="node28" class="node">
<title>N1121453612</title>
<ellipse fill="#fafafa" stroke="black" cx="411" cy="-610" rx="27" ry="18"/>
<text text-anchor="middle" x="411" y="-606.3" font-family="Times New Roman,serif" font-size="14.00">0.0</text>
</g>
<!-- N1131316523&#45;&gt;N1121453612 -->
<g id="edge26" class="edge">
<title>N1131316523&#45;&gt;N1121453612</title>
<path fill="none" stroke="black" d="M410.25,-663.7C410.36,-655.98 410.49,-646.71 410.61,-638.11"/>
<polygon fill="black" stroke="black" points="414.11,-638.15 410.76,-628.1 407.11,-638.05 414.11,-638.15"/>
</g>
<!-- N1615056168 -->
<g id="node29" class="node">
<title>N1615056168</title>
<ellipse fill="#fafafa" stroke="black" cx="483" cy="-610" rx="27" ry="18"/>
<text text-anchor="middle" x="483" y="-606.3" font-family="Times New Roman,serif" font-size="14.00">&lt;</text>
</g>
<!-- N852687460&#45;&gt;N1615056168 -->
<g id="edge27" class="edge">
<title>N852687460&#45;&gt;N1615056168</title>
<path fill="none" stroke="black" d="M483.75,-663.7C483.64,-655.98 483.51,-646.71 483.39,-638.11"/>
<polygon fill="black" stroke="black" points="486.89,-638.05 483.24,-628.1 479.89,-638.15 486.89,-638.05"/>
</g>
<!-- N213193302 -->
<g id="node30" class="node">
<title>N213193302</title>
<ellipse fill="#fafafa" stroke="black" cx="567" cy="-610" rx="27" ry="18"/>
<text text-anchor="middle" x="567" y="-606.3" font-family="Times New Roman,serif" font-size="14.00">:=</text>
</g>
<!-- N852687460&#45;&gt;N213193302 -->
<g id="edge28" class="edge">
<title>N852687460&#45;&gt;N213193302</title>
<path fill="none" stroke="black" d="M500.8,-666.83C512.88,-656.64 529.35,-642.75 542.84,-631.37"/>
<polygon fill="black" stroke="black" points="545.41,-633.79 550.79,-624.67 540.89,-628.44 545.41,-633.79"/>
</g>
<!-- N1226622409 -->
<g id="node70" class="node">
<title>N1226622409</title>
<ellipse fill="#fafafa" stroke="black" cx="663" cy="-610" rx="27" ry="18"/>
<text text-anchor="middle" x="663" y="-606.3" font-family="Times New Roman,serif" font-size="14.00">[]</text>
</g>
<!-- N495792375&#45;&gt;N1226622409 -->
<g id="edge68" class="edge">
<title>N495792375&#45;&gt;N1226622409</title>
<path fill="none" stroke="black" d="M663,-663.7C663,-655.98 663,-646.71 663,-638.11"/>
<polygon fill="black" stroke="black" points="666.5,-638.1 663,-628.1 659.5,-638.1 666.5,-638.1"/>
</g>
<!-- N1957502751 -->
<g id="node71" class="node">
<title>N1957502751</title>
<ellipse fill="#fafafa" stroke="black" cx="748" cy="-610" rx="39.79" ry="18"/>
<text text-anchor="middle" x="748" y="-606.3" font-family="Times New Roman,serif" font-size="14.00">argc(...)</text>
</g>
<!-- N495792375&#45;&gt;N1957502751 -->
<g id="edge69" class="edge">
<title>N495792375&#45;&gt;N1957502751</title>
<path fill="none" stroke="black" d="M679.39,-667.5C691.41,-657.61 707.97,-643.96 721.81,-632.56"/>
<polygon fill="black" stroke="black" points="724.1,-635.22 729.6,-626.16 719.65,-629.81 724.1,-635.22"/>
</g>
<!-- N738433734 -->
<g id="node9" class="node">
<title>N738433734</title>
<ellipse fill="#fafafa" stroke="black" cx="195" cy="-538" rx="27" ry="18"/>
<text text-anchor="middle" x="195" y="-534.3" font-family="Times New Roman,serif" font-size="14.00">:=</text>
</g>
<!-- N161960012&#45;&gt;N738433734 -->
<g id="edge7" class="edge">
<title>N161960012&#45;&gt;N738433734</title>
<path fill="none" stroke="black" d="M252.43,-594.83C242.25,-584.94 228.48,-571.55 216.97,-560.36"/>
<polygon fill="black" stroke="black" points="219.41,-557.85 209.8,-553.38 214.53,-562.87 219.41,-557.85"/>
</g>
<!-- N1484594489 -->
<g id="node10" class="node">
<title>N1484594489</title>
<ellipse fill="#fafafa" stroke="black" cx="269" cy="-538" rx="27" ry="18"/>
<text text-anchor="middle" x="269" y="-534.3" font-family="Times New Roman,serif" font-size="14.00">&gt;</text>
</g>
<!-- N161960012&#45;&gt;N1484594489 -->
<g id="edge8" class="edge">
<title>N161960012&#45;&gt;N1484594489</title>
<path fill="none" stroke="black" d="M267.49,-591.7C267.71,-583.98 267.98,-574.71 268.23,-566.11"/>
<polygon fill="black" stroke="black" points="271.72,-566.2 268.51,-556.1 264.73,-566 271.72,-566.2"/>
</g>
<!-- N1489069835 -->
<g id="node11" class="node">
<title>N1489069835</title>
<ellipse fill="#fafafa" stroke="black" cx="121" cy="-466" rx="27" ry="18"/>
<text text-anchor="middle" x="121" y="-462.3" font-family="Times New Roman,serif" font-size="14.00">&lt;</text>
</g>
<!-- N738433734&#45;&gt;N1489069835 -->
<g id="edge9" class="edge">
<title>N738433734&#45;&gt;N1489069835</title>
<path fill="none" stroke="black" d="M180.02,-522.83C169.49,-512.87 155.22,-499.37 143.34,-488.14"/>
<polygon fill="black" stroke="black" points="145.62,-485.47 135.95,-481.14 140.81,-490.56 145.62,-485.47"/>
</g>
<!-- N1800890735 -->
<g id="node12" class="node">
<title>N1800890735</title>
<ellipse fill="#fafafa" stroke="black" cx="195" cy="-466" rx="29.5" ry="18"/>
<text text-anchor="middle" x="195" y="-462.3" font-family="Times New Roman,serif" font-size="14.00">&#45;14.7</text>
</g>
<!-- N738433734&#45;&gt;N1800890735 -->
<g id="edge10" class="edge">
<title>N738433734&#45;&gt;N1800890735</title>
<path fill="none" stroke="black" d="M195,-519.7C195,-511.98 195,-502.71 195,-494.11"/>
<polygon fill="black" stroke="black" points="198.5,-494.1 195,-484.1 191.5,-494.1 198.5,-494.1"/>
</g>
<!-- N951880373 -->
<g id="node15" class="node">
<title>N951880373</title>
<ellipse fill="#fafafa" stroke="black" cx="269" cy="-466" rx="27" ry="18"/>
<text text-anchor="middle" x="269" y="-462.3" font-family="Times New Roman,serif" font-size="14.00">*</text>
</g>
<!-- N1484594489&#45;&gt;N951880373 -->
<g id="edge13" class="edge">
<title>N1484594489&#45;&gt;N951880373</title>
<path fill="none" stroke="black" d="M269,-519.7C269,-511.98 269,-502.71 269,-494.11"/>
<polygon fill="black" stroke="black" points="272.5,-494.1 269,-484.1 265.5,-494.1 272.5,-494.1"/>
</g>
<!-- N1752203484 -->
<g id="node16" class="node">
<title>N1752203484</title>
<ellipse fill="#fafafa" stroke="black" cx="342" cy="-466" rx="27" ry="18"/>
<text text-anchor="middle" x="342" y="-462.3" font-family="Times New Roman,serif" font-size="14.00">+</text>
</g>
<!-- N1484594489&#45;&gt;N1752203484 -->
<g id="edge14" class="edge">
<title>N1484594489&#45;&gt;N1752203484</title>
<path fill="none" stroke="black" d="M283.77,-522.83C294.16,-512.87 308.24,-499.37 319.96,-488.14"/>
<polygon fill="black" stroke="black" points="322.45,-490.59 327.25,-481.14 317.61,-485.54 322.45,-490.59"/>
</g>
<!-- N1538399081 -->
<g id="node13" class="node">
<title>N1538399081</title>
<ellipse fill="#fafafa" stroke="black" cx="45" cy="-394" rx="29.5" ry="18"/>
<text text-anchor="middle" x="45" y="-390.3" font-family="Times New Roman,serif" font-size="14.00">&#45;28.0</text>
</g>
<!-- N1489069835&#45;&gt;N1538399081 -->
<g id="edge11" class="edge">
<title>N1489069835&#45;&gt;N1538399081</title>
<path fill="none" stroke="black" d="M105.62,-450.83C94.88,-440.94 80.34,-427.55 68.19,-416.36"/>
<polygon fill="black" stroke="black" points="70.34,-413.59 60.62,-409.38 65.6,-418.73 70.34,-413.59"/>
</g>
<!-- N1805013491 -->
<g id="node14" class="node">
<title>N1805013491</title>
<ellipse fill="#fafafa" stroke="black" cx="121" cy="-394" rx="29.5" ry="18"/>
<text text-anchor="middle" x="121" y="-390.3" font-family="Times New Roman,serif" font-size="14.00">&#45;20.2</text>
</g>
<!-- N1489069835&#45;&gt;N1805013491 -->
<g id="edge12" class="edge">
<title>N1489069835&#45;&gt;N1805013491</title>
<path fill="none" stroke="black" d="M121,-447.7C121,-439.98 121,-430.71 121,-422.11"/>
<polygon fill="black" stroke="black" points="124.5,-422.1 121,-412.1 117.5,-422.1 124.5,-422.1"/>
</g>
<!-- N601008104 -->
<g id="node17" class="node">
<title>N601008104</title>
<ellipse fill="#fafafa" stroke="black" cx="195" cy="-394" rx="27" ry="18"/>
<text text-anchor="middle" x="195" y="-390.3" font-family="Times New Roman,serif" font-size="14.00">6.2</text>
</g>
<!-- N951880373&#45;&gt;N601008104 -->
<g id="edge15" class="edge">
<title>N951880373&#45;&gt;N601008104</title>
<path fill="none" stroke="black" d="M254.02,-450.83C243.49,-440.87 229.22,-427.37 217.34,-416.14"/>
<polygon fill="black" stroke="black" points="219.62,-413.47 209.95,-409.14 214.81,-418.56 219.62,-413.47"/>
</g>
<!-- N2056418216 -->
<g id="node18" class="node">
<title>N2056418216</title>
<ellipse fill="#fafafa" stroke="black" cx="269" cy="-394" rx="29.5" ry="18"/>
<text text-anchor="middle" x="269" y="-390.3" font-family="Times New Roman,serif" font-size="14.00">&#45;43.6</text>
</g>
<!-- N951880373&#45;&gt;N2056418216 -->
<g id="edge16" class="edge">
<title>N951880373&#45;&gt;N2056418216</title>
<path fill="none" stroke="black" d="M269,-447.7C269,-439.98 269,-430.71 269,-422.11"/>
<polygon fill="black" stroke="black" points="272.5,-422.1 269,-412.1 265.5,-422.1 272.5,-422.1"/>
</g>
<!-- N648525677 -->
<g id="node19" class="node">
<title>N648525677</title>
<ellipse fill="#fafafa" stroke="black" cx="343" cy="-394" rx="27" ry="18"/>
<text text-anchor="middle" x="343" y="-390.3" font-family="Times New Roman,serif" font-size="14.00">|</text>
</g>
<!-- N1752203484&#45;&gt;N648525677 -->
<g id="edge17" class="edge">
<title>N1752203484&#45;&gt;N648525677</title>
<path fill="none" stroke="black" d="M342.25,-447.7C342.36,-439.98 342.49,-430.71 342.61,-422.11"/>
<polygon fill="black" stroke="black" points="346.11,-422.15 342.76,-412.1 339.11,-422.05 346.11,-422.15"/>
</g>
<!-- N1253946629 -->
<g id="node20" class="node">
<title>N1253946629</title>
<ellipse fill="#fafafa" stroke="black" cx="416" cy="-394" rx="27" ry="18"/>
<text text-anchor="middle" x="416" y="-390.3" font-family="Times New Roman,serif" font-size="14.00">~=</text>
</g>
<!-- N1752203484&#45;&gt;N1253946629 -->
<g id="edge18" class="edge">
<title>N1752203484&#45;&gt;N1253946629</title>
<path fill="none" stroke="black" d="M356.98,-450.83C367.51,-440.87 381.78,-427.37 393.66,-416.14"/>
<polygon fill="black" stroke="black" points="396.19,-418.56 401.05,-409.14 391.38,-413.47 396.19,-418.56"/>
</g>
<!-- N2095490653 -->
<g id="node21" class="node">
<title>N2095490653</title>
<ellipse fill="#fafafa" stroke="black" cx="268" cy="-322" rx="29.5" ry="18"/>
<text text-anchor="middle" x="268" y="-318.3" font-family="Times New Roman,serif" font-size="14.00">&#45;42.9</text>
</g>
<!-- N648525677&#45;&gt;N2095490653 -->
<g id="edge19" class="edge">
<title>N648525677&#45;&gt;N2095490653</title>
<path fill="none" stroke="black" d="M327.82,-378.83C317.22,-368.94 302.87,-355.55 290.88,-344.36"/>
<polygon fill="black" stroke="black" points="293.11,-341.65 283.41,-337.38 288.33,-346.77 293.11,-341.65"/>
</g>
<!-- N352359770 -->
<g id="node22" class="node">
<title>N352359770</title>
<ellipse fill="#fafafa" stroke="black" cx="342" cy="-322" rx="27" ry="18"/>
<text text-anchor="middle" x="342" y="-318.3" font-family="Times New Roman,serif" font-size="14.00">~=</text>
</g>
<!-- N648525677&#45;&gt;N352359770 -->
<g id="edge20" class="edge">
<title>N648525677&#45;&gt;N352359770</title>
<path fill="none" stroke="black" d="M342.75,-375.7C342.64,-367.98 342.51,-358.71 342.39,-350.11"/>
<polygon fill="black" stroke="black" points="345.89,-350.05 342.24,-340.1 338.89,-350.15 345.89,-350.05"/>
</g>
<!-- N1613255205 -->
<g id="node25" class="node">
<title>N1613255205</title>
<ellipse fill="#fafafa" stroke="black" cx="416" cy="-322" rx="29.5" ry="18"/>
<text text-anchor="middle" x="416" y="-318.3" font-family="Times New Roman,serif" font-size="14.00">&#45;45.4</text>
</g>
<!-- N1253946629&#45;&gt;N1613255205 -->
<g id="edge23" class="edge">
<title>N1253946629&#45;&gt;N1613255205</title>
<path fill="none" stroke="black" d="M416,-375.7C416,-367.98 416,-358.71 416,-350.11"/>
<polygon fill="black" stroke="black" points="419.5,-350.1 416,-340.1 412.5,-350.1 419.5,-350.1"/>
</g>
<!-- N1897115967 -->
<g id="node26" class="node">
<title>N1897115967</title>
<ellipse fill="#fafafa" stroke="black" cx="492" cy="-322" rx="29.5" ry="18"/>
<text text-anchor="middle" x="492" y="-318.3" font-family="Times New Roman,serif" font-size="14.00">&#45;98.5</text>
</g>
<!-- N1253946629&#45;&gt;N1897115967 -->
<g id="edge24" class="edge">
<title>N1253946629&#45;&gt;N1897115967</title>
<path fill="none" stroke="black" d="M431.38,-378.83C442.12,-368.94 456.66,-355.55 468.81,-344.36"/>
<polygon fill="black" stroke="black" points="471.4,-346.73 476.38,-337.38 466.66,-341.59 471.4,-346.73"/>
</g>
<!-- N243745864 -->
<g id="node23" class="node">
<title>N243745864</title>
<ellipse fill="#fafafa" stroke="black" cx="270" cy="-250" rx="27" ry="18"/>
<text text-anchor="middle" x="270" y="-246.3" font-family="Times New Roman,serif" font-size="14.00">84.5</text>
</g>
<!-- N352359770&#45;&gt;N243745864 -->
<g id="edge21" class="edge">
<title>N352359770&#45;&gt;N243745864</title>
<path fill="none" stroke="black" d="M327.43,-306.83C317.25,-296.94 303.48,-283.55 291.97,-272.36"/>
<polygon fill="black" stroke="black" points="294.41,-269.85 284.8,-265.38 289.53,-274.87 294.41,-269.85"/>
</g>
<!-- N699780352 -->
<g id="node24" class="node">
<title>N699780352</title>
<ellipse fill="#fafafa" stroke="black" cx="342" cy="-250" rx="27" ry="18"/>
<text text-anchor="middle" x="342" y="-246.3" font-family="Times New Roman,serif" font-size="14.00">25.7</text>
</g>
<!-- N352359770&#45;&gt;N699780352 -->
<g id="edge22" class="edge">
<title>N352359770&#45;&gt;N699780352</title>
<path fill="none" stroke="black" d="M342,-303.7C342,-295.98 342,-286.71 342,-278.11"/>
<polygon fill="black" stroke="black" points="345.5,-278.1 342,-268.1 338.5,-278.1 345.5,-278.1"/>
</g>
<!-- N1502635287 -->
<g id="node31" class="node">
<title>N1502635287</title>
<ellipse fill="#fafafa" stroke="black" cx="397" cy="-538" rx="27" ry="18"/>
<text text-anchor="middle" x="397" y="-534.3" font-family="Times New Roman,serif" font-size="14.00">[]</text>
</g>
<!-- N1615056168&#45;&gt;N1502635287 -->
<g id="edge29" class="edge">
<title>N1615056168&#45;&gt;N1502635287</title>
<path fill="none" stroke="black" d="M466.42,-595.5C453.69,-585.14 435.91,-570.67 421.54,-558.97"/>
<polygon fill="black" stroke="black" points="423.5,-556.05 413.53,-552.46 419.08,-561.48 423.5,-556.05"/>
</g>
<!-- N1543237999 -->
<g id="node32" class="node">
<title>N1543237999</title>
<ellipse fill="#fafafa" stroke="black" cx="482" cy="-538" rx="39.79" ry="18"/>
<text text-anchor="middle" x="482" y="-534.3" font-family="Times New Roman,serif" font-size="14.00">argc(...)</text>
</g>
<!-- N1615056168&#45;&gt;N1543237999 -->
<g id="edge30" class="edge">
<title>N1615056168&#45;&gt;N1543237999</title>
<path fill="none" stroke="black" d="M482.75,-591.7C482.64,-583.98 482.51,-574.71 482.39,-566.11"/>
<polygon fill="black" stroke="black" points="485.89,-566.05 482.24,-556.1 478.89,-566.15 485.89,-566.05"/>
</g>
<!-- N19717364 -->
<g id="node34" class="node">
<title>N19717364</title>
<ellipse fill="#fafafa" stroke="black" cx="567" cy="-538" rx="27" ry="18"/>
<text text-anchor="middle" x="567" y="-534.3" font-family="Times New Roman,serif" font-size="14.00">0.0</text>
</g>
<!-- N213193302&#45;&gt;N19717364 -->
<g id="edge32" class="edge">
<title>N213193302&#45;&gt;N19717364</title>
<path fill="none" stroke="black" d="M567,-591.7C567,-583.98 567,-574.71 567,-566.11"/>
<polygon fill="black" stroke="black" points="570.5,-566.1 567,-556.1 563.5,-566.1 570.5,-566.1"/>
</g>
<!-- N1540270363 -->
<g id="node35" class="node">
<title>N1540270363</title>
<ellipse fill="#fafafa" stroke="black" cx="639" cy="-538" rx="27" ry="18"/>
<text text-anchor="middle" x="639" y="-534.3" font-family="Times New Roman,serif" font-size="14.00">+</text>
</g>
<!-- N213193302&#45;&gt;N1540270363 -->
<g id="edge33" class="edge">
<title>N213193302&#45;&gt;N1540270363</title>
<path fill="none" stroke="black" d="M581.57,-594.83C591.75,-584.94 605.52,-571.55 617.03,-560.36"/>
<polygon fill="black" stroke="black" points="619.47,-562.87 624.2,-553.38 614.59,-557.85 619.47,-562.87"/>
</g>
<!-- N632249781 -->
<g id="node33" class="node">
<title>N632249781</title>
<ellipse fill="#fafafa" stroke="black" cx="414" cy="-466" rx="27" ry="18"/>
<text text-anchor="middle" x="414" y="-462.3" font-family="Times New Roman,serif" font-size="14.00">1.0</text>
</g>
<!-- N1502635287&#45;&gt;N632249781 -->
<g id="edge31" class="edge">
<title>N1502635287&#45;&gt;N632249781</title>
<path fill="none" stroke="black" d="M401.12,-520.05C403.01,-512.26 405.3,-502.82 407.42,-494.08"/>
<polygon fill="black" stroke="black" points="410.85,-494.82 409.8,-484.28 404.04,-493.17 410.85,-494.82"/>
</g>
<!-- N1597655940 -->
<g id="node36" class="node">
<title>N1597655940</title>
<ellipse fill="#fafafa" stroke="black" cx="559" cy="-466" rx="27" ry="18"/>
<text text-anchor="middle" x="559" y="-462.3" font-family="Times New Roman,serif" font-size="14.00">[]</text>
</g>
<!-- N1540270363&#45;&gt;N1597655940 -->
<g id="edge34" class="edge">
<title>N1540270363&#45;&gt;N1597655940</title>
<path fill="none" stroke="black" d="M623.19,-523.17C611.58,-513.01 595.61,-499.03 582.5,-487.56"/>
<polygon fill="black" stroke="black" points="584.6,-484.75 574.77,-480.8 579.99,-490.02 584.6,-484.75"/>
</g>
<!-- N2619171 -->
<g id="node37" class="node">
<title>N2619171</title>
<ellipse fill="#fafafa" stroke="black" cx="639" cy="-466" rx="35.19" ry="18"/>
<text text-anchor="middle" x="639" y="-462.3" font-family="Times New Roman,serif" font-size="14.00">arg(...)</text>
</g>
<!-- N1540270363&#45;&gt;N2619171 -->
<g id="edge35" class="edge">
<title>N1540270363&#45;&gt;N2619171</title>
<path fill="none" stroke="black" d="M639,-519.7C639,-511.98 639,-502.71 639,-494.11"/>
<polygon fill="black" stroke="black" points="642.5,-494.1 639,-484.1 635.5,-494.1 642.5,-494.1"/>
</g>
<!-- N1728790703 -->
<g id="node38" class="node">
<title>N1728790703</title>
<ellipse fill="#fafafa" stroke="black" cx="559" cy="-394" rx="27" ry="18"/>
<text text-anchor="middle" x="559" y="-390.3" font-family="Times New Roman,serif" font-size="14.00">0.0</text>
</g>
<!-- N1597655940&#45;&gt;N1728790703 -->
<g id="edge36" class="edge">
<title>N1597655940&#45;&gt;N1728790703</title>
<path fill="none" stroke="black" d="M559,-447.7C559,-439.98 559,-430.71 559,-422.11"/>
<polygon fill="black" stroke="black" points="562.5,-422.1 559,-412.1 555.5,-422.1 562.5,-422.1"/>
</g>
<!-- N1227074340 -->
<g id="node39" class="node">
<title>N1227074340</title>
<ellipse fill="#fafafa" stroke="black" cx="638" cy="-394" rx="27" ry="18"/>
<text text-anchor="middle" x="638" y="-390.3" font-family="Times New Roman,serif" font-size="14.00">+</text>
</g>
<!-- N2619171&#45;&gt;N1227074340 -->
<g id="edge37" class="edge">
<title>N2619171&#45;&gt;N1227074340</title>
<path fill="none" stroke="black" d="M638.75,-447.7C638.64,-439.98 638.51,-430.71 638.39,-422.11"/>
<polygon fill="black" stroke="black" points="641.89,-422.05 638.24,-412.1 634.89,-422.15 641.89,-422.05"/>
</g>
<!-- N1154002927 -->
<g id="node40" class="node">
<title>N1154002927</title>
<ellipse fill="#fafafa" stroke="black" cx="566" cy="-322" rx="27" ry="18"/>
<text text-anchor="middle" x="566" y="-318.3" font-family="Times New Roman,serif" font-size="14.00">&#45;</text>
</g>
<!-- N1227074340&#45;&gt;N1154002927 -->
<g id="edge38" class="edge">
<title>N1227074340&#45;&gt;N1154002927</title>
<path fill="none" stroke="black" d="M623.43,-378.83C613.25,-368.94 599.48,-355.55 587.97,-344.36"/>
<polygon fill="black" stroke="black" points="590.41,-341.85 580.8,-337.38 585.53,-346.87 590.41,-341.85"/>
</g>
<!-- N2070529722 -->
<g id="node41" class="node">
<title>N2070529722</title>
<ellipse fill="#fafafa" stroke="black" cx="638" cy="-322" rx="27" ry="18"/>
<text text-anchor="middle" x="638" y="-318.3" font-family="Times New Roman,serif" font-size="14.00">&#45;</text>
</g>
<!-- N1227074340&#45;&gt;N2070529722 -->
<g id="edge39" class="edge">
<title>N1227074340&#45;&gt;N2070529722</title>
<path fill="none" stroke="black" d="M638,-375.7C638,-367.98 638,-358.71 638,-350.11"/>
<polygon fill="black" stroke="black" points="641.5,-350.1 638,-340.1 634.5,-350.1 641.5,-350.1"/>
</g>
<!-- N1188753216 -->
<g id="node42" class="node">
<title>N1188753216</title>
<ellipse fill="#fafafa" stroke="black" cx="414" cy="-250" rx="27" ry="18"/>
<text text-anchor="middle" x="414" y="-246.3" font-family="Times New Roman,serif" font-size="14.00">&gt;</text>
</g>
<!-- N1154002927&#45;&gt;N1188753216 -->
<g id="edge40" class="edge">
<title>N1154002927&#45;&gt;N1188753216</title>
<path fill="none" stroke="black" d="M544.7,-310.89C539.87,-308.61 534.76,-306.21 530,-304 501.36,-290.7 468.63,-275.77 445.25,-265.15"/>
<polygon fill="black" stroke="black" points="446.4,-261.83 435.84,-260.88 443.51,-268.2 446.4,-261.83"/>
</g>
<!-- N84739718 -->
<g id="node48" class="node">
<title>N84739718</title>
<ellipse fill="#fafafa" stroke="black" cx="558" cy="-250" rx="27" ry="18"/>
<text text-anchor="middle" x="558" y="-246.3" font-family="Times New Roman,serif" font-size="14.00">&gt;</text>
</g>
<!-- N2070529722&#45;&gt;N84739718 -->
<g id="edge46" class="edge">
<title>N2070529722&#45;&gt;N84739718</title>
<path fill="none" stroke="black" d="M622.19,-307.17C610.58,-297.01 594.61,-283.03 581.5,-271.56"/>
<polygon fill="black" stroke="black" points="583.6,-268.75 573.77,-264.8 578.99,-274.02 583.6,-268.75"/>
</g>
<!-- N2050835901 -->
<g id="node49" class="node">
<title>N2050835901</title>
<ellipse fill="#fafafa" stroke="black" cx="638" cy="-250" rx="27" ry="18"/>
<text text-anchor="middle" x="638" y="-246.3" font-family="Times New Roman,serif" font-size="14.00">~=</text>
</g>
<!-- N2070529722&#45;&gt;N2050835901 -->
<g id="edge47" class="edge">
<title>N2070529722&#45;&gt;N2050835901</title>
<path fill="none" stroke="black" d="M638,-303.7C638,-295.98 638,-286.71 638,-278.11"/>
<polygon fill="black" stroke="black" points="641.5,-278.1 638,-268.1 634.5,-278.1 641.5,-278.1"/>
</g>
<!-- N317986356 -->
<g id="node43" class="node">
<title>N317986356</title>
<ellipse fill="#fafafa" stroke="black" cx="117" cy="-178" rx="27" ry="18"/>
<text text-anchor="middle" x="117" y="-174.3" font-family="Times New Roman,serif" font-size="14.00">&lt;</text>
</g>
<!-- N1188753216&#45;&gt;N317986356 -->
<g id="edge41" class="edge">
<title>N1188753216&#45;&gt;N317986356</title>
<path fill="none" stroke="black" d="M393.42,-238.2C388.47,-235.91 383.12,-233.67 378,-232 297.55,-205.72 273.81,-213.48 191,-196 178.2,-193.3 164.21,-190.14 151.87,-187.28"/>
<polygon fill="black" stroke="black" points="152.49,-183.83 141.96,-184.97 150.9,-190.65 152.49,-183.83"/>
</g>
<!-- N331510866 -->
<g id="node44" class="node">
<title>N331510866</title>
<ellipse fill="#fafafa" stroke="black" cx="227" cy="-178" rx="27" ry="18"/>
<text text-anchor="middle" x="227" y="-174.3" font-family="Times New Roman,serif" font-size="14.00">[]</text>
</g>
<!-- N1188753216&#45;&gt;N331510866 -->
<g id="edge42" class="edge">
<title>N1188753216&#45;&gt;N331510866</title>
<path fill="none" stroke="black" d="M392.84,-238.56C388.01,-236.3 382.86,-233.99 378,-232 338.28,-215.7 291.49,-199.77 260.64,-189.7"/>
<polygon fill="black" stroke="black" points="261.42,-186.27 250.82,-186.51 259.26,-192.93 261.42,-186.27"/>
</g>
<!-- N640363654 -->
<g id="node45" class="node">
<title>N640363654</title>
<ellipse fill="#fafafa" stroke="black" cx="43" cy="-106" rx="27" ry="18"/>
<text text-anchor="middle" x="43" y="-102.3" font-family="Times New Roman,serif" font-size="14.00">25.3</text>
</g>
<!-- N317986356&#45;&gt;N640363654 -->
<g id="edge43" class="edge">
<title>N317986356&#45;&gt;N640363654</title>
<path fill="none" stroke="black" d="M102.02,-162.83C91.49,-152.87 77.22,-139.37 65.34,-128.14"/>
<polygon fill="black" stroke="black" points="67.62,-125.47 57.95,-121.14 62.81,-130.56 67.62,-125.47"/>
</g>
<!-- N924477420 -->
<g id="node46" class="node">
<title>N924477420</title>
<ellipse fill="#fafafa" stroke="black" cx="117" cy="-106" rx="29.5" ry="18"/>
<text text-anchor="middle" x="117" y="-102.3" font-family="Times New Roman,serif" font-size="14.00">&#45;64.6</text>
</g>
<!-- N317986356&#45;&gt;N924477420 -->
<g id="edge44" class="edge">
<title>N317986356&#45;&gt;N924477420</title>
<path fill="none" stroke="black" d="M117,-159.7C117,-151.98 117,-142.71 117,-134.11"/>
<polygon fill="black" stroke="black" points="120.5,-134.1 117,-124.1 113.5,-134.1 120.5,-134.1"/>
</g>
<!-- N99451533 -->
<g id="node47" class="node">
<title>N99451533</title>
<ellipse fill="#fafafa" stroke="black" cx="191" cy="-106" rx="27" ry="18"/>
<text text-anchor="middle" x="191" y="-102.3" font-family="Times New Roman,serif" font-size="14.00">79.1</text>
</g>
<!-- N331510866&#45;&gt;N99451533 -->
<g id="edge45" class="edge">
<title>N331510866&#45;&gt;N99451533</title>
<path fill="none" stroke="black" d="M218.65,-160.76C214.29,-152.28 208.85,-141.71 203.96,-132.2"/>
<polygon fill="black" stroke="black" points="206.99,-130.44 199.3,-123.15 200.77,-133.64 206.99,-130.44"/>
</g>
<!-- N511473681 -->
<g id="node50" class="node">
<title>N511473681</title>
<ellipse fill="#fafafa" stroke="black" cx="335" cy="-178" rx="27" ry="18"/>
<text text-anchor="middle" x="335" y="-174.3" font-family="Times New Roman,serif" font-size="14.00">~=</text>
</g>
<!-- N84739718&#45;&gt;N511473681 -->
<g id="edge48" class="edge">
<title>N84739718&#45;&gt;N511473681</title>
<path fill="none" stroke="black" d="M534.14,-241.51C494.34,-229.02 414.3,-203.89 368.74,-189.59"/>
<polygon fill="black" stroke="black" points="369.62,-186.2 359.03,-186.54 367.52,-192.88 369.62,-186.2"/>
</g>
<!-- N2011986105 -->
<g id="node51" class="node">
<title>N2011986105</title>
<ellipse fill="#fafafa" stroke="black" cx="558" cy="-178" rx="32.49" ry="18"/>
<text text-anchor="middle" x="558" y="-174.3" font-family="Times New Roman,serif" font-size="14.00">if&#45;else</text>
</g>
<!-- N84739718&#45;&gt;N2011986105 -->
<g id="edge49" class="edge">
<title>N84739718&#45;&gt;N2011986105</title>
<path fill="none" stroke="black" d="M558,-231.7C558,-223.98 558,-214.71 558,-206.11"/>
<polygon fill="black" stroke="black" points="561.5,-206.1 558,-196.1 554.5,-206.1 561.5,-206.1"/>
</g>
<!-- N242355057 -->
<g id="node68" class="node">
<title>N242355057</title>
<ellipse fill="#fafafa" stroke="black" cx="638" cy="-178" rx="29.5" ry="18"/>
<text text-anchor="middle" x="638" y="-174.3" font-family="Times New Roman,serif" font-size="14.00">&#45;66.9</text>
</g>
<!-- N2050835901&#45;&gt;N242355057 -->
<g id="edge66" class="edge">
<title>N2050835901&#45;&gt;N242355057</title>
<path fill="none" stroke="black" d="M638,-231.7C638,-223.98 638,-214.71 638,-206.11"/>
<polygon fill="black" stroke="black" points="641.5,-206.1 638,-196.1 634.5,-206.1 641.5,-206.1"/>
</g>
<!-- N455538610 -->
<g id="node69" class="node">
<title>N455538610</title>
<ellipse fill="#fafafa" stroke="black" cx="714" cy="-178" rx="29.5" ry="18"/>
<text text-anchor="middle" x="714" y="-174.3" font-family="Times New Roman,serif" font-size="14.00">&#45;86.1</text>
</g>
<!-- N2050835901&#45;&gt;N455538610 -->
<g id="edge67" class="edge">
<title>N2050835901&#45;&gt;N455538610</title>
<path fill="none" stroke="black" d="M653.38,-234.83C664.12,-224.94 678.66,-211.55 690.81,-200.36"/>
<polygon fill="black" stroke="black" points="693.4,-202.73 698.38,-193.38 688.66,-197.59 693.4,-202.73"/>
</g>
<!-- N439904756 -->
<g id="node52" class="node">
<title>N439904756</title>
<ellipse fill="#fafafa" stroke="black" cx="263" cy="-106" rx="27" ry="18"/>
<text text-anchor="middle" x="263" y="-102.3" font-family="Times New Roman,serif" font-size="14.00">|</text>
</g>
<!-- N511473681&#45;&gt;N439904756 -->
<g id="edge50" class="edge">
<title>N511473681&#45;&gt;N439904756</title>
<path fill="none" stroke="black" d="M320.43,-162.83C310.25,-152.94 296.48,-139.55 284.97,-128.36"/>
<polygon fill="black" stroke="black" points="287.41,-125.85 277.8,-121.38 282.53,-130.87 287.41,-125.85"/>
</g>
<!-- N171497379 -->
<g id="node53" class="node">
<title>N171497379</title>
<ellipse fill="#fafafa" stroke="black" cx="335" cy="-106" rx="27" ry="18"/>
<text text-anchor="middle" x="335" y="-102.3" font-family="Times New Roman,serif" font-size="14.00">+</text>
</g>
<!-- N511473681&#45;&gt;N171497379 -->
<g id="edge51" class="edge">
<title>N511473681&#45;&gt;N171497379</title>
<path fill="none" stroke="black" d="M335,-159.7C335,-151.98 335,-142.71 335,-134.11"/>
<polygon fill="black" stroke="black" points="338.5,-134.1 335,-124.1 331.5,-134.1 338.5,-134.1"/>
</g>
<!-- N1295083508 -->
<g id="node58" class="node">
<title>N1295083508</title>
<ellipse fill="#fafafa" stroke="black" cx="449" cy="-106" rx="32.49" ry="18"/>
<text text-anchor="middle" x="449" y="-102.3" font-family="Times New Roman,serif" font-size="14.00">if&#45;else</text>
</g>
<!-- N2011986105&#45;&gt;N1295083508 -->
<g id="edge56" class="edge">
<title>N2011986105&#45;&gt;N1295083508</title>
<path fill="none" stroke="black" d="M537.5,-163.83C520.67,-153.03 496.66,-137.6 477.88,-125.55"/>
<polygon fill="black" stroke="black" points="479.72,-122.57 469.41,-120.11 475.93,-128.46 479.72,-122.57"/>
</g>
<!-- N249155636 -->
<g id="node59" class="node">
<title>N249155636</title>
<ellipse fill="#fafafa" stroke="black" cx="559" cy="-106" rx="27" ry="18"/>
<text text-anchor="middle" x="559" y="-102.3" font-family="Times New Roman,serif" font-size="14.00">{}</text>
</g>
<!-- N2011986105&#45;&gt;N249155636 -->
<g id="edge57" class="edge">
<title>N2011986105&#45;&gt;N249155636</title>
<path fill="none" stroke="black" d="M558.25,-159.7C558.36,-151.98 558.49,-142.71 558.61,-134.11"/>
<polygon fill="black" stroke="black" points="562.11,-134.15 558.76,-124.1 555.11,-134.05 562.11,-134.15"/>
</g>
<!-- N1629604310 -->
<g id="node60" class="node">
<title>N1629604310</title>
<ellipse fill="#fafafa" stroke="black" cx="707" cy="-106" rx="27" ry="18"/>
<text text-anchor="middle" x="707" y="-102.3" font-family="Times New Roman,serif" font-size="14.00">*</text>
</g>
<!-- N2011986105&#45;&gt;N1629604310 -->
<g id="edge58" class="edge">
<title>N2011986105&#45;&gt;N1629604310</title>
<path fill="none" stroke="black" d="M581.94,-165.75C607.55,-153.72 648.25,-134.6 676.22,-121.46"/>
<polygon fill="black" stroke="black" points="677.98,-124.5 685.54,-117.08 675,-118.17 677.98,-124.5"/>
</g>
<!-- N2012846597 -->
<g id="node54" class="node">
<title>N2012846597</title>
<ellipse fill="#fafafa" stroke="black" cx="43" cy="-34" rx="27" ry="18"/>
<text text-anchor="middle" x="43" y="-30.3" font-family="Times New Roman,serif" font-size="14.00">73.6</text>
</g>
<!-- N439904756&#45;&gt;N2012846597 -->
<g id="edge52" class="edge">
<title>N439904756&#45;&gt;N2012846597</title>
<path fill="none" stroke="black" d="M242.36,-94.38C237.41,-92.08 232.08,-89.8 227,-88 163.18,-65.43 142.82,-74.57 79,-52 77.09,-51.33 75.15,-50.58 73.21,-49.8"/>
<polygon fill="black" stroke="black" points="74.2,-46.41 63.64,-45.62 71.4,-52.83 74.2,-46.41"/>
</g>
<!-- N1665404403 -->
<g id="node55" class="node">
<title>N1665404403</title>
<ellipse fill="#fafafa" stroke="black" cx="117" cy="-34" rx="29.5" ry="18"/>
<text text-anchor="middle" x="117" y="-30.3" font-family="Times New Roman,serif" font-size="14.00">&#45;80.5</text>
</g>
<!-- N439904756&#45;&gt;N1665404403 -->
<g id="edge53" class="edge">
<title>N439904756&#45;&gt;N1665404403</title>
<path fill="none" stroke="black" d="M241.77,-94.82C217.33,-83.1 176.93,-63.73 148.75,-50.22"/>
<polygon fill="black" stroke="black" points="150.23,-47.05 139.7,-45.88 147.2,-53.36 150.23,-47.05"/>
</g>
<!-- N988458918 -->
<g id="node56" class="node">
<title>N988458918</title>
<ellipse fill="#fafafa" stroke="black" cx="191" cy="-34" rx="27" ry="18"/>
<text text-anchor="middle" x="191" y="-30.3" font-family="Times New Roman,serif" font-size="14.00">&#45;7.5</text>
</g>
<!-- N171497379&#45;&gt;N988458918 -->
<g id="edge54" class="edge">
<title>N171497379&#45;&gt;N988458918</title>
<path fill="none" stroke="black" d="M313.75,-94.67C289.4,-82.83 249.28,-63.33 221.57,-49.86"/>
<polygon fill="black" stroke="black" points="222.86,-46.6 212.33,-45.37 219.8,-52.89 222.86,-46.6"/>
</g>
<!-- N1990451863 -->
<g id="node57" class="node">
<title>N1990451863</title>
<ellipse fill="#fafafa" stroke="black" cx="265" cy="-34" rx="29.5" ry="18"/>
<text text-anchor="middle" x="265" y="-30.3" font-family="Times New Roman,serif" font-size="14.00">&#45;87.6</text>
</g>
<!-- N171497379&#45;&gt;N1990451863 -->
<g id="edge55" class="edge">
<title>N171497379&#45;&gt;N1990451863</title>
<path fill="none" stroke="black" d="M320.5,-90.5C310.86,-80.86 298.04,-68.04 287.14,-57.14"/>
<polygon fill="black" stroke="black" points="289.51,-54.56 279.97,-49.97 284.56,-59.51 289.51,-54.56"/>
</g>
<!-- N142555199 -->
<g id="node61" class="node">
<title>N142555199</title>
<ellipse fill="#fafafa" stroke="black" cx="341" cy="-34" rx="29.5" ry="18"/>
<text text-anchor="middle" x="341" y="-30.3" font-family="Times New Roman,serif" font-size="14.00">&#45;52.1</text>
</g>
<!-- N1295083508&#45;&gt;N142555199 -->
<g id="edge59" class="edge">
<title>N1295083508&#45;&gt;N142555199</title>
<path fill="none" stroke="black" d="M428.69,-91.83C411.81,-80.89 387.61,-65.21 368.92,-53.09"/>
<polygon fill="black" stroke="black" points="370.79,-50.14 360.5,-47.64 366.98,-56.01 370.79,-50.14"/>
</g>
<!-- N1320677379 -->
<g id="node62" class="node">
<title>N1320677379</title>
<ellipse fill="#fafafa" stroke="black" cx="415" cy="-34" rx="27" ry="18"/>
<text text-anchor="middle" x="415" y="-30.3" font-family="Times New Roman,serif" font-size="14.00">23.4</text>
</g>
<!-- N1295083508&#45;&gt;N1320677379 -->
<g id="edge60" class="edge">
<title>N1295083508&#45;&gt;N1320677379</title>
<path fill="none" stroke="black" d="M440.94,-88.41C436.92,-80.13 431.96,-69.92 427.46,-60.66"/>
<polygon fill="black" stroke="black" points="430.52,-58.94 423,-51.47 424.22,-61.99 430.52,-58.94"/>
</g>
<!-- N246399377 -->
<g id="node63" class="node">
<title>N246399377</title>
<ellipse fill="#fafafa" stroke="black" cx="487" cy="-34" rx="27" ry="18"/>
<text text-anchor="middle" x="487" y="-30.3" font-family="Times New Roman,serif" font-size="14.00">8.0</text>
</g>
<!-- N1295083508&#45;&gt;N246399377 -->
<g id="edge61" class="edge">
<title>N1295083508&#45;&gt;N246399377</title>
<path fill="none" stroke="black" d="M458.01,-88.41C462.55,-80.04 468.16,-69.71 473.23,-60.37"/>
<polygon fill="black" stroke="black" points="476.36,-61.93 478.06,-51.47 470.21,-58.59 476.36,-61.93"/>
</g>
<!-- N1630521067 -->
<g id="node64" class="node">
<title>N1630521067</title>
<ellipse fill="#fafafa" stroke="black" cx="559" cy="-34" rx="27" ry="18"/>
<text text-anchor="middle" x="559" y="-30.3" font-family="Times New Roman,serif" font-size="14.00">32.8</text>
</g>
<!-- N249155636&#45;&gt;N1630521067 -->
<g id="edge62" class="edge">
<title>N249155636&#45;&gt;N1630521067</title>
<path fill="none" stroke="black" d="M559,-87.7C559,-79.98 559,-70.71 559,-62.11"/>
<polygon fill="black" stroke="black" points="562.5,-62.1 559,-52.1 555.5,-62.1 562.5,-62.1"/>
</g>
<!-- N274773041 -->
<g id="node65" class="node">
<title>N274773041</title>
<ellipse fill="#fafafa" stroke="black" cx="633" cy="-34" rx="29.5" ry="18"/>
<text text-anchor="middle" x="633" y="-30.3" font-family="Times New Roman,serif" font-size="14.00">&#45;48.3</text>
</g>
<!-- N249155636&#45;&gt;N274773041 -->
<g id="edge63" class="edge">
<title>N249155636&#45;&gt;N274773041</title>
<path fill="none" stroke="black" d="M573.98,-90.83C584.44,-80.94 598.59,-67.55 610.42,-56.36"/>
<polygon fill="black" stroke="black" points="612.93,-58.8 617.79,-49.38 608.12,-53.71 612.93,-58.8"/>
</g>
<!-- N1629911510 -->
<g id="node66" class="node">
<title>N1629911510</title>
<ellipse fill="#fafafa" stroke="black" cx="707" cy="-34" rx="27" ry="18"/>
<text text-anchor="middle" x="707" y="-30.3" font-family="Times New Roman,serif" font-size="14.00">2.0</text>
</g>
<!-- N1629604310&#45;&gt;N1629911510 -->
<g id="edge64" class="edge">
<title>N1629604310&#45;&gt;N1629911510</title>
<path fill="none" stroke="black" d="M707,-87.7C707,-79.98 707,-70.71 707,-62.11"/>
<polygon fill="black" stroke="black" points="710.5,-62.1 707,-52.1 703.5,-62.1 710.5,-62.1"/>
</g>
<!-- N292917034 -->
<g id="node67" class="node">
<title>N292917034</title>
<ellipse fill="#fafafa" stroke="black" cx="781" cy="-34" rx="29.5" ry="18"/>
<text text-anchor="middle" x="781" y="-30.3" font-family="Times New Roman,serif" font-size="14.00">&#45;23.1</text>
</g>
<!-- N1629604310&#45;&gt;N292917034 -->
<g id="edge65" class="edge">
<title>N1629604310&#45;&gt;N292917034</title>
<path fill="none" stroke="black" d="M721.98,-90.83C732.44,-80.94 746.59,-67.55 758.42,-56.36"/>
<polygon fill="black" stroke="black" points="760.93,-58.8 765.79,-49.38 756.12,-53.71 760.93,-58.8"/>
</g>
<!-- N1780132728 -->
<g id="node72" class="node">
<title>N1780132728</title>
<ellipse fill="#fafafa" stroke="black" cx="711" cy="-538" rx="27" ry="18"/>
<text text-anchor="middle" x="711" y="-534.3" font-family="Times New Roman,serif" font-size="14.00">0.0</text>
</g>
<!-- N1226622409&#45;&gt;N1780132728 -->
<g id="edge70" class="edge">
<title>N1226622409&#45;&gt;N1780132728</title>
<path fill="none" stroke="black" d="M673.89,-593.12C679.97,-584.26 687.66,-573.04 694.46,-563.12"/>
<polygon fill="black" stroke="black" points="697.38,-565.05 700.15,-554.82 691.61,-561.09 697.38,-565.05"/>
</g>
</g>
</svg>
