<?xml version="1.0" encoding="UTF-8" standalone="no"?>
<!DOCTYPE svg PUBLIC "-//W3C//DTD SVG 1.1//EN"
 "http://www.w3.org/Graphics/SVG/1.1/DTD/svg11.dtd">
<!-- Generated by graphviz version 7.0.1 (20221109.1506)
 -->
<!-- Title: G Pages: 1 -->
<svg width="282pt" height="274pt"
 viewBox="0.00 0.00 282.00 274.00" xmlns="http://www.w3.org/2000/svg" xmlns:xlink="http://www.w3.org/1999/xlink">
<g id="graph0" class="graph" transform="scale(1 1) rotate(0) translate(4 270)">
<title>G</title>
<polygon fill="white" stroke="none" points="-4,4 -4,-270 278,-270 278,4 -4,4"/>
<g id="clust1" class="cluster">
<title>cluster_P403424356</title>
<polygon fill="none" stroke="black" points="8,-8 8,-258 266,-258 266,-8 8,-8"/>
<text text-anchor="middle" x="137" y="-242.8" font-family="Times New Roman,serif" font-size="14.00">c</text>
</g>
<g id="clust3" class="cluster">
<title>cluster_Z1566723494</title>
<polygon fill="none" stroke="black" points="180,-152 180,-227 258,-227 258,-152 180,-152"/>
<text text-anchor="middle" x="219" y="-211.8" font-family="Times New Roman,serif" font-size="14.00">ARGMIN</text>
</g>
<g id="clust4" class="cluster">
<title>cluster_Z510113906</title>
<polygon fill="none" stroke="black" points="80,-152 80,-227 172,-227 172,-152 80,-152"/>
<text text-anchor="middle" x="126" y="-211.8" font-family="Times New Roman,serif" font-size="14.00">MEMLIMIT</text>
</g>
<!-- 0.0 -->
<g id="node1" class="node">
<title>0.0</title>
<polygon fill="lightgrey" stroke="black" points="219,-196 188,-178 219,-160 250,-178 219,-196"/>
<text text-anchor="middle" x="219" y="-174.3" font-family="Times New Roman,serif" font-size="14.00">0.0</text>
</g>
<!-- 64.0 -->
<g id="node2" class="node">
<title>64.0</title>
<polygon fill="lightgrey" stroke="black" points="126,-196 88.13,-178 126,-160 163.87,-178 126,-196"/>
<text text-anchor="middle" x="126" y="-174.3" font-family="Times New Roman,serif" font-size="14.00">64.0</text>
</g>
<!-- N269468037 -->
<g id="node3" class="node">
<title>N269468037</title>
<ellipse fill="#ff0000" stroke="black" cx="43" cy="-178" rx="27" ry="18"/>
<text text-anchor="middle" x="43" y="-174.3" font-family="Times New Roman,serif" font-size="14.00">~=</text>
</g>
<!-- N1681595665 -->
<g id="node4" class="node">
<title>N1681595665</title>
<ellipse fill="#0000ff" stroke="black" cx="45" cy="-106" rx="29.5" ry="18"/>
<text text-anchor="middle" x="45" y="-102.3" font-family="Times New Roman,serif" font-size="14.00">&#45;63.4</text>
</g>
<!-- N269468037&#45;&gt;N1681595665 -->
<g id="edge1" class="edge">
<title>N269468037&#45;&gt;N1681595665</title>
<path fill="none" stroke="black" d="M43.49,-159.7C43.7,-152.41 43.95,-143.73 44.18,-135.54"/>
<polygon fill="black" stroke="black" points="47.68,-135.71 44.47,-125.62 40.68,-135.51 47.68,-135.71"/>
</g>
<!-- N787867107 -->
<g id="node5" class="node">
<title>N787867107</title>
<ellipse fill="#ff0000" stroke="black" cx="119" cy="-106" rx="27" ry="18"/>
<text text-anchor="middle" x="119" y="-102.3" font-family="Times New Roman,serif" font-size="14.00">~!=</text>
</g>
<!-- N269468037&#45;&gt;N787867107 -->
<g id="edge2" class="edge">
<title>N269468037&#45;&gt;N787867107</title>
<path fill="none" stroke="black" d="M58.38,-162.83C68.99,-153.06 83.3,-139.88 95.35,-128.78"/>
<polygon fill="black" stroke="black" points="97.55,-131.52 102.53,-122.17 92.8,-126.37 97.55,-131.52"/>
</g>
<!-- N57494364 -->
<g id="node6" class="node">
<title>N57494364</title>
<ellipse fill="#ff0000" stroke="black" cx="82" cy="-34" rx="29.5" ry="18"/>
<text text-anchor="middle" x="82" y="-30.3" font-family="Times New Roman,serif" font-size="14.00">&#45;54.9</text>
</g>
<!-- N787867107&#45;&gt;N57494364 -->
<g id="edge3" class="edge">
<title>N787867107&#45;&gt;N57494364</title>
<path fill="none" stroke="black" d="M110.42,-88.76C106.18,-80.75 100.96,-70.88 96.16,-61.79"/>
<polygon fill="black" stroke="black" points="99.27,-60.18 91.5,-52.97 93.08,-63.45 99.27,-60.18"/>
</g>
<!-- N1828757853 -->
<g id="node7" class="node">
<title>N1828757853</title>
<ellipse fill="#ff0000" stroke="black" cx="156" cy="-34" rx="27" ry="18"/>
<text text-anchor="middle" x="156" y="-30.3" font-family="Times New Roman,serif" font-size="14.00">read</text>
</g>
<!-- N787867107&#45;&gt;N1828757853 -->
<g id="edge4" class="edge">
<title>N787867107&#45;&gt;N1828757853</title>
<path fill="none" stroke="black" d="M127.58,-88.76C131.92,-80.55 137.3,-70.37 142.21,-61.09"/>
<polygon fill="black" stroke="black" points="145.18,-62.96 146.76,-52.49 138.99,-59.69 145.18,-62.96"/>
</g>
</g>
</svg>
