<?xml version="1.0" encoding="UTF-8" standalone="no"?>
<!DOCTYPE svg PUBLIC "-//W3C//DTD SVG 1.1//EN"
 "http://www.w3.org/Graphics/SVG/1.1/DTD/svg11.dtd">
<!-- Generated by graphviz version 6.0.2 (20221011.1828)
 -->
<!-- Title: G Pages: 1 -->
<svg width="361pt" height="562pt"
 viewBox="0.00 0.00 361.00 562.00" xmlns="http://www.w3.org/2000/svg" xmlns:xlink="http://www.w3.org/1999/xlink">
<g id="graph0" class="graph" transform="scale(1 1) rotate(0) translate(4 558)">
<title>G</title>
<polygon fill="white" stroke="none" points="-4,4 -4,-558 357,-558 357,4 -4,4"/>
<g id="clust1" class="cluster">
<title>cluster_P1018937824</title>
<polygon fill="none" stroke="black" points="8,-8 8,-546 345,-546 345,-8 8,-8"/>
<text text-anchor="middle" x="176.5" y="-530.8" font-family="Times New Roman,serif" font-size="14.00">main</text>
</g>
<g id="clust2" class="cluster">
<title>cluster_Z905654280</title>
<polygon fill="none" stroke="black" points="259,-440 259,-515 337,-515 337,-440 259,-440"/>
<text text-anchor="middle" x="298" y="-499.8" font-family="Times New Roman,serif" font-size="14.00">ARGMAX</text>
</g>
<g id="clust3" class="cluster">
<title>cluster_Z1915058446</title>
<polygon fill="none" stroke="black" points="173,-440 173,-515 251,-515 251,-440 173,-440"/>
<text text-anchor="middle" x="212" y="-499.8" font-family="Times New Roman,serif" font-size="14.00">a</text>
</g>
<g id="clust5" class="cluster">
<title>cluster_Z922151033</title>
<polygon fill="none" stroke="black" points="78,-440 78,-515 165,-515 165,-440 78,-440"/>
<text text-anchor="middle" x="121.5" y="-499.8" font-family="Times New Roman,serif" font-size="14.00">MEMLIMIT</text>
</g>
<!-- 0.0 -->
<g id="node1" class="node">
<title>0.0</title>
<polygon fill="lightgrey" stroke="black" points="298,-484 267,-466 298,-448 329,-466 298,-484"/>
<text text-anchor="middle" x="298" y="-462.3" font-family="Times New Roman,serif" font-size="14.00">0.0</text>
</g>
<!-- 3.0 -->
<g id="node2" class="node">
<title>3.0</title>
<polygon fill="lightgrey" stroke="black" points="212,-484 181,-466 212,-448 243,-466 212,-484"/>
<text text-anchor="middle" x="212" y="-462.3" font-family="Times New Roman,serif" font-size="14.00">3.0</text>
</g>
<!-- 4.0 -->
<g id="node3" class="node">
<title>4.0</title>
<polygon fill="lightgrey" stroke="black" points="122,-484 91,-466 122,-448 153,-466 122,-484"/>
<text text-anchor="middle" x="122" y="-462.3" font-family="Times New Roman,serif" font-size="14.00">4.0</text>
</g>
<!-- N1516369375 -->
<g id="node4" class="node">
<title>N1516369375</title>
<ellipse fill="#fafafa" stroke="black" cx="43" cy="-466" rx="27" ry="18"/>
<text text-anchor="middle" x="43" y="-462.3" font-family="Times New Roman,serif" font-size="14.00">*</text>
</g>
<!-- N55909012 -->
<g id="node5" class="node">
<title>N55909012</title>
<ellipse fill="#fafafa" stroke="black" cx="44" cy="-394" rx="27" ry="18"/>
<text text-anchor="middle" x="44" y="-390.3" font-family="Times New Roman,serif" font-size="14.00">|</text>
</g>
<!-- N1516369375&#45;&gt;N55909012 -->
<g id="edge1" class="edge">
<title>N1516369375&#45;&gt;N55909012</title>
<path fill="none" stroke="black" d="M43.25,-447.7C43.36,-439.98 43.49,-430.71 43.61,-422.11"/>
<polygon fill="black" stroke="black" points="47.11,-422.15 43.76,-412.1 40.11,-422.05 47.11,-422.15"/>
</g>
<!-- N1394336709 -->
<g id="node6" class="node">
<title>N1394336709</title>
<ellipse fill="#fafafa" stroke="black" cx="116" cy="-394" rx="27" ry="18"/>
<text text-anchor="middle" x="116" y="-390.3" font-family="Times New Roman,serif" font-size="14.00">73.0</text>
</g>
<!-- N1516369375&#45;&gt;N1394336709 -->
<g id="edge2" class="edge">
<title>N1516369375&#45;&gt;N1394336709</title>
<path fill="none" stroke="black" d="M57.77,-450.83C68.16,-440.87 82.24,-427.37 93.96,-416.14"/>
<polygon fill="black" stroke="black" points="96.45,-418.59 101.25,-409.14 91.61,-413.54 96.45,-418.59"/>
</g>
<!-- N546718765 -->
<g id="node7" class="node">
<title>N546718765</title>
<ellipse fill="#fafafa" stroke="black" cx="45" cy="-322" rx="27" ry="18"/>
<text text-anchor="middle" x="45" y="-318.3" font-family="Times New Roman,serif" font-size="14.00">&#45;</text>
</g>
<!-- N55909012&#45;&gt;N546718765 -->
<g id="edge3" class="edge">
<title>N55909012&#45;&gt;N546718765</title>
<path fill="none" stroke="black" d="M44.25,-375.7C44.36,-367.98 44.49,-358.71 44.61,-350.11"/>
<polygon fill="black" stroke="black" points="48.11,-350.15 44.76,-340.1 41.11,-350.05 48.11,-350.15"/>
</g>
<!-- N167185492 -->
<g id="node8" class="node">
<title>N167185492</title>
<ellipse fill="#fafafa" stroke="black" cx="119" cy="-322" rx="29.5" ry="18"/>
<text text-anchor="middle" x="119" y="-318.3" font-family="Times New Roman,serif" font-size="14.00">while</text>
</g>
<!-- N55909012&#45;&gt;N167185492 -->
<g id="edge4" class="edge">
<title>N55909012&#45;&gt;N167185492</title>
<path fill="none" stroke="black" d="M59.18,-378.83C69.78,-368.94 84.13,-355.55 96.12,-344.36"/>
<polygon fill="black" stroke="black" points="98.67,-346.77 103.59,-337.38 93.89,-341.65 98.67,-346.77"/>
</g>
<!-- N592179046 -->
<g id="node9" class="node">
<title>N592179046</title>
<ellipse fill="#fafafa" stroke="black" cx="45" cy="-250" rx="29.5" ry="18"/>
<text text-anchor="middle" x="45" y="-246.3" font-family="Times New Roman,serif" font-size="14.00">&#45;29.0</text>
</g>
<!-- N546718765&#45;&gt;N592179046 -->
<g id="edge5" class="edge">
<title>N546718765&#45;&gt;N592179046</title>
<path fill="none" stroke="black" d="M45,-303.7C45,-295.98 45,-286.71 45,-278.11"/>
<polygon fill="black" stroke="black" points="48.5,-278.1 45,-268.1 41.5,-278.1 48.5,-278.1"/>
</g>
<!-- N1937348256 -->
<g id="node10" class="node">
<title>N1937348256</title>
<ellipse fill="#fafafa" stroke="black" cx="119" cy="-250" rx="27" ry="18"/>
<text text-anchor="middle" x="119" y="-246.3" font-family="Times New Roman,serif" font-size="14.00">!~=</text>
</g>
<!-- N167185492&#45;&gt;N1937348256 -->
<g id="edge6" class="edge">
<title>N167185492&#45;&gt;N1937348256</title>
<path fill="none" stroke="black" d="M119,-303.7C119,-295.98 119,-286.71 119,-278.11"/>
<polygon fill="black" stroke="black" points="122.5,-278.1 119,-268.1 115.5,-278.1 122.5,-278.1"/>
</g>
<!-- N1641808846 -->
<g id="node11" class="node">
<title>N1641808846</title>
<ellipse fill="#fafafa" stroke="black" cx="191" cy="-250" rx="27" ry="18"/>
<text text-anchor="middle" x="191" y="-246.3" font-family="Times New Roman,serif" font-size="14.00">&lt;</text>
</g>
<!-- N167185492&#45;&gt;N1641808846 -->
<g id="edge7" class="edge">
<title>N167185492&#45;&gt;N1641808846</title>
<path fill="none" stroke="black" d="M133.92,-306.5C143.96,-296.73 157.38,-283.69 168.68,-272.7"/>
<polygon fill="black" stroke="black" points="171.37,-274.97 176.1,-265.49 166.49,-269.95 171.37,-274.97"/>
</g>
<!-- N1358444045 -->
<g id="node12" class="node">
<title>N1358444045</title>
<ellipse fill="#fafafa" stroke="black" cx="47" cy="-178" rx="27" ry="18"/>
<text text-anchor="middle" x="47" y="-174.3" font-family="Times New Roman,serif" font-size="14.00">read</text>
</g>
<!-- N1937348256&#45;&gt;N1358444045 -->
<g id="edge8" class="edge">
<title>N1937348256&#45;&gt;N1358444045</title>
<path fill="none" stroke="black" d="M104.43,-234.83C94.25,-224.94 80.48,-211.55 68.97,-200.36"/>
<polygon fill="black" stroke="black" points="71.41,-197.85 61.8,-193.38 66.53,-202.87 71.41,-197.85"/>
</g>
<!-- N750044075 -->
<g id="node13" class="node">
<title>N750044075</title>
<ellipse fill="#fafafa" stroke="black" cx="119" cy="-178" rx="27" ry="18"/>
<text text-anchor="middle" x="119" y="-174.3" font-family="Times New Roman,serif" font-size="14.00">read</text>
</g>
<!-- N1937348256&#45;&gt;N750044075 -->
<g id="edge9" class="edge">
<title>N1937348256&#45;&gt;N750044075</title>
<path fill="none" stroke="black" d="M119,-231.7C119,-223.98 119,-214.71 119,-206.11"/>
<polygon fill="black" stroke="black" points="122.5,-206.1 119,-196.1 115.5,-206.1 122.5,-206.1"/>
</g>
<!-- N331844619 -->
<g id="node14" class="node">
<title>N331844619</title>
<ellipse fill="#fafafa" stroke="black" cx="191" cy="-178" rx="27" ry="18"/>
<text text-anchor="middle" x="191" y="-174.3" font-family="Times New Roman,serif" font-size="14.00">[]</text>
</g>
<!-- N1641808846&#45;&gt;N331844619 -->
<g id="edge10" class="edge">
<title>N1641808846&#45;&gt;N331844619</title>
<path fill="none" stroke="black" d="M191,-231.7C191,-223.98 191,-214.71 191,-206.11"/>
<polygon fill="black" stroke="black" points="194.5,-206.1 191,-196.1 187.5,-206.1 194.5,-206.1"/>
</g>
<!-- N310656974 -->
<g id="node15" class="node">
<title>N310656974</title>
<ellipse fill="#fafafa" stroke="black" cx="264" cy="-178" rx="27" ry="18"/>
<text text-anchor="middle" x="264" y="-174.3" font-family="Times New Roman,serif" font-size="14.00">[]</text>
</g>
<!-- N1641808846&#45;&gt;N310656974 -->
<g id="edge11" class="edge">
<title>N1641808846&#45;&gt;N310656974</title>
<path fill="none" stroke="black" d="M205.77,-234.83C216.16,-224.87 230.24,-211.37 241.96,-200.14"/>
<polygon fill="black" stroke="black" points="244.45,-202.59 249.25,-193.14 239.61,-197.54 244.45,-202.59"/>
</g>
<!-- N64830413 -->
<g id="node16" class="node">
<title>N64830413</title>
<ellipse fill="#fafafa" stroke="black" cx="190" cy="-106" rx="27" ry="18"/>
<text text-anchor="middle" x="190" y="-102.3" font-family="Times New Roman,serif" font-size="14.00">~=</text>
</g>
<!-- N331844619&#45;&gt;N64830413 -->
<g id="edge12" class="edge">
<title>N331844619&#45;&gt;N64830413</title>
<path fill="none" stroke="black" d="M190.75,-159.7C190.64,-151.98 190.51,-142.71 190.39,-134.11"/>
<polygon fill="black" stroke="black" points="193.89,-134.05 190.24,-124.1 186.89,-134.15 193.89,-134.05"/>
</g>
<!-- N356473385 -->
<g id="node19" class="node">
<title>N356473385</title>
<ellipse fill="#fafafa" stroke="black" cx="264" cy="-106" rx="29.5" ry="18"/>
<text text-anchor="middle" x="264" y="-102.3" font-family="Times New Roman,serif" font-size="14.00">&#45;49.0</text>
</g>
<!-- N310656974&#45;&gt;N356473385 -->
<g id="edge15" class="edge">
<title>N310656974&#45;&gt;N356473385</title>
<path fill="none" stroke="black" d="M264,-159.7C264,-151.98 264,-142.71 264,-134.11"/>
<polygon fill="black" stroke="black" points="267.5,-134.1 264,-124.1 260.5,-134.1 267.5,-134.1"/>
</g>
<!-- N159259014 -->
<g id="node17" class="node">
<title>N159259014</title>
<ellipse fill="#fafafa" stroke="black" cx="154" cy="-34" rx="27" ry="18"/>
<text text-anchor="middle" x="154" y="-30.3" font-family="Times New Roman,serif" font-size="14.00">read</text>
</g>
<!-- N64830413&#45;&gt;N159259014 -->
<g id="edge13" class="edge">
<title>N64830413&#45;&gt;N159259014</title>
<path fill="none" stroke="black" d="M181.65,-88.76C177.29,-80.28 171.85,-69.71 166.96,-60.2"/>
<polygon fill="black" stroke="black" points="169.99,-58.44 162.3,-51.15 163.77,-61.64 169.99,-58.44"/>
</g>
<!-- N653687670 -->
<g id="node18" class="node">
<title>N653687670</title>
<ellipse fill="#fafafa" stroke="black" cx="226" cy="-34" rx="27" ry="18"/>
<text text-anchor="middle" x="226" y="-30.3" font-family="Times New Roman,serif" font-size="14.00">read</text>
</g>
<!-- N64830413&#45;&gt;N653687670 -->
<g id="edge14" class="edge">
<title>N64830413&#45;&gt;N653687670</title>
<path fill="none" stroke="black" d="M198.35,-88.76C202.71,-80.28 208.15,-69.71 213.04,-60.2"/>
<polygon fill="black" stroke="black" points="216.23,-61.64 217.7,-51.15 210.01,-58.44 216.23,-61.64"/>
</g>
</g>
</svg>
