<?xml version="1.0" encoding="UTF-8" standalone="no"?>
<!DOCTYPE svg PUBLIC "-//W3C//DTD SVG 1.1//EN"
 "http://www.w3.org/Graphics/SVG/1.1/DTD/svg11.dtd">
<!-- Generated by graphviz version 6.0.2 (20221011.1828)
 -->
<!-- Title: G Pages: 1 -->
<svg width="196pt" height="346pt"
 viewBox="0.00 0.00 196.00 346.00" xmlns="http://www.w3.org/2000/svg" xmlns:xlink="http://www.w3.org/1999/xlink">
<g id="graph0" class="graph" transform="scale(1 1) rotate(0) translate(4 342)">
<title>G</title>
<polygon fill="white" stroke="none" points="-4,4 -4,-342 192,-342 192,4 -4,4"/>
<g id="clust1" class="cluster">
<title>cluster_P1595953398</title>
<polygon fill="none" stroke="black" points="8,-8 8,-330 180,-330 180,-8 8,-8"/>
<text text-anchor="middle" x="94" y="-314.8" font-family="Times New Roman,serif" font-size="14.00">c</text>
</g>
<g id="clust2" class="cluster">
<title>cluster_Z2017354584</title>
<polygon fill="none" stroke="black" points="80,-224 80,-299 172,-299 172,-224 80,-224"/>
<text text-anchor="middle" x="126" y="-283.8" font-family="Times New Roman,serif" font-size="14.00">MEMLIMIT</text>
</g>
<!-- 64.0 -->
<g id="node1" class="node">
<title>64.0</title>
<polygon fill="lightgrey" stroke="black" points="126,-268 88.13,-250 126,-232 163.87,-250 126,-268"/>
<text text-anchor="middle" x="126" y="-246.3" font-family="Times New Roman,serif" font-size="14.00">64.0</text>
</g>
<!-- N1870647526 -->
<g id="node2" class="node">
<title>N1870647526</title>
<ellipse fill="#ff0000" stroke="black" cx="43" cy="-250" rx="27" ry="18"/>
<text text-anchor="middle" x="43" y="-246.3" font-family="Times New Roman,serif" font-size="14.00">&lt;</text>
</g>
<!-- N1204167249 -->
<g id="node3" class="node">
<title>N1204167249</title>
<ellipse fill="#ff0000" stroke="black" cx="43" cy="-178" rx="27" ry="18"/>
<text text-anchor="middle" x="43" y="-174.3" font-family="Times New Roman,serif" font-size="14.00">+</text>
</g>
<!-- N1870647526&#45;&gt;N1204167249 -->
<g id="edge1" class="edge">
<title>N1870647526&#45;&gt;N1204167249</title>
<path fill="none" stroke="black" d="M43,-231.7C43,-223.98 43,-214.71 43,-206.11"/>
<polygon fill="black" stroke="black" points="46.5,-206.1 43,-196.1 39.5,-206.1 46.5,-206.1"/>
</g>
<!-- N1047503754 -->
<g id="node4" class="node">
<title>N1047503754</title>
<ellipse fill="#ff0000" stroke="black" cx="117" cy="-178" rx="29.5" ry="18"/>
<text text-anchor="middle" x="117" y="-174.3" font-family="Times New Roman,serif" font-size="14.00">&#45;58.6</text>
</g>
<!-- N1870647526&#45;&gt;N1047503754 -->
<g id="edge2" class="edge">
<title>N1870647526&#45;&gt;N1047503754</title>
<path fill="none" stroke="black" d="M57.98,-234.83C68.44,-224.94 82.59,-211.55 94.42,-200.36"/>
<polygon fill="black" stroke="black" points="96.93,-202.8 101.79,-193.38 92.12,-197.71 96.93,-202.8"/>
</g>
<!-- N1722023916 -->
<g id="node5" class="node">
<title>N1722023916</title>
<ellipse fill="#0000ff" stroke="black" cx="43" cy="-106" rx="27" ry="18"/>
<text text-anchor="middle" x="43" y="-102.3" font-family="Times New Roman,serif" font-size="14.00">~=</text>
</g>
<!-- N1204167249&#45;&gt;N1722023916 -->
<g id="edge3" class="edge">
<title>N1204167249&#45;&gt;N1722023916</title>
<path fill="none" stroke="black" d="M43,-159.7C43,-151.98 43,-142.71 43,-134.11"/>
<polygon fill="black" stroke="black" points="46.5,-134.1 43,-124.1 39.5,-134.1 46.5,-134.1"/>
</g>
<!-- N2009787198 -->
<g id="node6" class="node">
<title>N2009787198</title>
<ellipse fill="#ff0000" stroke="black" cx="117" cy="-106" rx="29.5" ry="18"/>
<text text-anchor="middle" x="117" y="-102.3" font-family="Times New Roman,serif" font-size="14.00">&#45;87.6</text>
</g>
<!-- N1204167249&#45;&gt;N2009787198 -->
<g id="edge4" class="edge">
<title>N1204167249&#45;&gt;N2009787198</title>
<path fill="none" stroke="black" d="M57.98,-162.83C68.44,-152.94 82.59,-139.55 94.42,-128.36"/>
<polygon fill="black" stroke="black" points="96.93,-130.8 101.79,-121.38 92.12,-125.71 96.93,-130.8"/>
</g>
<!-- N32017212 -->
<g id="node7" class="node">
<title>N32017212</title>
<ellipse fill="#0000ff" stroke="black" cx="43" cy="-34" rx="27" ry="18"/>
<text text-anchor="middle" x="43" y="-30.3" font-family="Times New Roman,serif" font-size="14.00">34.5</text>
</g>
<!-- N1722023916&#45;&gt;N32017212 -->
<g id="edge5" class="edge">
<title>N1722023916&#45;&gt;N32017212</title>
<path fill="none" stroke="black" d="M43,-87.7C43,-79.98 43,-70.71 43,-62.11"/>
<polygon fill="black" stroke="black" points="46.5,-62.1 43,-52.1 39.5,-62.1 46.5,-62.1"/>
</g>
<!-- N1121454968 -->
<g id="node8" class="node">
<title>N1121454968</title>
<ellipse fill="#0000ff" stroke="black" cx="115" cy="-34" rx="27" ry="18"/>
<text text-anchor="middle" x="115" y="-30.3" font-family="Times New Roman,serif" font-size="14.00">52.2</text>
</g>
<!-- N1722023916&#45;&gt;N1121454968 -->
<g id="edge6" class="edge">
<title>N1722023916&#45;&gt;N1121454968</title>
<path fill="none" stroke="black" d="M57.57,-90.83C67.75,-80.94 81.52,-67.55 93.03,-56.36"/>
<polygon fill="black" stroke="black" points="95.47,-58.87 100.2,-49.38 90.59,-53.85 95.47,-58.87"/>
</g>
</g>
</svg>
